<?xml version="1.0" encoding="UTF-8"?>
<svg id="Layer_1" data-name="Layer 1" xmlns="http://www.w3.org/2000/svg" viewBox="0 0 612 792">
  <defs>
    <style>
      .cls-1 {
        fill: #1b8d41;
      }

      .cls-1, .cls-2, .cls-3, .cls-4, .cls-5, .cls-6, .cls-7, .cls-8, .cls-9, .cls-10, .cls-11, .cls-12, .cls-13, .cls-14, .cls-15, .cls-16, .cls-17, .cls-18, .cls-19, .cls-20, .cls-21, .cls-22, .cls-23, .cls-24, .cls-25, .cls-26, .cls-27, .cls-28, .cls-29, .cls-30, .cls-31, .cls-32, .cls-33, .cls-34, .cls-35, .cls-36, .cls-37, .cls-38, .cls-39, .cls-40, .cls-41, .cls-42, .cls-43, .cls-44, .cls-45, .cls-46, .cls-47, .cls-48, .cls-49, .cls-50, .cls-51, .cls-52, .cls-53, .cls-54, .cls-55, .cls-56, .cls-57, .cls-58, .cls-59, .cls-60, .cls-61, .cls-62, .cls-63, .cls-64, .cls-65, .cls-66, .cls-67, .cls-68, .cls-69, .cls-70, .cls-71, .cls-72, .cls-73, .cls-74, .cls-75, .cls-76, .cls-77, .cls-78 {
        stroke: #006838;
      }

      .cls-1, .cls-2, .cls-3, .cls-4, .cls-5, .cls-6, .cls-7, .cls-8, .cls-9, .cls-10, .cls-11, .cls-12, .cls-13, .cls-14, .cls-15, .cls-16, .cls-17, .cls-18, .cls-19, .cls-20, .cls-21, .cls-22, .cls-23, .cls-24, .cls-25, .cls-26, .cls-27, .cls-28, .cls-29, .cls-30, .cls-31, .cls-32, .cls-33, .cls-34, .cls-35, .cls-36, .cls-37, .cls-39, .cls-40, .cls-41, .cls-42, .cls-43, .cls-44, .cls-45, .cls-46, .cls-47, .cls-48, .cls-49, .cls-50, .cls-51, .cls-52, .cls-53, .cls-54, .cls-55, .cls-56, .cls-57, .cls-58, .cls-59, .cls-60, .cls-61, .cls-62, .cls-63, .cls-64, .cls-65, .cls-66, .cls-67, .cls-68, .cls-69, .cls-70, .cls-71, .cls-72, .cls-73, .cls-74, .cls-75, .cls-76, .cls-77, .cls-78 {
        stroke-miterlimit: 10;
      }

      .cls-2 {
        fill: #299f45;
      }

      .cls-3 {
        fill: #016938;
      }

      .cls-4 {
        fill: #06703a;
      }

      .cls-5 {
        fill: #0a763b;
      }

      .cls-6 {
        fill: #39b54a;
      }

      .cls-7 {
        fill: #0e7b3c;
      }

      .cls-8 {
        fill: #026b39;
      }

      .cls-9 {
        fill: #12803e;
      }

      .cls-10 {
        fill: #36b149;
      }

      .cls-11 {
        fill: #16863f;
      }

      .cls-12 {
        fill: #31aa47;
      }

      .cls-13 {
        fill: #289e45;
      }

      .cls-14 {
        fill: #08733b;
      }

      .cls-15 {
        fill: #0b773b;
      }

      .cls-16 {
        fill: #0d7a3c;
      }

      .cls-17 {
        fill: #2fa747;
      }

      .cls-18 {
        fill: #279d44;
      }

      .cls-19 {
        fill: #2aa145;
      }

      .cls-20 {
        fill: #198a40;
      }

      .cls-21 {
        fill: #006838;
      }

      .cls-22 {
        fill: #117f3d;
      }

      .cls-23 {
        fill: #2ca346;
      }

      .cls-24 {
        fill: #2aa045;
      }

      .cls-25 {
        fill: #279c44;
      }

      .cls-26 {
        fill: #2ea647;
      }

      .cls-27 {
        fill: #15853f;
      }

      .cls-28 {
        fill: #2ba246;
      }

      .cls-29 {
        fill: #0c793c;
      }

      .cls-30 {
        fill: #1e9041;
      }

      .cls-31 {
        fill: #38b44a;
      }

      .cls-32 {
        fill: #32ac48;
      }

      .cls-33 {
        fill: #09743b;
      }

      .cls-34 {
        fill: #14833e;
      }

      .cls-35 {
        fill: #016a38;
      }

      .cls-36 {
        fill: #35b049;
      }

      .cls-37 {
        fill: #13823e;
      }

      .cls-38 {
        fill: #046d39;
        stroke-miterlimit: 10;
      }

      .cls-39 {
        fill: #12813e;
      }

      .cls-40 {
        fill: #229543;
      }

      .cls-41 {
        fill: #229643;
      }

      .cls-42 {
        fill: #1a8b40;
      }

      .cls-43 {
        fill: #188940;
      }

      .cls-44 {
        fill: #0a753b;
      }

      .cls-45 {
        fill: #38b34a;
      }

      .cls-46 {
        fill: #0f7d3d;
      }

      .cls-47 {
        fill: #0f7c3d;
      }

      .cls-48 {
        fill: #0c783c;
      }

      .cls-49 {
        fill: #219442;
      }

      .cls-50 {
        fill: #07723a;
      }

      .cls-51 {
        fill: #17883f;
      }

      .cls-52 {
        fill: #046e39;
      }

      .cls-53 {
        fill: #33ad48;
      }

      .cls-54 {
        fill: #37b249;
      }

      .cls-55 {
        fill: #35af49;
      }

      .cls-56 {
        fill: #32ab48;
      }

      .cls-57 {
        fill: #07713a;
      }

      .cls-58 {
        fill: #107e3d;
      }

      .cls-59 {
        fill: #259a44;
      }

      .cls-60 {
        fill: #17873f;
      }

      .cls-61 {
        fill: #14843e;
      }

      .cls-62 {
        fill: #259944;
      }

      .cls-63 {
        fill: #239743;
      }

      .cls-64 {
        fill: #1d8f41;
      }

      .cls-65 {
        fill: #1c8e41;
      }

      .cls-66 {
        fill: #1a8c40;
      }

      .cls-67 {
        fill: #1f9242;
      }

      .cls-68 {
        fill: #056f3a;
      }

      .cls-69 {
        fill: #30a947;
      }

      .cls-70 {
        fill: #249843;
      }

      .cls-71 {
        fill: #209342;
      }

      .cls-72 {
        fill: #2fa847;
      }

      .cls-73 {
        fill: #2da446;
      }

      .cls-74 {
        fill: #2da546;
      }

      .cls-75 {
        fill: #1f9142;
      }

      .cls-76 {
        fill: #34ae48;
      }

      .cls-77 {
        fill: #036c39;
      }

      .cls-78 {
        fill: #269b44;
      }
    </style>
  </defs>
  <g>
    <path class="cls-21" d="m146.25,525.06l-86.01-49.66,12.29-7.09,73.73,42.56,49.15-28.38,12.29,7.09-61.44,35.47Z"/>
    <polygon class="cls-3" points="146.25 524.61 60.24 474.95 72.52 467.86 146.25 510.42 195.4 482.05 207.69 489.14 146.25 524.61"/>
    <polygon class="cls-35" points="146.25 524.15 60.24 474.5 72.52 467.4 146.25 509.97 195.4 481.59 207.69 488.69 146.25 524.15"/>
    <polygon class="cls-8" points="146.25 523.7 60.24 474.04 72.52 466.95 146.25 509.51 195.4 481.14 207.69 488.23 146.25 523.7"/>
    <polygon class="cls-77" points="146.25 523.24 60.24 473.59 72.52 466.49 146.25 509.06 195.4 480.68 207.69 487.78 146.25 523.24"/>
    <polygon class="cls-38" points="146.25 522.79 60.24 473.13 72.52 466.04 146.25 508.6 195.4 480.23 207.69 487.32 146.25 522.79"/>
    <polygon class="cls-52" points="146.25 522.34 60.24 472.68 72.52 465.58 146.25 508.15 195.4 479.77 207.69 486.87 146.25 522.34"/>
    <polygon class="cls-68" points="146.25 521.88 60.24 472.22 72.52 465.13 146.25 507.69 195.4 479.32 207.69 486.41 146.25 521.88"/>
    <polygon class="cls-4" points="146.25 521.43 60.24 471.77 72.52 464.68 146.25 507.24 195.4 478.86 207.69 485.96 146.25 521.43"/>
    <polygon class="cls-57" points="146.25 520.97 60.24 471.31 72.52 464.22 146.25 506.78 195.4 478.41 207.69 485.5 146.25 520.97"/>
    <polygon class="cls-50" points="146.25 520.52 60.24 470.86 72.52 463.77 146.25 506.33 195.4 477.95 207.69 485.05 146.25 520.52"/>
    <polygon class="cls-14" points="146.25 520.06 60.24 470.41 72.52 463.31 146.25 505.87 195.4 477.5 207.69 484.59 146.25 520.06"/>
    <polygon class="cls-33" points="146.25 519.61 60.24 469.95 72.52 462.86 146.25 505.42 195.4 477.04 207.69 484.14 146.25 519.61"/>
    <polygon class="cls-44" points="146.25 519.15 60.24 469.5 72.52 462.4 146.25 504.96 195.4 476.59 207.69 483.68 146.25 519.15"/>
    <polygon class="cls-5" points="146.25 518.7 60.24 469.04 72.52 461.95 146.25 504.51 195.4 476.13 207.69 483.23 146.25 518.7"/>
    <polygon class="cls-15" points="146.25 518.24 60.24 468.59 72.52 461.49 146.25 504.06 195.4 475.68 207.69 482.77 146.25 518.24"/>
    <polygon class="cls-48" points="146.25 517.79 60.24 468.13 72.52 461.04 146.25 503.6 195.4 475.23 207.69 482.32 146.25 517.79"/>
    <polygon class="cls-29" points="146.25 517.33 60.24 467.68 72.52 460.58 146.25 503.15 195.4 474.77 207.69 481.86 146.25 517.33"/>
    <polygon class="cls-16" points="146.25 516.88 60.24 467.22 72.52 460.13 146.25 502.69 195.4 474.32 207.69 481.41 146.25 516.88"/>
    <polygon class="cls-7" points="146.25 516.42 60.24 466.77 72.52 459.67 146.25 502.24 195.4 473.86 207.69 480.95 146.25 516.42"/>
    <polygon class="cls-47" points="146.25 515.97 60.24 466.31 72.52 459.22 146.25 501.78 195.4 473.41 207.69 480.5 146.25 515.97"/>
    <polygon class="cls-46" points="146.25 515.51 60.24 465.86 72.52 458.76 146.25 501.33 195.4 472.95 207.69 480.05 146.25 515.51"/>
    <polygon class="cls-58" points="146.25 515.06 60.24 465.4 72.52 458.31 146.25 500.87 195.4 472.5 207.69 479.59 146.25 515.06"/>
    <polygon class="cls-22" points="146.25 514.6 60.24 464.95 72.52 457.85 146.25 500.42 195.4 472.04 207.69 479.14 146.25 514.6"/>
    <polygon class="cls-9" points="146.25 514.15 60.24 464.49 72.52 457.4 146.25 499.96 195.4 471.59 207.69 478.68 146.25 514.15"/>
    <polygon class="cls-39" points="146.25 513.7 60.24 464.04 72.52 456.95 146.25 499.51 195.4 471.13 207.69 478.23 146.25 513.7"/>
    <polygon class="cls-37" points="146.25 513.24 60.24 463.58 72.52 456.49 146.25 499.05 195.4 470.68 207.69 477.77 146.25 513.24"/>
    <polygon class="cls-34" points="146.25 512.79 60.24 463.13 72.52 456.04 146.25 498.6 195.4 470.22 207.69 477.32 146.25 512.79"/>
    <polygon class="cls-61" points="146.25 512.33 60.24 462.67 72.52 455.58 146.25 498.14 195.4 469.77 207.69 476.86 146.25 512.33"/>
    <polygon class="cls-27" points="146.25 511.88 60.24 462.22 72.52 455.13 146.25 497.69 195.4 469.31 207.69 476.41 146.25 511.88"/>
    <polygon class="cls-11" points="146.25 511.42 60.24 461.77 72.52 454.67 146.25 497.23 195.4 468.86 207.69 475.95 146.25 511.42"/>
    <polygon class="cls-60" points="146.25 510.97 60.24 461.31 72.52 454.22 146.25 496.78 195.4 468.4 207.69 475.5 146.25 510.97"/>
    <polygon class="cls-51" points="146.25 510.51 60.24 460.86 72.52 453.76 146.25 496.32 195.4 467.95 207.69 475.04 146.25 510.51"/>
    <polygon class="cls-43" points="146.25 510.06 60.24 460.4 72.52 453.31 146.25 495.87 195.4 467.49 207.69 474.59 146.25 510.06"/>
    <polygon class="cls-20" points="146.25 509.6 60.24 459.95 72.52 452.85 146.25 495.42 195.4 467.04 207.69 474.13 146.25 509.6"/>
    <polygon class="cls-42" points="146.25 509.15 60.24 459.49 72.52 452.4 146.25 494.96 195.4 466.59 207.69 473.68 146.25 509.15"/>
    <polygon class="cls-66" points="146.25 508.69 60.24 459.04 72.52 451.94 146.25 494.51 195.4 466.13 207.69 473.22 146.25 508.69"/>
    <polygon class="cls-1" points="146.25 508.24 60.24 458.58 72.52 451.49 146.25 494.05 195.4 465.68 207.69 472.77 146.25 508.24"/>
    <polygon class="cls-65" points="146.25 507.78 60.24 458.13 72.52 451.03 146.25 493.6 195.4 465.22 207.69 472.32 146.25 507.78"/>
    <polygon class="cls-64" points="146.25 507.33 60.24 457.67 72.52 450.58 146.25 493.14 195.4 464.77 207.69 471.86 146.25 507.33"/>
    <polygon class="cls-64" points="146.25 506.87 60.24 457.22 72.52 450.12 146.25 492.69 195.4 464.31 207.69 471.41 146.25 506.87"/>
    <polygon class="cls-30" points="146.25 506.42 60.24 456.76 72.52 449.67 146.25 492.23 195.4 463.86 207.69 470.95 146.25 506.42"/>
    <polygon class="cls-75" points="146.25 505.97 60.24 456.31 72.52 449.21 146.25 491.78 195.4 463.4 207.69 470.5 146.25 505.97"/>
    <polygon class="cls-67" points="146.25 505.51 60.24 455.85 72.52 448.76 146.25 491.32 195.4 462.95 207.69 470.04 146.25 505.51"/>
    <polygon class="cls-71" points="146.25 505.06 60.24 455.4 72.52 448.31 146.25 490.87 195.4 462.49 207.69 469.59 146.25 505.06"/>
    <polygon class="cls-49" points="146.25 504.6 60.24 454.94 72.52 447.85 146.25 490.41 195.4 462.04 207.69 469.13 146.25 504.6"/>
    <polygon class="cls-40" points="146.25 504.15 60.24 454.49 72.52 447.4 146.25 489.96 195.4 461.58 207.69 468.68 146.25 504.15"/>
    <polygon class="cls-41" points="146.25 503.69 60.24 454.03 72.52 446.94 146.25 489.5 195.4 461.13 207.69 468.22 146.25 503.69"/>
    <polygon class="cls-63" points="146.25 503.24 60.24 453.58 72.52 446.49 146.25 489.05 195.4 460.67 207.69 467.77 146.25 503.24"/>
    <polygon class="cls-70" points="146.25 502.78 60.24 453.13 72.52 446.03 146.25 488.59 195.4 460.22 207.69 467.31 146.25 502.78"/>
    <polygon class="cls-62" points="146.25 502.33 60.24 452.67 72.52 445.58 146.25 488.14 195.4 459.76 207.69 466.86 146.25 502.33"/>
    <polygon class="cls-59" points="146.25 501.87 60.24 452.22 72.52 445.12 146.25 487.69 195.4 459.31 207.69 466.4 146.25 501.87"/>
    <polygon class="cls-78" points="146.25 501.42 60.24 451.76 72.52 444.67 146.25 487.23 195.4 458.86 207.69 465.95 146.25 501.42"/>
    <polygon class="cls-25" points="146.25 500.96 60.24 451.31 72.52 444.21 146.25 486.78 195.4 458.4 207.69 465.49 146.25 500.96"/>
    <polygon class="cls-18" points="146.25 500.51 60.24 450.85 72.52 443.76 146.25 486.32 195.4 457.95 207.69 465.04 146.25 500.51"/>
    <polygon class="cls-13" points="146.25 500.05 60.24 450.4 72.52 443.3 146.25 485.87 195.4 457.49 207.69 464.58 146.25 500.05"/>
    <polygon class="cls-2" points="146.25 499.6 60.24 449.94 72.52 442.85 146.25 485.41 195.4 457.04 207.69 464.13 146.25 499.6"/>
    <polygon class="cls-24" points="146.25 499.14 60.24 449.49 72.52 442.39 146.25 484.96 195.4 456.58 207.69 463.68 146.25 499.14"/>
    <polygon class="cls-19" points="146.25 498.69 60.24 449.03 72.52 441.94 146.25 484.5 195.4 456.13 207.69 463.22 146.25 498.69"/>
    <polygon class="cls-28" points="146.25 498.23 60.24 448.58 72.52 441.48 146.25 484.05 195.4 455.67 207.69 462.77 146.25 498.23"/>
    <polygon class="cls-23" points="146.25 497.78 60.24 448.12 72.52 441.03 146.25 483.59 195.4 455.22 207.69 462.31 146.25 497.78"/>
    <polygon class="cls-73" points="146.25 497.33 60.24 447.67 72.52 440.57 146.25 483.14 195.4 454.76 207.69 461.86 146.25 497.33"/>
    <polygon class="cls-74" points="146.25 496.87 60.24 447.21 72.52 440.12 146.25 482.68 195.4 454.31 207.69 461.4 146.25 496.87"/>
    <polygon class="cls-26" points="146.25 496.42 60.24 446.76 72.52 439.67 146.25 482.23 195.4 453.85 207.69 460.95 146.25 496.42"/>
    <polygon class="cls-17" points="146.25 495.96 60.24 446.3 72.52 439.21 146.25 481.77 195.4 453.4 207.69 460.49 146.25 495.96"/>
    <polygon class="cls-72" points="146.25 495.51 60.24 445.85 72.52 438.76 146.25 481.32 195.4 452.94 207.69 460.04 146.25 495.51"/>
    <polygon class="cls-69" points="146.25 495.05 60.24 445.39 72.52 438.3 146.25 480.86 195.4 452.49 207.69 459.58 146.25 495.05"/>
    <polygon class="cls-12" points="146.25 494.6 60.24 444.94 72.52 437.85 146.25 480.41 195.4 452.03 207.69 459.13 146.25 494.6"/>
    <polygon class="cls-56" points="146.25 494.14 60.24 444.49 72.52 437.39 146.25 479.95 195.4 451.58 207.69 458.67 146.25 494.14"/>
    <polygon class="cls-32" points="146.25 493.69 60.24 444.03 72.52 436.94 146.25 479.5 195.4 451.12 207.69 458.22 146.25 493.69"/>
    <polygon class="cls-53" points="146.25 493.23 60.24 443.58 72.52 436.48 146.25 479.05 195.4 450.67 207.69 457.76 146.25 493.23"/>
    <polygon class="cls-76" points="146.25 492.78 60.24 443.12 72.52 436.03 146.25 478.59 195.4 450.22 207.69 457.31 146.25 492.78"/>
    <polygon class="cls-55" points="146.25 492.32 60.24 442.67 72.52 435.57 146.25 478.14 195.4 449.76 207.69 456.85 146.25 492.32"/>
    <polygon class="cls-36" points="146.25 491.87 60.24 442.21 72.52 435.12 146.25 477.68 195.4 449.31 207.69 456.4 146.25 491.87"/>
    <polygon class="cls-10" points="146.25 491.41 60.24 441.76 72.52 434.66 146.25 477.23 195.4 448.85 207.69 455.94 146.25 491.41"/>
    <polygon class="cls-54" points="146.25 490.96 60.24 441.3 72.52 434.21 146.25 476.77 195.4 448.4 207.69 455.49 146.25 490.96"/>
    <polygon class="cls-45" points="146.25 490.5 60.24 440.85 72.52 433.75 146.25 476.32 195.4 447.94 207.69 455.04 146.25 490.5"/>
    <polygon class="cls-31" points="146.25 490.05 60.24 440.39 72.52 433.3 146.25 475.86 195.4 447.49 207.69 454.58 146.25 490.05"/>
    <path class="cls-6" d="m146.25,489.59l-86.01-49.66,12.29-7.09,73.73,42.56,49.15-28.38,12.29,7.09-61.44,35.47Z"/>
  </g>
  <g>
    <path class="cls-21" d="m338.6,490.69l-12.29,7.09-12.29-7.09,12.29-7.09,12.29,7.09Zm0-14.19l-12.29,7.09-36.86-21.28,12.29-7.09,36.86,21.28Zm-86.01-21.28l12.29,7.09-24.58,14.19,61.44,35.47,24.58-14.19,12.29,7.09-36.86,21.28-86.01-49.66,36.86-21.28Zm36.86,7.09l-12.29,7.09-12.29-7.09,12.29-7.09,12.29,7.09Z"/>
    <path class="cls-3" d="m338.6,490.39l-12.29,7.09-12.29-7.09,12.29-7.09,12.29,7.09Zm0-14.19l-12.29,7.09-36.86-21.28,12.29-7.09,36.86,21.28Zm-86.01-21.28l12.29,7.09-24.58,14.19,61.44,35.47,24.58-14.19,12.29,7.09-36.86,21.28-86.01-49.66,36.86-21.28Zm36.86,7.09l-12.29,7.09-12.29-7.09,12.29-7.09,12.29,7.09Z"/>
    <path class="cls-35" d="m338.6,490.09l-12.29,7.09-12.29-7.09,12.29-7.09,12.29,7.09Zm0-14.19l-12.29,7.09-36.86-21.28,12.29-7.09,36.86,21.28Zm-86.01-21.28l12.29,7.09-24.58,14.19,61.44,35.47,24.58-14.19,12.29,7.09-36.86,21.28-86.01-49.66,36.86-21.28Zm36.86,7.09l-12.29,7.09-12.29-7.09,12.29-7.09,12.29,7.09Z"/>
    <path class="cls-8" d="m338.6,489.79l-12.29,7.09-12.29-7.09,12.29-7.09,12.29,7.09Zm0-14.19l-12.29,7.09-36.86-21.28,12.29-7.09,36.86,21.28Zm-86.01-21.28l12.29,7.09-24.58,14.19,61.44,35.47,24.58-14.19,12.29,7.09-36.86,21.28-86.01-49.66,36.86-21.28Zm36.86,7.09l-12.29,7.09-12.29-7.09,12.29-7.09,12.29,7.09Z"/>
    <path class="cls-77" d="m338.6,489.49l-12.29,7.09-12.29-7.09,12.29-7.09,12.29,7.09Zm0-14.19l-12.29,7.09-36.86-21.28,12.29-7.09,36.86,21.28Zm-86.01-21.28l12.29,7.09-24.58,14.19,61.44,35.47,24.58-14.19,12.29,7.09-36.86,21.28-86.01-49.66,36.86-21.28Zm36.86,7.09l-12.29,7.09-12.29-7.09,12.29-7.09,12.29,7.09Z"/>
    <path class="cls-38" d="m338.6,489.19l-12.29,7.09-12.29-7.09,12.29-7.09,12.29,7.09Zm0-14.19l-12.29,7.09-36.86-21.28,12.29-7.09,36.86,21.28Zm-86.01-21.28l12.29,7.09-24.58,14.19,61.44,35.47,24.58-14.19,12.29,7.09-36.86,21.28-86.01-49.66,36.86-21.28Zm36.86,7.09l-12.29,7.09-12.29-7.09,12.29-7.09,12.29,7.09Z"/>
    <path class="cls-52" d="m338.6,488.89l-12.29,7.09-12.29-7.09,12.29-7.09,12.29,7.09Zm0-14.19l-12.29,7.09-36.86-21.28,12.29-7.09,36.86,21.28Zm-86.01-21.28l12.29,7.09-24.58,14.19,61.44,35.47,24.58-14.19,12.29,7.09-36.86,21.28-86.01-49.66,36.86-21.28Zm36.86,7.09l-12.29,7.09-12.29-7.09,12.29-7.09,12.29,7.09Z"/>
    <path class="cls-68" d="m338.6,488.59l-12.29,7.09-12.29-7.09,12.29-7.09,12.29,7.09Zm0-14.19l-12.29,7.09-36.86-21.28,12.29-7.09,36.86,21.28Zm-86.01-21.28l12.29,7.09-24.58,14.19,61.44,35.47,24.58-14.19,12.29,7.09-36.86,21.28-86.01-49.66,36.86-21.28Zm36.86,7.09l-12.29,7.09-12.29-7.09,12.29-7.09,12.29,7.09Z"/>
    <path class="cls-4" d="m338.6,488.29l-12.29,7.09-12.29-7.09,12.29-7.09,12.29,7.09Zm0-14.19l-12.29,7.09-36.86-21.28,12.29-7.09,36.86,21.28Zm-86.01-21.28l12.29,7.09-24.58,14.19,61.44,35.47,24.58-14.19,12.29,7.09-36.86,21.28-86.01-49.66,36.86-21.28Zm36.86,7.09l-12.29,7.09-12.29-7.09,12.29-7.09,12.29,7.09Z"/>
    <path class="cls-57" d="m338.6,487.98l-12.29,7.09-12.29-7.09,12.29-7.09,12.29,7.09Zm0-14.19l-12.29,7.09-36.86-21.28,12.29-7.09,36.86,21.28Zm-86.01-21.28l12.29,7.09-24.58,14.19,61.44,35.47,24.58-14.19,12.29,7.09-36.86,21.28-86.01-49.66,36.86-21.28Zm36.86,7.09l-12.29,7.09-12.29-7.09,12.29-7.09,12.29,7.09Z"/>
    <path class="cls-50" d="m338.6,487.68l-12.29,7.09-12.29-7.09,12.29-7.09,12.29,7.09Zm0-14.19l-12.29,7.09-36.86-21.28,12.29-7.09,36.86,21.28Zm-86.01-21.28l12.29,7.09-24.58,14.19,61.44,35.47,24.58-14.19,12.29,7.09-36.86,21.28-86.01-49.66,36.86-21.28Zm36.86,7.09l-12.29,7.09-12.29-7.09,12.29-7.09,12.29,7.09Z"/>
    <path class="cls-14" d="m338.6,487.38l-12.29,7.09-12.29-7.09,12.29-7.09,12.29,7.09Zm0-14.19l-12.29,7.09-36.86-21.28,12.29-7.09,36.86,21.28Zm-86.01-21.28l12.29,7.09-24.58,14.19,61.44,35.47,24.58-14.19,12.29,7.09-36.86,21.28-86.01-49.66,36.86-21.28Zm36.86,7.09l-12.29,7.09-12.29-7.09,12.29-7.09,12.29,7.09Z"/>
    <path class="cls-33" d="m338.6,487.08l-12.29,7.09-12.29-7.09,12.29-7.09,12.29,7.09Zm0-14.19l-12.29,7.09-36.86-21.28,12.29-7.09,36.86,21.28Zm-86.01-21.28l12.29,7.09-24.58,14.19,61.44,35.47,24.58-14.19,12.29,7.09-36.86,21.28-86.01-49.66,36.86-21.28Zm36.86,7.09l-12.29,7.09-12.29-7.09,12.29-7.09,12.29,7.09Z"/>
    <path class="cls-44" d="m338.6,486.78l-12.29,7.09-12.29-7.09,12.29-7.09,12.29,7.09Zm0-14.19l-12.29,7.09-36.86-21.28,12.29-7.09,36.86,21.28Zm-86.01-21.28l12.29,7.09-24.58,14.19,61.44,35.47,24.58-14.19,12.29,7.09-36.86,21.28-86.01-49.66,36.86-21.28Zm36.86,7.09l-12.29,7.09-12.29-7.09,12.29-7.09,12.29,7.09Z"/>
    <path class="cls-5" d="m338.6,486.48l-12.29,7.09-12.29-7.09,12.29-7.09,12.29,7.09Zm0-14.19l-12.29,7.09-36.86-21.28,12.29-7.09,36.86,21.28Zm-86.01-21.28l12.29,7.09-24.58,14.19,61.44,35.47,24.58-14.19,12.29,7.09-36.86,21.28-86.01-49.66,36.86-21.28Zm36.86,7.09l-12.29,7.09-12.29-7.09,12.29-7.09,12.29,7.09Z"/>
    <path class="cls-15" d="m338.6,486.18l-12.29,7.09-12.29-7.09,12.29-7.09,12.29,7.09Zm0-14.19l-12.29,7.09-36.86-21.28,12.29-7.09,36.86,21.28Zm-86.01-21.28l12.29,7.09-24.58,14.19,61.44,35.47,24.58-14.19,12.29,7.09-36.86,21.28-86.01-49.66,36.86-21.28Zm36.86,7.09l-12.29,7.09-12.29-7.09,12.29-7.09,12.29,7.09Z"/>
    <path class="cls-48" d="m338.6,485.88l-12.29,7.09-12.29-7.09,12.29-7.09,12.29,7.09Zm0-14.19l-12.29,7.09-36.86-21.28,12.29-7.09,36.86,21.28Zm-86.01-21.28l12.29,7.09-24.58,14.19,61.44,35.47,24.58-14.19,12.29,7.09-36.86,21.28-86.01-49.66,36.86-21.28Zm36.86,7.09l-12.29,7.09-12.29-7.09,12.29-7.09,12.29,7.09Z"/>
    <path class="cls-29" d="m338.6,485.58l-12.29,7.09-12.29-7.09,12.29-7.09,12.29,7.09Zm0-14.19l-12.29,7.09-36.86-21.28,12.29-7.09,36.86,21.28Zm-86.01-21.28l12.29,7.09-24.58,14.19,61.44,35.47,24.58-14.19,12.29,7.09-36.86,21.28-86.01-49.66,36.86-21.28Zm36.86,7.09l-12.29,7.09-12.29-7.09,12.29-7.09,12.29,7.09Z"/>
    <path class="cls-16" d="m338.6,485.28l-12.29,7.09-12.29-7.09,12.29-7.09,12.29,7.09Zm0-14.19l-12.29,7.09-36.86-21.28,12.29-7.09,36.86,21.28Zm-86.01-21.28l12.29,7.09-24.58,14.19,61.44,35.47,24.58-14.19,12.29,7.09-36.86,21.28-86.01-49.66,36.86-21.28Zm36.86,7.09l-12.29,7.09-12.29-7.09,12.29-7.09,12.29,7.09Z"/>
    <path class="cls-7" d="m338.6,484.97l-12.29,7.09-12.29-7.09,12.29-7.09,12.29,7.09Zm0-14.19l-12.29,7.09-36.86-21.28,12.29-7.09,36.86,21.28Zm-86.01-21.28l12.29,7.09-24.58,14.19,61.44,35.47,24.58-14.19,12.29,7.09-36.86,21.28-86.01-49.66,36.86-21.28Zm36.86,7.09l-12.29,7.09-12.29-7.09,12.29-7.09,12.29,7.09Z"/>
    <path class="cls-47" d="m338.6,484.67l-12.29,7.09-12.29-7.09,12.29-7.09,12.29,7.09Zm0-14.19l-12.29,7.09-36.86-21.28,12.29-7.09,36.86,21.28Zm-86.01-21.28l12.29,7.09-24.58,14.19,61.44,35.47,24.58-14.19,12.29,7.09-36.86,21.28-86.01-49.66,36.86-21.28Zm36.86,7.09l-12.29,7.09-12.29-7.09,12.29-7.09,12.29,7.09Z"/>
    <path class="cls-46" d="m338.6,484.37l-12.29,7.09-12.29-7.09,12.29-7.09,12.29,7.09Zm0-14.19l-12.29,7.09-36.86-21.28,12.29-7.09,36.86,21.28Zm-86.01-21.28l12.29,7.09-24.58,14.19,61.44,35.47,24.58-14.19,12.29,7.09-36.86,21.28-86.01-49.66,36.86-21.28Zm36.86,7.09l-12.29,7.09-12.29-7.09,12.29-7.09,12.29,7.09Z"/>
    <path class="cls-58" d="m338.6,484.07l-12.29,7.09-12.29-7.09,12.29-7.09,12.29,7.09Zm0-14.19l-12.29,7.09-36.86-21.28,12.29-7.09,36.86,21.28Zm-86.01-21.28l12.29,7.09-24.58,14.19,61.44,35.47,24.58-14.19,12.29,7.09-36.86,21.28-86.01-49.66,36.86-21.28Zm36.86,7.09l-12.29,7.09-12.29-7.09,12.29-7.09,12.29,7.09Z"/>
    <path class="cls-22" d="m338.6,483.77l-12.29,7.09-12.29-7.09,12.29-7.09,12.29,7.09Zm0-14.19l-12.29,7.09-36.86-21.28,12.29-7.09,36.86,21.28Zm-86.01-21.28l12.29,7.09-24.58,14.19,61.44,35.47,24.58-14.19,12.29,7.09-36.86,21.28-86.01-49.66,36.86-21.28Zm36.86,7.09l-12.29,7.09-12.29-7.09,12.29-7.09,12.29,7.09Z"/>
    <path class="cls-9" d="m338.6,483.47l-12.29,7.09-12.29-7.09,12.29-7.09,12.29,7.09Zm0-14.19l-12.29,7.09-36.86-21.28,12.29-7.09,36.86,21.28Zm-86.01-21.28l12.29,7.09-24.58,14.19,61.44,35.47,24.58-14.19,12.29,7.09-36.86,21.28-86.01-49.66,36.86-21.28Zm36.86,7.09l-12.29,7.09-12.29-7.09,12.29-7.09,12.29,7.09Z"/>
    <path class="cls-39" d="m338.6,483.17l-12.29,7.09-12.29-7.09,12.29-7.09,12.29,7.09Zm0-14.19l-12.29,7.09-36.86-21.28,12.29-7.09,36.86,21.28Zm-86.01-21.28l12.29,7.09-24.58,14.19,61.44,35.47,24.58-14.19,12.29,7.09-36.86,21.28-86.01-49.66,36.86-21.28Zm36.86,7.09l-12.29,7.09-12.29-7.09,12.29-7.09,12.29,7.09Z"/>
    <path class="cls-37" d="m338.6,482.87l-12.29,7.09-12.29-7.09,12.29-7.09,12.29,7.09Zm0-14.19l-12.29,7.09-36.86-21.28,12.29-7.09,36.86,21.28Zm-86.01-21.28l12.29,7.09-24.58,14.19,61.44,35.47,24.58-14.19,12.29,7.09-36.86,21.28-86.01-49.66,36.86-21.28Zm36.86,7.09l-12.29,7.09-12.29-7.09,12.29-7.09,12.29,7.09Z"/>
    <path class="cls-34" d="m338.6,482.57l-12.29,7.09-12.29-7.09,12.29-7.09,12.29,7.09Zm0-14.19l-12.29,7.09-36.86-21.28,12.29-7.09,36.86,21.28Zm-86.01-21.28l12.29,7.09-24.58,14.19,61.44,35.47,24.58-14.19,12.29,7.09-36.86,21.28-86.01-49.66,36.86-21.28Zm36.86,7.09l-12.29,7.09-12.29-7.09,12.29-7.09,12.29,7.09Z"/>
    <path class="cls-61" d="m338.6,482.27l-12.29,7.09-12.29-7.09,12.29-7.09,12.29,7.09Zm0-14.19l-12.29,7.09-36.86-21.28,12.29-7.09,36.86,21.28Zm-86.01-21.28l12.29,7.09-24.58,14.19,61.44,35.47,24.58-14.19,12.29,7.09-36.86,21.28-86.01-49.66,36.86-21.28Zm36.86,7.09l-12.29,7.09-12.29-7.09,12.29-7.09,12.29,7.09Z"/>
    <path class="cls-27" d="m338.6,481.96l-12.29,7.09-12.29-7.09,12.29-7.09,12.29,7.09Zm0-14.19l-12.29,7.09-36.86-21.28,12.29-7.09,36.86,21.28Zm-86.01-21.28l12.29,7.09-24.58,14.19,61.44,35.47,24.58-14.19,12.29,7.09-36.86,21.28-86.01-49.66,36.86-21.28Zm36.86,7.09l-12.29,7.09-12.29-7.09,12.29-7.09,12.29,7.09Z"/>
    <path class="cls-11" d="m338.6,481.66l-12.29,7.09-12.29-7.09,12.29-7.09,12.29,7.09Zm0-14.19l-12.29,7.09-36.86-21.28,12.29-7.09,36.86,21.28Zm-86.01-21.28l12.29,7.09-24.58,14.19,61.44,35.47,24.58-14.19,12.29,7.09-36.86,21.28-86.01-49.66,36.86-21.28Zm36.86,7.09l-12.29,7.09-12.29-7.09,12.29-7.09,12.29,7.09Z"/>
    <path class="cls-60" d="m338.6,481.36l-12.29,7.09-12.29-7.09,12.29-7.09,12.29,7.09Zm0-14.19l-12.29,7.09-36.86-21.28,12.29-7.09,36.86,21.28Zm-86.01-21.28l12.29,7.09-24.58,14.19,61.44,35.47,24.58-14.19,12.29,7.09-36.86,21.28-86.01-49.66,36.86-21.28Zm36.86,7.09l-12.29,7.09-12.29-7.09,12.29-7.09,12.29,7.09Z"/>
    <path class="cls-51" d="m338.6,481.06l-12.29,7.09-12.29-7.09,12.29-7.09,12.29,7.09Zm0-14.19l-12.29,7.09-36.86-21.28,12.29-7.09,36.86,21.28Zm-86.01-21.28l12.29,7.09-24.58,14.19,61.44,35.47,24.58-14.19,12.29,7.09-36.86,21.28-86.01-49.66,36.86-21.28Zm36.86,7.09l-12.29,7.09-12.29-7.09,12.29-7.09,12.29,7.09Z"/>
    <path class="cls-43" d="m338.6,480.76l-12.29,7.09-12.29-7.09,12.29-7.09,12.29,7.09Zm0-14.19l-12.29,7.09-36.86-21.28,12.29-7.09,36.86,21.28Zm-86.01-21.28l12.29,7.09-24.58,14.19,61.44,35.47,24.58-14.19,12.29,7.09-36.86,21.28-86.01-49.66,36.86-21.28Zm36.86,7.09l-12.29,7.09-12.29-7.09,12.29-7.09,12.29,7.09Z"/>
    <path class="cls-20" d="m338.6,480.46l-12.29,7.09-12.29-7.09,12.29-7.09,12.29,7.09Zm0-14.19l-12.29,7.09-36.86-21.28,12.29-7.09,36.86,21.28Zm-86.01-21.28l12.29,7.09-24.58,14.19,61.44,35.47,24.58-14.19,12.29,7.09-36.86,21.28-86.01-49.66,36.86-21.28Zm36.86,7.09l-12.29,7.09-12.29-7.09,12.29-7.09,12.29,7.09Z"/>
    <path class="cls-42" d="m338.6,480.16l-12.29,7.09-12.29-7.09,12.29-7.09,12.29,7.09Zm0-14.19l-12.29,7.09-36.86-21.28,12.29-7.09,36.86,21.28Zm-86.01-21.28l12.29,7.09-24.58,14.19,61.44,35.47,24.58-14.19,12.29,7.09-36.86,21.28-86.01-49.66,36.86-21.28Zm36.86,7.09l-12.29,7.09-12.29-7.09,12.29-7.09,12.29,7.09Z"/>
    <path class="cls-66" d="m338.6,479.86l-12.29,7.09-12.29-7.09,12.29-7.09,12.29,7.09Zm0-14.19l-12.29,7.09-36.86-21.28,12.29-7.09,36.86,21.28Zm-86.01-21.28l12.29,7.09-24.58,14.19,61.44,35.47,24.58-14.19,12.29,7.09-36.86,21.28-86.01-49.66,36.86-21.28Zm36.86,7.09l-12.29,7.09-12.29-7.09,12.29-7.09,12.29,7.09Z"/>
    <path class="cls-1" d="m338.6,479.56l-12.29,7.09-12.29-7.09,12.29-7.09,12.29,7.09Zm0-14.19l-12.29,7.09-36.86-21.28,12.29-7.09,36.86,21.28Zm-86.01-21.28l12.29,7.09-24.58,14.19,61.44,35.47,24.58-14.19,12.29,7.09-36.86,21.28-86.01-49.66,36.86-21.28Zm36.86,7.09l-12.29,7.09-12.29-7.09,12.29-7.09,12.29,7.09Z"/>
    <path class="cls-65" d="m338.6,479.26l-12.29,7.09-12.29-7.09,12.29-7.09,12.29,7.09Zm0-14.19l-12.29,7.09-36.86-21.28,12.29-7.09,36.86,21.28Zm-86.01-21.28l12.29,7.09-24.58,14.19,61.44,35.47,24.58-14.19,12.29,7.09-36.86,21.28-86.01-49.66,36.86-21.28Zm36.86,7.09l-12.29,7.09-12.29-7.09,12.29-7.09,12.29,7.09Z"/>
    <path class="cls-64" d="m338.6,478.95l-12.29,7.09-12.29-7.09,12.29-7.09,12.29,7.09Zm0-14.19l-12.29,7.09-36.86-21.28,12.29-7.09,36.86,21.28Zm-86.01-21.28l12.29,7.09-24.58,14.19,61.44,35.47,24.58-14.19,12.29,7.09-36.86,21.28-86.01-49.66,36.86-21.28Zm36.86,7.09l-12.29,7.09-12.29-7.09,12.29-7.09,12.29,7.09Z"/>
    <path class="cls-64" d="m338.6,478.65l-12.29,7.09-12.29-7.09,12.29-7.09,12.29,7.09Zm0-14.19l-12.29,7.09-36.86-21.28,12.29-7.09,36.86,21.28Zm-86.01-21.28l12.29,7.09-24.58,14.19,61.44,35.47,24.58-14.19,12.29,7.09-36.86,21.28-86.01-49.66,36.86-21.28Zm36.86,7.09l-12.29,7.09-12.29-7.09,12.29-7.09,12.29,7.09Z"/>
    <path class="cls-30" d="m338.6,478.35l-12.29,7.09-12.29-7.09,12.29-7.09,12.29,7.09Zm0-14.19l-12.29,7.09-36.86-21.28,12.29-7.09,36.86,21.28Zm-86.01-21.28l12.29,7.09-24.58,14.19,61.44,35.47,24.58-14.19,12.29,7.09-36.86,21.28-86.01-49.66,36.86-21.28Zm36.86,7.09l-12.29,7.09-12.29-7.09,12.29-7.09,12.29,7.09Z"/>
    <path class="cls-75" d="m338.6,478.05l-12.29,7.09-12.29-7.09,12.29-7.09,12.29,7.09Zm0-14.19l-12.29,7.09-36.86-21.28,12.29-7.09,36.86,21.28Zm-86.01-21.28l12.29,7.09-24.58,14.19,61.44,35.47,24.58-14.19,12.29,7.09-36.86,21.28-86.01-49.66,36.86-21.28Zm36.86,7.09l-12.29,7.09-12.29-7.09,12.29-7.09,12.29,7.09Z"/>
    <path class="cls-67" d="m338.6,477.75l-12.29,7.09-12.29-7.09,12.29-7.09,12.29,7.09Zm0-14.19l-12.29,7.09-36.86-21.28,12.29-7.09,36.86,21.28Zm-86.01-21.28l12.29,7.09-24.58,14.19,61.44,35.47,24.58-14.19,12.29,7.09-36.86,21.28-86.01-49.66,36.86-21.28Zm36.86,7.09l-12.29,7.09-12.29-7.09,12.29-7.09,12.29,7.09Z"/>
    <path class="cls-71" d="m338.6,477.45l-12.29,7.09-12.29-7.09,12.29-7.09,12.29,7.09Zm0-14.19l-12.29,7.09-36.86-21.28,12.29-7.09,36.86,21.28Zm-86.01-21.28l12.29,7.09-24.58,14.19,61.44,35.47,24.58-14.19,12.29,7.09-36.86,21.28-86.01-49.66,36.86-21.28Zm36.86,7.09l-12.29,7.09-12.29-7.09,12.29-7.09,12.29,7.09Z"/>
    <path class="cls-49" d="m338.6,477.15l-12.29,7.09-12.29-7.09,12.29-7.09,12.29,7.09Zm0-14.19l-12.29,7.09-36.86-21.28,12.29-7.09,36.86,21.28Zm-86.01-21.28l12.29,7.09-24.58,14.19,61.44,35.47,24.58-14.19,12.29,7.09-36.86,21.28-86.01-49.66,36.86-21.28Zm36.86,7.09l-12.29,7.09-12.29-7.09,12.29-7.09,12.29,7.09Z"/>
    <path class="cls-40" d="m338.6,476.85l-12.29,7.09-12.29-7.09,12.29-7.09,12.29,7.09Zm0-14.19l-12.29,7.09-36.86-21.28,12.29-7.09,36.86,21.28Zm-86.01-21.28l12.29,7.09-24.58,14.19,61.44,35.47,24.58-14.19,12.29,7.09-36.86,21.28-86.01-49.66,36.86-21.28Zm36.86,7.09l-12.29,7.09-12.29-7.09,12.29-7.09,12.29,7.09Z"/>
    <path class="cls-41" d="m338.6,476.55l-12.29,7.09-12.29-7.09,12.29-7.09,12.29,7.09Zm0-14.19l-12.29,7.09-36.86-21.28,12.29-7.09,36.86,21.28Zm-86.01-21.28l12.29,7.09-24.58,14.19,61.44,35.47,24.58-14.19,12.29,7.09-36.86,21.28-86.01-49.66,36.86-21.28Zm36.86,7.09l-12.29,7.09-12.29-7.09,12.29-7.09,12.29,7.09Z"/>
    <path class="cls-63" d="m338.6,476.25l-12.29,7.09-12.29-7.09,12.29-7.09,12.29,7.09Zm0-14.19l-12.29,7.09-36.86-21.28,12.29-7.09,36.86,21.28Zm-86.01-21.28l12.29,7.09-24.58,14.19,61.44,35.47,24.58-14.19,12.29,7.09-36.86,21.28-86.01-49.66,36.86-21.28Zm36.86,7.09l-12.29,7.09-12.29-7.09,12.29-7.09,12.29,7.09Z"/>
    <path class="cls-70" d="m338.6,475.94l-12.29,7.09-12.29-7.09,12.29-7.09,12.29,7.09Zm0-14.19l-12.29,7.09-36.86-21.28,12.29-7.09,36.86,21.28Zm-86.01-21.28l12.29,7.09-24.58,14.19,61.44,35.47,24.58-14.19,12.29,7.09-36.86,21.28-86.01-49.66,36.86-21.28Zm36.86,7.09l-12.29,7.09-12.29-7.09,12.29-7.09,12.29,7.09Z"/>
    <path class="cls-62" d="m338.6,475.64l-12.29,7.09-12.29-7.09,12.29-7.09,12.29,7.09Zm0-14.19l-12.29,7.09-36.86-21.28,12.29-7.09,36.86,21.28Zm-86.01-21.28l12.29,7.09-24.58,14.19,61.44,35.47,24.58-14.19,12.29,7.09-36.86,21.28-86.01-49.66,36.86-21.28Zm36.86,7.09l-12.29,7.09-12.29-7.09,12.29-7.09,12.29,7.09Z"/>
    <path class="cls-59" d="m338.6,475.34l-12.29,7.09-12.29-7.09,12.29-7.09,12.29,7.09Zm0-14.19l-12.29,7.09-36.86-21.28,12.29-7.09,36.86,21.28Zm-86.01-21.28l12.29,7.09-24.58,14.19,61.44,35.47,24.58-14.19,12.29,7.09-36.86,21.28-86.01-49.66,36.86-21.28Zm36.86,7.09l-12.29,7.09-12.29-7.09,12.29-7.09,12.29,7.09Z"/>
    <path class="cls-78" d="m338.6,475.04l-12.29,7.09-12.29-7.09,12.29-7.09,12.29,7.09Zm0-14.19l-12.29,7.09-36.86-21.28,12.29-7.09,36.86,21.28Zm-86.01-21.28l12.29,7.09-24.58,14.19,61.44,35.47,24.58-14.19,12.29,7.09-36.86,21.28-86.01-49.66,36.86-21.28Zm36.86,7.09l-12.29,7.09-12.29-7.09,12.29-7.09,12.29,7.09Z"/>
    <path class="cls-25" d="m338.6,474.74l-12.29,7.09-12.29-7.09,12.29-7.09,12.29,7.09Zm0-14.19l-12.29,7.09-36.86-21.28,12.29-7.09,36.86,21.28Zm-86.01-21.28l12.29,7.09-24.58,14.19,61.44,35.47,24.58-14.19,12.29,7.09-36.86,21.28-86.01-49.66,36.86-21.28Zm36.86,7.09l-12.29,7.09-12.29-7.09,12.29-7.09,12.29,7.09Z"/>
    <path class="cls-18" d="m338.6,474.44l-12.29,7.09-12.29-7.09,12.29-7.09,12.29,7.09Zm0-14.19l-12.29,7.09-36.86-21.28,12.29-7.09,36.86,21.28Zm-86.01-21.28l12.29,7.09-24.58,14.19,61.44,35.47,24.58-14.19,12.29,7.09-36.86,21.28-86.01-49.66,36.86-21.28Zm36.86,7.09l-12.29,7.09-12.29-7.09,12.29-7.09,12.29,7.09Z"/>
    <path class="cls-13" d="m338.6,474.14l-12.29,7.09-12.29-7.09,12.29-7.09,12.29,7.09Zm0-14.19l-12.29,7.09-36.86-21.28,12.29-7.09,36.86,21.28Zm-86.01-21.28l12.29,7.09-24.58,14.19,61.44,35.47,24.58-14.19,12.29,7.09-36.86,21.28-86.01-49.66,36.86-21.28Zm36.86,7.09l-12.29,7.09-12.29-7.09,12.29-7.09,12.29,7.09Z"/>
    <path class="cls-2" d="m338.6,473.84l-12.29,7.09-12.29-7.09,12.29-7.09,12.29,7.09Zm0-14.19l-12.29,7.09-36.86-21.28,12.29-7.09,36.86,21.28Zm-86.01-21.28l12.29,7.09-24.58,14.19,61.44,35.47,24.58-14.19,12.29,7.09-36.86,21.28-86.01-49.66,36.86-21.28Zm36.86,7.09l-12.29,7.09-12.29-7.09,12.29-7.09,12.29,7.09Z"/>
    <path class="cls-24" d="m338.6,473.54l-12.29,7.09-12.29-7.09,12.29-7.09,12.29,7.09Zm0-14.19l-12.29,7.09-36.86-21.28,12.29-7.09,36.86,21.28Zm-86.01-21.28l12.29,7.09-24.58,14.19,61.44,35.47,24.58-14.19,12.29,7.09-36.86,21.28-86.01-49.66,36.86-21.28Zm36.86,7.09l-12.29,7.09-12.29-7.09,12.29-7.09,12.29,7.09Z"/>
    <path class="cls-19" d="m338.6,473.24l-12.29,7.09-12.29-7.09,12.29-7.09,12.29,7.09Zm0-14.19l-12.29,7.09-36.86-21.28,12.29-7.09,36.86,21.28Zm-86.01-21.28l12.29,7.09-24.58,14.19,61.44,35.47,24.58-14.19,12.29,7.09-36.86,21.28-86.01-49.66,36.86-21.28Zm36.86,7.09l-12.29,7.09-12.29-7.09,12.29-7.09,12.29,7.09Z"/>
    <path class="cls-28" d="m338.6,472.93l-12.29,7.09-12.29-7.09,12.29-7.09,12.29,7.09Zm0-14.19l-12.29,7.09-36.86-21.28,12.29-7.09,36.86,21.28Zm-86.01-21.28l12.29,7.09-24.58,14.19,61.44,35.47,24.58-14.19,12.29,7.09-36.86,21.28-86.01-49.66,36.86-21.28Zm36.86,7.09l-12.29,7.09-12.29-7.09,12.29-7.09,12.29,7.09Z"/>
    <path class="cls-23" d="m338.6,472.63l-12.29,7.09-12.29-7.09,12.29-7.09,12.29,7.09Zm0-14.19l-12.29,7.09-36.86-21.28,12.29-7.09,36.86,21.28Zm-86.01-21.28l12.29,7.09-24.58,14.19,61.44,35.47,24.58-14.19,12.29,7.09-36.86,21.28-86.01-49.66,36.86-21.28Zm36.86,7.09l-12.29,7.09-12.29-7.09,12.29-7.09,12.29,7.09Z"/>
    <path class="cls-73" d="m338.6,472.33l-12.29,7.09-12.29-7.09,12.29-7.09,12.29,7.09Zm0-14.19l-12.29,7.09-36.86-21.28,12.29-7.09,36.86,21.28Zm-86.01-21.28l12.29,7.09-24.58,14.19,61.44,35.47,24.58-14.19,12.29,7.09-36.86,21.28-86.01-49.66,36.86-21.28Zm36.86,7.09l-12.29,7.09-12.29-7.09,12.29-7.09,12.29,7.09Z"/>
    <path class="cls-74" d="m338.6,472.03l-12.29,7.09-12.29-7.09,12.29-7.09,12.29,7.09Zm0-14.19l-12.29,7.09-36.86-21.28,12.29-7.09,36.86,21.28Zm-86.01-21.28l12.29,7.09-24.58,14.19,61.44,35.47,24.58-14.19,12.29,7.09-36.86,21.28-86.01-49.66,36.86-21.28Zm36.86,7.09l-12.29,7.09-12.29-7.09,12.29-7.09,12.29,7.09Z"/>
    <path class="cls-26" d="m338.6,471.73l-12.29,7.09-12.29-7.09,12.29-7.09,12.29,7.09Zm0-14.19l-12.29,7.09-36.86-21.28,12.29-7.09,36.86,21.28Zm-86.01-21.28l12.29,7.09-24.58,14.19,61.44,35.47,24.58-14.19,12.29,7.09-36.86,21.28-86.01-49.66,36.86-21.28Zm36.86,7.09l-12.29,7.09-12.29-7.09,12.29-7.09,12.29,7.09Z"/>
    <path class="cls-17" d="m338.6,471.43l-12.29,7.09-12.29-7.09,12.29-7.09,12.29,7.09Zm0-14.19l-12.29,7.09-36.86-21.28,12.29-7.09,36.86,21.28Zm-86.01-21.28l12.29,7.09-24.58,14.19,61.44,35.47,24.58-14.19,12.29,7.09-36.86,21.28-86.01-49.66,36.86-21.28Zm36.86,7.09l-12.29,7.09-12.29-7.09,12.29-7.09,12.29,7.09Z"/>
    <path class="cls-72" d="m338.6,471.13l-12.29,7.09-12.29-7.09,12.29-7.09,12.29,7.09Zm0-14.19l-12.29,7.09-36.86-21.28,12.29-7.09,36.86,21.28Zm-86.01-21.28l12.29,7.09-24.58,14.19,61.44,35.47,24.58-14.19,12.29,7.09-36.86,21.28-86.01-49.66,36.86-21.28Zm36.86,7.09l-12.29,7.09-12.29-7.09,12.29-7.09,12.29,7.09Z"/>
    <path class="cls-69" d="m338.6,470.83l-12.29,7.09-12.29-7.09,12.29-7.09,12.29,7.09Zm0-14.19l-12.29,7.09-36.86-21.28,12.29-7.09,36.86,21.28Zm-86.01-21.28l12.29,7.09-24.58,14.19,61.44,35.47,24.58-14.19,12.29,7.09-36.86,21.28-86.01-49.66,36.86-21.28Zm36.86,7.09l-12.29,7.09-12.29-7.09,12.29-7.09,12.29,7.09Z"/>
    <path class="cls-12" d="m338.6,470.53l-12.29,7.09-12.29-7.09,12.29-7.09,12.29,7.09Zm0-14.19l-12.29,7.09-36.86-21.28,12.29-7.09,36.86,21.28Zm-86.01-21.28l12.29,7.09-24.58,14.19,61.44,35.47,24.58-14.19,12.29,7.09-36.86,21.28-86.01-49.66,36.86-21.28Zm36.86,7.09l-12.29,7.09-12.29-7.09,12.29-7.09,12.29,7.09Z"/>
    <path class="cls-56" d="m338.6,470.23l-12.29,7.09-12.29-7.09,12.29-7.09,12.29,7.09Zm0-14.19l-12.29,7.09-36.86-21.28,12.29-7.09,36.86,21.28Zm-86.01-21.28l12.29,7.09-24.58,14.19,61.44,35.47,24.58-14.19,12.29,7.09-36.86,21.28-86.01-49.66,36.86-21.28Zm36.86,7.09l-12.29,7.09-12.29-7.09,12.29-7.09,12.29,7.09Z"/>
    <path class="cls-32" d="m338.6,469.92l-12.29,7.09-12.29-7.09,12.29-7.09,12.29,7.09Zm0-14.19l-12.29,7.09-36.86-21.28,12.29-7.09,36.86,21.28Zm-86.01-21.28l12.29,7.09-24.58,14.19,61.44,35.47,24.58-14.19,12.29,7.09-36.86,21.28-86.01-49.66,36.86-21.28Zm36.86,7.09l-12.29,7.09-12.29-7.09,12.29-7.09,12.29,7.09Z"/>
    <path class="cls-53" d="m338.6,469.62l-12.29,7.09-12.29-7.09,12.29-7.09,12.29,7.09Zm0-14.19l-12.29,7.09-36.86-21.28,12.29-7.09,36.86,21.28Zm-86.01-21.28l12.29,7.09-24.58,14.19,61.44,35.47,24.58-14.19,12.29,7.09-36.86,21.28-86.01-49.66,36.86-21.28Zm36.86,7.09l-12.29,7.09-12.29-7.09,12.29-7.09,12.29,7.09Z"/>
    <path class="cls-76" d="m338.6,469.32l-12.29,7.09-12.29-7.09,12.29-7.09,12.29,7.09Zm0-14.19l-12.29,7.09-36.86-21.28,12.29-7.09,36.86,21.28Zm-86.01-21.28l12.29,7.09-24.58,14.19,61.44,35.47,24.58-14.19,12.29,7.09-36.86,21.28-86.01-49.66,36.86-21.28Zm36.86,7.09l-12.29,7.09-12.29-7.09,12.29-7.09,12.29,7.09Z"/>
    <path class="cls-55" d="m338.6,469.02l-12.29,7.09-12.29-7.09,12.29-7.09,12.29,7.09Zm0-14.19l-12.29,7.09-36.86-21.28,12.29-7.09,36.86,21.28Zm-86.01-21.28l12.29,7.09-24.58,14.19,61.44,35.47,24.58-14.19,12.29,7.09-36.86,21.28-86.01-49.66,36.86-21.28Zm36.86,7.09l-12.29,7.09-12.29-7.09,12.29-7.09,12.29,7.09Z"/>
    <path class="cls-36" d="m338.6,468.72l-12.29,7.09-12.29-7.09,12.29-7.09,12.29,7.09Zm0-14.19l-12.29,7.09-36.86-21.28,12.29-7.09,36.86,21.28Zm-86.01-21.28l12.29,7.09-24.58,14.19,61.44,35.47,24.58-14.19,12.29,7.09-36.86,21.28-86.01-49.66,36.86-21.28Zm36.86,7.09l-12.29,7.09-12.29-7.09,12.29-7.09,12.29,7.09Z"/>
    <path class="cls-10" d="m338.6,468.42l-12.29,7.09-12.29-7.09,12.29-7.09,12.29,7.09Zm0-14.19l-12.29,7.09-36.86-21.28,12.29-7.09,36.86,21.28Zm-86.01-21.28l12.29,7.09-24.58,14.19,61.44,35.47,24.58-14.19,12.29,7.09-36.86,21.28-86.01-49.66,36.86-21.28Zm36.86,7.09l-12.29,7.09-12.29-7.09,12.29-7.09,12.29,7.09Z"/>
    <path class="cls-54" d="m338.6,468.12l-12.29,7.09-12.29-7.09,12.29-7.09,12.29,7.09Zm0-14.19l-12.29,7.09-36.86-21.28,12.29-7.09,36.86,21.28Zm-86.01-21.28l12.29,7.09-24.58,14.19,61.44,35.47,24.58-14.19,12.29,7.09-36.86,21.28-86.01-49.66,36.86-21.28Zm36.86,7.09l-12.29,7.09-12.29-7.09,12.29-7.09,12.29,7.09Z"/>
    <path class="cls-45" d="m338.6,467.82l-12.29,7.09-12.29-7.09,12.29-7.09,12.29,7.09Zm0-14.19l-12.29,7.09-36.86-21.28,12.29-7.09,36.86,21.28Zm-86.01-21.28l12.29,7.09-24.58,14.19,61.44,35.47,24.58-14.19,12.29,7.09-36.86,21.28-86.01-49.66,36.86-21.28Zm36.86,7.09l-12.29,7.09-12.29-7.09,12.29-7.09,12.29,7.09Z"/>
    <path class="cls-31" d="m338.6,467.52l-12.29,7.09-12.29-7.09,12.29-7.09,12.29,7.09Zm0-14.19l-12.29,7.09-36.86-21.28,12.29-7.09,36.86,21.28Zm-86.01-21.28l12.29,7.09-24.58,14.19,61.44,35.47,24.58-14.19,12.29,7.09-36.86,21.28-86.01-49.66,36.86-21.28Zm36.86,7.09l-12.29,7.09-12.29-7.09,12.29-7.09,12.29,7.09Z"/>
    <path class="cls-6" d="m338.6,467.22l-12.29,7.09-12.29-7.09,12.29-7.09,12.29,7.09Zm0-14.19l-12.29,7.09-36.86-21.28,12.29-7.09,36.86,21.28Zm-86.01-21.28l12.29,7.09-24.58,14.19,61.44,35.47,24.58-14.19,12.29,7.09-36.86,21.28-86.01-49.66,36.86-21.28Zm36.86,7.09l-12.29,7.09-12.29-7.09,12.29-7.09,12.29,7.09Z"/>
  </g>
  <g>
    <path class="cls-21" d="m494.09,489.59l-12.29,7.09-12.29-7.09,12.29-7.09,12.29,7.09Zm-24.58,0l-12.29,7.09-12.29-7.09,12.29-7.09,12.29,7.09Zm-24.58-28.38l-12.29,7.09-24.58-14.19,12.29-7.09,24.58,14.19Zm-49.15-14.19l12.29,7.09-36.86,21.28,24.58,14.19,36.86-21.28,12.29,7.09-12.29,7.09,12.29,7.09-12.29,7.09-12.29-7.09-12.29,7.09,36.86,21.28-12.29,7.09-86.01-49.66,49.15-28.38Z"/>
    <path class="cls-3" d="m494.09,489.28l-12.29,7.09-12.29-7.09,12.29-7.09,12.29,7.09Zm-24.58,0l-12.29,7.09-12.29-7.09,12.29-7.09,12.29,7.09Zm-24.58-28.38l-12.29,7.09-24.58-14.19,12.29-7.09,24.58,14.19Zm-49.15-14.19l12.29,7.09-36.86,21.28,24.58,14.19,36.86-21.28,12.29,7.09-12.29,7.09,12.29,7.09-12.29,7.09-12.29-7.09-12.29,7.09,36.86,21.28-12.29,7.09-86.01-49.66,49.15-28.38Z"/>
    <path class="cls-35" d="m494.09,488.96l-12.29,7.09-12.29-7.09,12.29-7.09,12.29,7.09Zm-24.58,0l-12.29,7.09-12.29-7.09,12.29-7.09,12.29,7.09Zm-24.58-28.38l-12.29,7.09-24.58-14.19,12.29-7.09,24.58,14.19Zm-49.15-14.19l12.29,7.09-36.86,21.28,24.58,14.19,36.86-21.28,12.29,7.09-12.29,7.09,12.29,7.09-12.29,7.09-12.29-7.09-12.29,7.09,36.86,21.28-12.29,7.09-86.01-49.66,49.15-28.38Z"/>
    <path class="cls-8" d="m494.09,488.64l-12.29,7.09-12.29-7.09,12.29-7.09,12.29,7.09Zm-24.58,0l-12.29,7.09-12.29-7.09,12.29-7.09,12.29,7.09Zm-24.58-28.38l-12.29,7.09-24.58-14.19,12.29-7.09,24.58,14.19Zm-49.15-14.19l12.29,7.09-36.86,21.28,24.58,14.19,36.86-21.28,12.29,7.09-12.29,7.09,12.29,7.09-12.29,7.09-12.29-7.09-12.29,7.09,36.86,21.28-12.29,7.09-86.01-49.66,49.15-28.38Z"/>
    <path class="cls-77" d="m494.09,488.32l-12.29,7.09-12.29-7.09,12.29-7.09,12.29,7.09Zm-24.58,0l-12.29,7.09-12.29-7.09,12.29-7.09,12.29,7.09Zm-24.58-28.38l-12.29,7.09-24.58-14.19,12.29-7.09,24.58,14.19Zm-49.15-14.19l12.29,7.09-36.86,21.28,24.58,14.19,36.86-21.28,12.29,7.09-12.29,7.09,12.29,7.09-12.29,7.09-12.29-7.09-12.29,7.09,36.86,21.28-12.29,7.09-86.01-49.66,49.15-28.38Z"/>
    <path class="cls-38" d="m494.09,488l-12.29,7.09-12.29-7.09,12.29-7.09,12.29,7.09Zm-24.58,0l-12.29,7.09-12.29-7.09,12.29-7.09,12.29,7.09Zm-24.58-28.38l-12.29,7.09-24.58-14.19,12.29-7.09,24.58,14.19Zm-49.15-14.19l12.29,7.09-36.86,21.28,24.58,14.19,36.86-21.28,12.29,7.09-12.29,7.09,12.29,7.09-12.29,7.09-12.29-7.09-12.29,7.09,36.86,21.28-12.29,7.09-86.01-49.66,49.15-28.38Z"/>
    <path class="cls-52" d="m494.09,487.68l-12.29,7.09-12.29-7.09,12.29-7.09,12.29,7.09Zm-24.58,0l-12.29,7.09-12.29-7.09,12.29-7.09,12.29,7.09Zm-24.58-28.38l-12.29,7.09-24.58-14.19,12.29-7.09,24.58,14.19Zm-49.15-14.19l12.29,7.09-36.86,21.28,24.58,14.19,36.86-21.28,12.29,7.09-12.29,7.09,12.29,7.09-12.29,7.09-12.29-7.09-12.29,7.09,36.86,21.28-12.29,7.09-86.01-49.66,49.15-28.38Z"/>
    <path class="cls-68" d="m494.09,487.37l-12.29,7.09-12.29-7.09,12.29-7.09,12.29,7.09Zm-24.58,0l-12.29,7.09-12.29-7.09,12.29-7.09,12.29,7.09Zm-24.58-28.38l-12.29,7.09-24.58-14.19,12.29-7.09,24.58,14.19Zm-49.15-14.19l12.29,7.09-36.86,21.28,24.58,14.19,36.86-21.28,12.29,7.09-12.29,7.09,12.29,7.09-12.29,7.09-12.29-7.09-12.29,7.09,36.86,21.28-12.29,7.09-86.01-49.66,49.15-28.38Z"/>
    <path class="cls-4" d="m494.09,487.05l-12.29,7.09-12.29-7.09,12.29-7.09,12.29,7.09Zm-24.58,0l-12.29,7.09-12.29-7.09,12.29-7.09,12.29,7.09Zm-24.58-28.38l-12.29,7.09-24.58-14.19,12.29-7.09,24.58,14.19Zm-49.15-14.19l12.29,7.09-36.86,21.28,24.58,14.19,36.86-21.28,12.29,7.09-12.29,7.09,12.29,7.09-12.29,7.09-12.29-7.09-12.29,7.09,36.86,21.28-12.29,7.09-86.01-49.66,49.15-28.38Z"/>
    <path class="cls-57" d="m494.09,486.73l-12.29,7.09-12.29-7.09,12.29-7.09,12.29,7.09Zm-24.58,0l-12.29,7.09-12.29-7.09,12.29-7.09,12.29,7.09Zm-24.58-28.38l-12.29,7.09-24.58-14.19,12.29-7.09,24.58,14.19Zm-49.15-14.19l12.29,7.09-36.86,21.28,24.58,14.19,36.86-21.28,12.29,7.09-12.29,7.09,12.29,7.09-12.29,7.09-12.29-7.09-12.29,7.09,36.86,21.28-12.29,7.09-86.01-49.66,49.15-28.38Z"/>
    <path class="cls-50" d="m494.09,486.41l-12.29,7.09-12.29-7.09,12.29-7.09,12.29,7.09Zm-24.58,0l-12.29,7.09-12.29-7.09,12.29-7.09,12.29,7.09Zm-24.58-28.38l-12.29,7.09-24.58-14.19,12.29-7.09,24.58,14.19Zm-49.15-14.19l12.29,7.09-36.86,21.28,24.58,14.19,36.86-21.28,12.29,7.09-12.29,7.09,12.29,7.09-12.29,7.09-12.29-7.09-12.29,7.09,36.86,21.28-12.29,7.09-86.01-49.66,49.15-28.38Z"/>
    <path class="cls-14" d="m494.09,486.09l-12.29,7.09-12.29-7.09,12.29-7.09,12.29,7.09Zm-24.58,0l-12.29,7.09-12.29-7.09,12.29-7.09,12.29,7.09Zm-24.58-28.38l-12.29,7.09-24.58-14.19,12.29-7.09,24.58,14.19Zm-49.15-14.19l12.29,7.09-36.86,21.28,24.58,14.19,36.86-21.28,12.29,7.09-12.29,7.09,12.29,7.09-12.29,7.09-12.29-7.09-12.29,7.09,36.86,21.28-12.29,7.09-86.01-49.66,49.15-28.38Z"/>
    <path class="cls-33" d="m494.09,485.78l-12.29,7.09-12.29-7.09,12.29-7.09,12.29,7.09Zm-24.58,0l-12.29,7.09-12.29-7.09,12.29-7.09,12.29,7.09Zm-24.58-28.38l-12.29,7.09-24.58-14.19,12.29-7.09,24.58,14.19Zm-49.15-14.19l12.29,7.09-36.86,21.28,24.58,14.19,36.86-21.28,12.29,7.09-12.29,7.09,12.29,7.09-12.29,7.09-12.29-7.09-12.29,7.09,36.86,21.28-12.29,7.09-86.01-49.66,49.15-28.38Z"/>
    <path class="cls-44" d="m494.09,485.46l-12.29,7.09-12.29-7.09,12.29-7.09,12.29,7.09Zm-24.58,0l-12.29,7.09-12.29-7.09,12.29-7.09,12.29,7.09Zm-24.58-28.38l-12.29,7.09-24.58-14.19,12.29-7.09,24.58,14.19Zm-49.15-14.19l12.29,7.09-36.86,21.28,24.58,14.19,36.86-21.28,12.29,7.09-12.29,7.09,12.29,7.09-12.29,7.09-12.29-7.09-12.29,7.09,36.86,21.28-12.29,7.09-86.01-49.66,49.15-28.38Z"/>
    <path class="cls-5" d="m494.09,485.14l-12.29,7.09-12.29-7.09,12.29-7.09,12.29,7.09Zm-24.58,0l-12.29,7.09-12.29-7.09,12.29-7.09,12.29,7.09Zm-24.58-28.38l-12.29,7.09-24.58-14.19,12.29-7.09,24.58,14.19Zm-49.15-14.19l12.29,7.09-36.86,21.28,24.58,14.19,36.86-21.28,12.29,7.09-12.29,7.09,12.29,7.09-12.29,7.09-12.29-7.09-12.29,7.09,36.86,21.28-12.29,7.09-86.01-49.66,49.15-28.38Z"/>
    <path class="cls-15" d="m494.09,484.82l-12.29,7.09-12.29-7.09,12.29-7.09,12.29,7.09Zm-24.58,0l-12.29,7.09-12.29-7.09,12.29-7.09,12.29,7.09Zm-24.58-28.38l-12.29,7.09-24.58-14.19,12.29-7.09,24.58,14.19Zm-49.15-14.19l12.29,7.09-36.86,21.28,24.58,14.19,36.86-21.28,12.29,7.09-12.29,7.09,12.29,7.09-12.29,7.09-12.29-7.09-12.29,7.09,36.86,21.28-12.29,7.09-86.01-49.66,49.15-28.38Z"/>
    <path class="cls-48" d="m494.09,484.5l-12.29,7.09-12.29-7.09,12.29-7.09,12.29,7.09Zm-24.58,0l-12.29,7.09-12.29-7.09,12.29-7.09,12.29,7.09Zm-24.58-28.38l-12.29,7.09-24.58-14.19,12.29-7.09,24.58,14.19Zm-49.15-14.19l12.29,7.09-36.86,21.28,24.58,14.19,36.86-21.28,12.29,7.09-12.29,7.09,12.29,7.09-12.29,7.09-12.29-7.09-12.29,7.09,36.86,21.28-12.29,7.09-86.01-49.66,49.15-28.38Z"/>
    <path class="cls-29" d="m494.09,484.18l-12.29,7.09-12.29-7.09,12.29-7.09,12.29,7.09Zm-24.58,0l-12.29,7.09-12.29-7.09,12.29-7.09,12.29,7.09Zm-24.58-28.38l-12.29,7.09-24.58-14.19,12.29-7.09,24.58,14.19Zm-49.15-14.19l12.29,7.09-36.86,21.28,24.58,14.19,36.86-21.28,12.29,7.09-12.29,7.09,12.29,7.09-12.29,7.09-12.29-7.09-12.29,7.09,36.86,21.28-12.29,7.09-86.01-49.66,49.15-28.38Z"/>
    <path class="cls-16" d="m494.09,483.87l-12.29,7.09-12.29-7.09,12.29-7.09,12.29,7.09Zm-24.58,0l-12.29,7.09-12.29-7.09,12.29-7.09,12.29,7.09Zm-24.58-28.38l-12.29,7.09-24.58-14.19,12.29-7.09,24.58,14.19Zm-49.15-14.19l12.29,7.09-36.86,21.28,24.58,14.19,36.86-21.28,12.29,7.09-12.29,7.09,12.29,7.09-12.29,7.09-12.29-7.09-12.29,7.09,36.86,21.28-12.29,7.09-86.01-49.66,49.15-28.38Z"/>
    <path class="cls-7" d="m494.09,483.55l-12.29,7.09-12.29-7.09,12.29-7.09,12.29,7.09Zm-24.58,0l-12.29,7.09-12.29-7.09,12.29-7.09,12.29,7.09Zm-24.58-28.38l-12.29,7.09-24.58-14.19,12.29-7.09,24.58,14.19Zm-49.15-14.19l12.29,7.09-36.86,21.28,24.58,14.19,36.86-21.28,12.29,7.09-12.29,7.09,12.29,7.09-12.29,7.09-12.29-7.09-12.29,7.09,36.86,21.28-12.29,7.09-86.01-49.66,49.15-28.38Z"/>
    <path class="cls-47" d="m494.09,483.23l-12.29,7.09-12.29-7.09,12.29-7.09,12.29,7.09Zm-24.58,0l-12.29,7.09-12.29-7.09,12.29-7.09,12.29,7.09Zm-24.58-28.38l-12.29,7.09-24.58-14.19,12.29-7.09,24.58,14.19Zm-49.15-14.19l12.29,7.09-36.86,21.28,24.58,14.19,36.86-21.28,12.29,7.09-12.29,7.09,12.29,7.09-12.29,7.09-12.29-7.09-12.29,7.09,36.86,21.28-12.29,7.09-86.01-49.66,49.15-28.38Z"/>
    <path class="cls-46" d="m494.09,482.91l-12.29,7.09-12.29-7.09,12.29-7.09,12.29,7.09Zm-24.58,0l-12.29,7.09-12.29-7.09,12.29-7.09,12.29,7.09Zm-24.58-28.38l-12.29,7.09-24.58-14.19,12.29-7.09,24.58,14.19Zm-49.15-14.19l12.29,7.09-36.86,21.28,24.58,14.19,36.86-21.28,12.29,7.09-12.29,7.09,12.29,7.09-12.29,7.09-12.29-7.09-12.29,7.09,36.86,21.28-12.29,7.09-86.01-49.66,49.15-28.38Z"/>
    <path class="cls-58" d="m494.09,482.59l-12.29,7.09-12.29-7.09,12.29-7.09,12.29,7.09Zm-24.58,0l-12.29,7.09-12.29-7.09,12.29-7.09,12.29,7.09Zm-24.58-28.38l-12.29,7.09-24.58-14.19,12.29-7.09,24.58,14.19Zm-49.15-14.19l12.29,7.09-36.86,21.28,24.58,14.19,36.86-21.28,12.29,7.09-12.29,7.09,12.29,7.09-12.29,7.09-12.29-7.09-12.29,7.09,36.86,21.28-12.29,7.09-86.01-49.66,49.15-28.38Z"/>
    <path class="cls-22" d="m494.09,482.27l-12.29,7.09-12.29-7.09,12.29-7.09,12.29,7.09Zm-24.58,0l-12.29,7.09-12.29-7.09,12.29-7.09,12.29,7.09Zm-24.58-28.38l-12.29,7.09-24.58-14.19,12.29-7.09,24.58,14.19Zm-49.15-14.19l12.29,7.09-36.86,21.28,24.58,14.19,36.86-21.28,12.29,7.09-12.29,7.09,12.29,7.09-12.29,7.09-12.29-7.09-12.29,7.09,36.86,21.28-12.29,7.09-86.01-49.66,49.15-28.38Z"/>
    <path class="cls-9" d="m494.09,481.96l-12.29,7.09-12.29-7.09,12.29-7.09,12.29,7.09Zm-24.58,0l-12.29,7.09-12.29-7.09,12.29-7.09,12.29,7.09Zm-24.58-28.38l-12.29,7.09-24.58-14.19,12.29-7.09,24.58,14.19Zm-49.15-14.19l12.29,7.09-36.86,21.28,24.58,14.19,36.86-21.28,12.29,7.09-12.29,7.09,12.29,7.09-12.29,7.09-12.29-7.09-12.29,7.09,36.86,21.28-12.29,7.09-86.01-49.66,49.15-28.38Z"/>
    <path class="cls-39" d="m494.09,481.64l-12.29,7.09-12.29-7.09,12.29-7.09,12.29,7.09Zm-24.58,0l-12.29,7.09-12.29-7.09,12.29-7.09,12.29,7.09Zm-24.58-28.38l-12.29,7.09-24.58-14.19,12.29-7.09,24.58,14.19Zm-49.15-14.19l12.29,7.09-36.86,21.28,24.58,14.19,36.86-21.28,12.29,7.09-12.29,7.09,12.29,7.09-12.29,7.09-12.29-7.09-12.29,7.09,36.86,21.28-12.29,7.09-86.01-49.66,49.15-28.38Z"/>
    <path class="cls-37" d="m494.09,481.32l-12.29,7.09-12.29-7.09,12.29-7.09,12.29,7.09Zm-24.58,0l-12.29,7.09-12.29-7.09,12.29-7.09,12.29,7.09Zm-24.58-28.38l-12.29,7.09-24.58-14.19,12.29-7.09,24.58,14.19Zm-49.15-14.19l12.29,7.09-36.86,21.28,24.58,14.19,36.86-21.28,12.29,7.09-12.29,7.09,12.29,7.09-12.29,7.09-12.29-7.09-12.29,7.09,36.86,21.28-12.29,7.09-86.01-49.66,49.15-28.38Z"/>
    <path class="cls-34" d="m494.09,481l-12.29,7.09-12.29-7.09,12.29-7.09,12.29,7.09Zm-24.58,0l-12.29,7.09-12.29-7.09,12.29-7.09,12.29,7.09Zm-24.58-28.38l-12.29,7.09-24.58-14.19,12.29-7.09,24.58,14.19Zm-49.15-14.19l12.29,7.09-36.86,21.28,24.58,14.19,36.86-21.28,12.29,7.09-12.29,7.09,12.29,7.09-12.29,7.09-12.29-7.09-12.29,7.09,36.86,21.28-12.29,7.09-86.01-49.66,49.15-28.38Z"/>
    <path class="cls-61" d="m494.09,480.68l-12.29,7.09-12.29-7.09,12.29-7.09,12.29,7.09Zm-24.58,0l-12.29,7.09-12.29-7.09,12.29-7.09,12.29,7.09Zm-24.58-28.38l-12.29,7.09-24.58-14.19,12.29-7.09,24.58,14.19Zm-49.15-14.19l12.29,7.09-36.86,21.28,24.58,14.19,36.86-21.28,12.29,7.09-12.29,7.09,12.29,7.09-12.29,7.09-12.29-7.09-12.29,7.09,36.86,21.28-12.29,7.09-86.01-49.66,49.15-28.38Z"/>
    <path class="cls-27" d="m494.09,480.36l-12.29,7.09-12.29-7.09,12.29-7.09,12.29,7.09Zm-24.58,0l-12.29,7.09-12.29-7.09,12.29-7.09,12.29,7.09Zm-24.58-28.38l-12.29,7.09-24.58-14.19,12.29-7.09,24.58,14.19Zm-49.15-14.19l12.29,7.09-36.86,21.28,24.58,14.19,36.86-21.28,12.29,7.09-12.29,7.09,12.29,7.09-12.29,7.09-12.29-7.09-12.29,7.09,36.86,21.28-12.29,7.09-86.01-49.66,49.15-28.38Z"/>
    <path class="cls-11" d="m494.09,480.05l-12.29,7.09-12.29-7.09,12.29-7.09,12.29,7.09Zm-24.58,0l-12.29,7.09-12.29-7.09,12.29-7.09,12.29,7.09Zm-24.58-28.38l-12.29,7.09-24.58-14.19,12.29-7.09,24.58,14.19Zm-49.15-14.19l12.29,7.09-36.86,21.28,24.58,14.19,36.86-21.28,12.29,7.09-12.29,7.09,12.29,7.09-12.29,7.09-12.29-7.09-12.29,7.09,36.86,21.28-12.29,7.09-86.01-49.66,49.15-28.38Z"/>
    <path class="cls-60" d="m494.09,479.73l-12.29,7.09-12.29-7.09,12.29-7.09,12.29,7.09Zm-24.58,0l-12.29,7.09-12.29-7.09,12.29-7.09,12.29,7.09Zm-24.58-28.38l-12.29,7.09-24.58-14.19,12.29-7.09,24.58,14.19Zm-49.15-14.19l12.29,7.09-36.86,21.28,24.58,14.19,36.86-21.28,12.29,7.09-12.29,7.09,12.29,7.09-12.29,7.09-12.29-7.09-12.29,7.09,36.86,21.28-12.29,7.09-86.01-49.66,49.15-28.38Z"/>
    <path class="cls-51" d="m494.09,479.41l-12.29,7.09-12.29-7.09,12.29-7.09,12.29,7.09Zm-24.58,0l-12.29,7.09-12.29-7.09,12.29-7.09,12.29,7.09Zm-24.58-28.38l-12.29,7.09-24.58-14.19,12.29-7.09,24.58,14.19Zm-49.15-14.19l12.29,7.09-36.86,21.28,24.58,14.19,36.86-21.28,12.29,7.09-12.29,7.09,12.29,7.09-12.29,7.09-12.29-7.09-12.29,7.09,36.86,21.28-12.29,7.09-86.01-49.66,49.15-28.38Z"/>
    <path class="cls-43" d="m494.09,479.09l-12.29,7.09-12.29-7.09,12.29-7.09,12.29,7.09Zm-24.58,0l-12.29,7.09-12.29-7.09,12.29-7.09,12.29,7.09Zm-24.58-28.38l-12.29,7.09-24.58-14.19,12.29-7.09,24.58,14.19Zm-49.15-14.19l12.29,7.09-36.86,21.28,24.58,14.19,36.86-21.28,12.29,7.09-12.29,7.09,12.29,7.09-12.29,7.09-12.29-7.09-12.29,7.09,36.86,21.28-12.29,7.09-86.01-49.66,49.15-28.38Z"/>
    <path class="cls-20" d="m494.09,478.77l-12.29,7.09-12.29-7.09,12.29-7.09,12.29,7.09Zm-24.58,0l-12.29,7.09-12.29-7.09,12.29-7.09,12.29,7.09Zm-24.58-28.38l-12.29,7.09-24.58-14.19,12.29-7.09,24.58,14.19Zm-49.15-14.19l12.29,7.09-36.86,21.28,24.58,14.19,36.86-21.28,12.29,7.09-12.29,7.09,12.29,7.09-12.29,7.09-12.29-7.09-12.29,7.09,36.86,21.28-12.29,7.09-86.01-49.66,49.15-28.38Z"/>
    <path class="cls-42" d="m494.09,478.45l-12.29,7.09-12.29-7.09,12.29-7.09,12.29,7.09Zm-24.58,0l-12.29,7.09-12.29-7.09,12.29-7.09,12.29,7.09Zm-24.58-28.38l-12.29,7.09-24.58-14.19,12.29-7.09,24.58,14.19Zm-49.15-14.19l12.29,7.09-36.86,21.28,24.58,14.19,36.86-21.28,12.29,7.09-12.29,7.09,12.29,7.09-12.29,7.09-12.29-7.09-12.29,7.09,36.86,21.28-12.29,7.09-86.01-49.66,49.15-28.38Z"/>
    <path class="cls-66" d="m494.09,478.14l-12.29,7.09-12.29-7.09,12.29-7.09,12.29,7.09Zm-24.58,0l-12.29,7.09-12.29-7.09,12.29-7.09,12.29,7.09Zm-24.58-28.38l-12.29,7.09-24.58-14.19,12.29-7.09,24.58,14.19Zm-49.15-14.19l12.29,7.09-36.86,21.28,24.58,14.19,36.86-21.28,12.29,7.09-12.29,7.09,12.29,7.09-12.29,7.09-12.29-7.09-12.29,7.09,36.86,21.28-12.29,7.09-86.01-49.66,49.15-28.38Z"/>
    <path class="cls-1" d="m494.09,477.82l-12.29,7.09-12.29-7.09,12.29-7.09,12.29,7.09Zm-24.58,0l-12.29,7.09-12.29-7.09,12.29-7.09,12.29,7.09Zm-24.58-28.38l-12.29,7.09-24.58-14.19,12.29-7.09,24.58,14.19Zm-49.15-14.19l12.29,7.09-36.86,21.28,24.58,14.19,36.86-21.28,12.29,7.09-12.29,7.09,12.29,7.09-12.29,7.09-12.29-7.09-12.29,7.09,36.86,21.28-12.29,7.09-86.01-49.66,49.15-28.38Z"/>
    <path class="cls-65" d="m494.09,477.5l-12.29,7.09-12.29-7.09,12.29-7.09,12.29,7.09Zm-24.58,0l-12.29,7.09-12.29-7.09,12.29-7.09,12.29,7.09Zm-24.58-28.38l-12.29,7.09-24.58-14.19,12.29-7.09,24.58,14.19Zm-49.15-14.19l12.29,7.09-36.86,21.28,24.58,14.19,36.86-21.28,12.29,7.09-12.29,7.09,12.29,7.09-12.29,7.09-12.29-7.09-12.29,7.09,36.86,21.28-12.29,7.09-86.01-49.66,49.15-28.38Z"/>
    <path class="cls-64" d="m494.09,477.18l-12.29,7.09-12.29-7.09,12.29-7.09,12.29,7.09Zm-24.58,0l-12.29,7.09-12.29-7.09,12.29-7.09,12.29,7.09Zm-24.58-28.38l-12.29,7.09-24.58-14.19,12.29-7.09,24.58,14.19Zm-49.15-14.19l12.29,7.09-36.86,21.28,24.58,14.19,36.86-21.28,12.29,7.09-12.29,7.09,12.29,7.09-12.29,7.09-12.29-7.09-12.29,7.09,36.86,21.28-12.29,7.09-86.01-49.66,49.15-28.38Z"/>
    <path class="cls-64" d="m494.09,476.86l-12.29,7.09-12.29-7.09,12.29-7.09,12.29,7.09Zm-24.58,0l-12.29,7.09-12.29-7.09,12.29-7.09,12.29,7.09Zm-24.58-28.38l-12.29,7.09-24.58-14.19,12.29-7.09,24.58,14.19Zm-49.15-14.19l12.29,7.09-36.86,21.28,24.58,14.19,36.86-21.28,12.29,7.09-12.29,7.09,12.29,7.09-12.29,7.09-12.29-7.09-12.29,7.09,36.86,21.28-12.29,7.09-86.01-49.66,49.15-28.38Z"/>
    <path class="cls-30" d="m494.09,476.54l-12.29,7.09-12.29-7.09,12.29-7.09,12.29,7.09Zm-24.58,0l-12.29,7.09-12.29-7.09,12.29-7.09,12.29,7.09Zm-24.58-28.38l-12.29,7.09-24.58-14.19,12.29-7.09,24.58,14.19Zm-49.15-14.19l12.29,7.09-36.86,21.28,24.58,14.19,36.86-21.28,12.29,7.09-12.29,7.09,12.29,7.09-12.29,7.09-12.29-7.09-12.29,7.09,36.86,21.28-12.29,7.09-86.01-49.66,49.15-28.38Z"/>
    <path class="cls-75" d="m494.09,476.23l-12.29,7.09-12.29-7.09,12.29-7.09,12.29,7.09Zm-24.58,0l-12.29,7.09-12.29-7.09,12.29-7.09,12.29,7.09Zm-24.58-28.38l-12.29,7.09-24.58-14.19,12.29-7.09,24.58,14.19Zm-49.15-14.19l12.29,7.09-36.86,21.28,24.58,14.19,36.86-21.28,12.29,7.09-12.29,7.09,12.29,7.09-12.29,7.09-12.29-7.09-12.29,7.09,36.86,21.28-12.29,7.09-86.01-49.66,49.15-28.38Z"/>
    <path class="cls-67" d="m494.09,475.91l-12.29,7.09-12.29-7.09,12.29-7.09,12.29,7.09Zm-24.58,0l-12.29,7.09-12.29-7.09,12.29-7.09,12.29,7.09Zm-24.58-28.38l-12.29,7.09-24.58-14.19,12.29-7.09,24.58,14.19Zm-49.15-14.19l12.29,7.09-36.86,21.28,24.58,14.19,36.86-21.28,12.29,7.09-12.29,7.09,12.29,7.09-12.29,7.09-12.29-7.09-12.29,7.09,36.86,21.28-12.29,7.09-86.01-49.66,49.15-28.38Z"/>
    <path class="cls-71" d="m494.09,475.59l-12.29,7.09-12.29-7.09,12.29-7.09,12.29,7.09Zm-24.58,0l-12.29,7.09-12.29-7.09,12.29-7.09,12.29,7.09Zm-24.58-28.38l-12.29,7.09-24.58-14.19,12.29-7.09,24.58,14.19Zm-49.15-14.19l12.29,7.09-36.86,21.28,24.58,14.19,36.86-21.28,12.29,7.09-12.29,7.09,12.29,7.09-12.29,7.09-12.29-7.09-12.29,7.09,36.86,21.28-12.29,7.09-86.01-49.66,49.15-28.38Z"/>
    <path class="cls-49" d="m494.09,475.27l-12.29,7.09-12.29-7.09,12.29-7.09,12.29,7.09Zm-24.58,0l-12.29,7.09-12.29-7.09,12.29-7.09,12.29,7.09Zm-24.58-28.38l-12.29,7.09-24.58-14.19,12.29-7.09,24.58,14.19Zm-49.15-14.19l12.29,7.09-36.86,21.28,24.58,14.19,36.86-21.28,12.29,7.09-12.29,7.09,12.29,7.09-12.29,7.09-12.29-7.09-12.29,7.09,36.86,21.28-12.29,7.09-86.01-49.66,49.15-28.38Z"/>
    <path class="cls-40" d="m494.09,474.95l-12.29,7.09-12.29-7.09,12.29-7.09,12.29,7.09Zm-24.58,0l-12.29,7.09-12.29-7.09,12.29-7.09,12.29,7.09Zm-24.58-28.38l-12.29,7.09-24.58-14.19,12.29-7.09,24.58,14.19Zm-49.15-14.19l12.29,7.09-36.86,21.28,24.58,14.19,36.86-21.28,12.29,7.09-12.29,7.09,12.29,7.09-12.29,7.09-12.29-7.09-12.29,7.09,36.86,21.28-12.29,7.09-86.01-49.66,49.15-28.38Z"/>
    <path class="cls-41" d="m494.09,474.63l-12.29,7.09-12.29-7.09,12.29-7.09,12.29,7.09Zm-24.58,0l-12.29,7.09-12.29-7.09,12.29-7.09,12.29,7.09Zm-24.58-28.38l-12.29,7.09-24.58-14.19,12.29-7.09,24.58,14.19Zm-49.15-14.19l12.29,7.09-36.86,21.28,24.58,14.19,36.86-21.28,12.29,7.09-12.29,7.09,12.29,7.09-12.29,7.09-12.29-7.09-12.29,7.09,36.86,21.28-12.29,7.09-86.01-49.66,49.15-28.38Z"/>
    <path class="cls-63" d="m494.09,474.32l-12.29,7.09-12.29-7.09,12.29-7.09,12.29,7.09Zm-24.58,0l-12.29,7.09-12.29-7.09,12.29-7.09,12.29,7.09Zm-24.58-28.38l-12.29,7.09-24.58-14.19,12.29-7.09,24.58,14.19Zm-49.15-14.19l12.29,7.09-36.86,21.28,24.58,14.19,36.86-21.28,12.29,7.09-12.29,7.09,12.29,7.09-12.29,7.09-12.29-7.09-12.29,7.09,36.86,21.28-12.29,7.09-86.01-49.66,49.15-28.38Z"/>
    <path class="cls-70" d="m494.09,474l-12.29,7.09-12.29-7.09,12.29-7.09,12.29,7.09Zm-24.58,0l-12.29,7.09-12.29-7.09,12.29-7.09,12.29,7.09Zm-24.58-28.38l-12.29,7.09-24.58-14.19,12.29-7.09,24.58,14.19Zm-49.15-14.19l12.29,7.09-36.86,21.28,24.58,14.19,36.86-21.28,12.29,7.09-12.29,7.09,12.29,7.09-12.29,7.09-12.29-7.09-12.29,7.09,36.86,21.28-12.29,7.09-86.01-49.66,49.15-28.38Z"/>
    <path class="cls-62" d="m494.09,473.68l-12.29,7.09-12.29-7.09,12.29-7.09,12.29,7.09Zm-24.58,0l-12.29,7.09-12.29-7.09,12.29-7.09,12.29,7.09Zm-24.58-28.38l-12.29,7.09-24.58-14.19,12.29-7.09,24.58,14.19Zm-49.15-14.19l12.29,7.09-36.86,21.28,24.58,14.19,36.86-21.28,12.29,7.09-12.29,7.09,12.29,7.09-12.29,7.09-12.29-7.09-12.29,7.09,36.86,21.28-12.29,7.09-86.01-49.66,49.15-28.38Z"/>
    <path class="cls-59" d="m494.09,473.36l-12.29,7.09-12.29-7.09,12.29-7.09,12.29,7.09Zm-24.58,0l-12.29,7.09-12.29-7.09,12.29-7.09,12.29,7.09Zm-24.58-28.38l-12.29,7.09-24.58-14.19,12.29-7.09,24.58,14.19Zm-49.15-14.19l12.29,7.09-36.86,21.28,24.58,14.19,36.86-21.28,12.29,7.09-12.29,7.09,12.29,7.09-12.29,7.09-12.29-7.09-12.29,7.09,36.86,21.28-12.29,7.09-86.01-49.66,49.15-28.38Z"/>
    <path class="cls-78" d="m494.09,473.04l-12.29,7.09-12.29-7.09,12.29-7.09,12.29,7.09Zm-24.58,0l-12.29,7.09-12.29-7.09,12.29-7.09,12.29,7.09Zm-24.58-28.38l-12.29,7.09-24.58-14.19,12.29-7.09,24.58,14.19Zm-49.15-14.19l12.29,7.09-36.86,21.28,24.58,14.19,36.86-21.28,12.29,7.09-12.29,7.09,12.29,7.09-12.29,7.09-12.29-7.09-12.29,7.09,36.86,21.28-12.29,7.09-86.01-49.66,49.15-28.38Z"/>
    <path class="cls-25" d="m494.09,472.72l-12.29,7.09-12.29-7.09,12.29-7.09,12.29,7.09Zm-24.58,0l-12.29,7.09-12.29-7.09,12.29-7.09,12.29,7.09Zm-24.58-28.38l-12.29,7.09-24.58-14.19,12.29-7.09,24.58,14.19Zm-49.15-14.19l12.29,7.09-36.86,21.28,24.58,14.19,36.86-21.28,12.29,7.09-12.29,7.09,12.29,7.09-12.29,7.09-12.29-7.09-12.29,7.09,36.86,21.28-12.29,7.09-86.01-49.66,49.15-28.38Z"/>
    <path class="cls-18" d="m494.09,472.41l-12.29,7.09-12.29-7.09,12.29-7.09,12.29,7.09Zm-24.58,0l-12.29,7.09-12.29-7.09,12.29-7.09,12.29,7.09Zm-24.58-28.38l-12.29,7.09-24.58-14.19,12.29-7.09,24.58,14.19Zm-49.15-14.19l12.29,7.09-36.86,21.28,24.58,14.19,36.86-21.28,12.29,7.09-12.29,7.09,12.29,7.09-12.29,7.09-12.29-7.09-12.29,7.09,36.86,21.28-12.29,7.09-86.01-49.66,49.15-28.38Z"/>
    <path class="cls-13" d="m494.09,472.09l-12.29,7.09-12.29-7.09,12.29-7.09,12.29,7.09Zm-24.58,0l-12.29,7.09-12.29-7.09,12.29-7.09,12.29,7.09Zm-24.58-28.38l-12.29,7.09-24.58-14.19,12.29-7.09,24.58,14.19Zm-49.15-14.19l12.29,7.09-36.86,21.28,24.58,14.19,36.86-21.28,12.29,7.09-12.29,7.09,12.29,7.09-12.29,7.09-12.29-7.09-12.29,7.09,36.86,21.28-12.29,7.09-86.01-49.66,49.15-28.38Z"/>
    <path class="cls-2" d="m494.09,471.77l-12.29,7.09-12.29-7.09,12.29-7.09,12.29,7.09Zm-24.58,0l-12.29,7.09-12.29-7.09,12.29-7.09,12.29,7.09Zm-24.58-28.38l-12.29,7.09-24.58-14.19,12.29-7.09,24.58,14.19Zm-49.15-14.19l12.29,7.09-36.86,21.28,24.58,14.19,36.86-21.28,12.29,7.09-12.29,7.09,12.29,7.09-12.29,7.09-12.29-7.09-12.29,7.09,36.86,21.28-12.29,7.09-86.01-49.66,49.15-28.38Z"/>
    <path class="cls-24" d="m494.09,471.45l-12.29,7.09-12.29-7.09,12.29-7.09,12.29,7.09Zm-24.58,0l-12.29,7.09-12.29-7.09,12.29-7.09,12.29,7.09Zm-24.58-28.38l-12.29,7.09-24.58-14.19,12.29-7.09,24.58,14.19Zm-49.15-14.19l12.29,7.09-36.86,21.28,24.58,14.19,36.86-21.28,12.29,7.09-12.29,7.09,12.29,7.09-12.29,7.09-12.29-7.09-12.29,7.09,36.86,21.28-12.29,7.09-86.01-49.66,49.15-28.38Z"/>
    <path class="cls-19" d="m494.09,471.13l-12.29,7.09-12.29-7.09,12.29-7.09,12.29,7.09Zm-24.58,0l-12.29,7.09-12.29-7.09,12.29-7.09,12.29,7.09Zm-24.58-28.38l-12.29,7.09-24.58-14.19,12.29-7.09,24.58,14.19Zm-49.15-14.19l12.29,7.09-36.86,21.28,24.58,14.19,36.86-21.28,12.29,7.09-12.29,7.09,12.29,7.09-12.29,7.09-12.29-7.09-12.29,7.09,36.86,21.28-12.29,7.09-86.01-49.66,49.15-28.38Z"/>
    <path class="cls-28" d="m494.09,470.81l-12.29,7.09-12.29-7.09,12.29-7.09,12.29,7.09Zm-24.58,0l-12.29,7.09-12.29-7.09,12.29-7.09,12.29,7.09Zm-24.58-28.38l-12.29,7.09-24.58-14.19,12.29-7.09,24.58,14.19Zm-49.15-14.19l12.29,7.09-36.86,21.28,24.58,14.19,36.86-21.28,12.29,7.09-12.29,7.09,12.29,7.09-12.29,7.09-12.29-7.09-12.29,7.09,36.86,21.28-12.29,7.09-86.01-49.66,49.15-28.38Z"/>
    <path class="cls-23" d="m494.09,470.5l-12.29,7.09-12.29-7.09,12.29-7.09,12.29,7.09Zm-24.58,0l-12.29,7.09-12.29-7.09,12.29-7.09,12.29,7.09Zm-24.58-28.38l-12.29,7.09-24.58-14.19,12.29-7.09,24.58,14.19Zm-49.15-14.19l12.29,7.09-36.86,21.28,24.58,14.19,36.86-21.28,12.29,7.09-12.29,7.09,12.29,7.09-12.29,7.09-12.29-7.09-12.29,7.09,36.86,21.28-12.29,7.09-86.01-49.66,49.15-28.38Z"/>
    <path class="cls-73" d="m494.09,470.18l-12.29,7.09-12.29-7.09,12.29-7.09,12.29,7.09Zm-24.58,0l-12.29,7.09-12.29-7.09,12.29-7.09,12.29,7.09Zm-24.58-28.38l-12.29,7.09-24.58-14.19,12.29-7.09,24.58,14.19Zm-49.15-14.19l12.29,7.09-36.86,21.28,24.58,14.19,36.86-21.28,12.29,7.09-12.29,7.09,12.29,7.09-12.29,7.09-12.29-7.09-12.29,7.09,36.86,21.28-12.29,7.09-86.01-49.66,49.15-28.38Z"/>
    <path class="cls-74" d="m494.09,469.86l-12.29,7.09-12.29-7.09,12.29-7.09,12.29,7.09Zm-24.58,0l-12.29,7.09-12.29-7.09,12.29-7.09,12.29,7.09Zm-24.58-28.38l-12.29,7.09-24.58-14.19,12.29-7.09,24.58,14.19Zm-49.15-14.19l12.29,7.09-36.86,21.28,24.58,14.19,36.86-21.28,12.29,7.09-12.29,7.09,12.29,7.09-12.29,7.09-12.29-7.09-12.29,7.09,36.86,21.28-12.29,7.09-86.01-49.66,49.15-28.38Z"/>
    <path class="cls-26" d="m494.09,469.54l-12.29,7.09-12.29-7.09,12.29-7.09,12.29,7.09Zm-24.58,0l-12.29,7.09-12.29-7.09,12.29-7.09,12.29,7.09Zm-24.58-28.38l-12.29,7.09-24.58-14.19,12.29-7.09,24.58,14.19Zm-49.15-14.19l12.29,7.09-36.86,21.28,24.58,14.19,36.86-21.28,12.29,7.09-12.29,7.09,12.29,7.09-12.29,7.09-12.29-7.09-12.29,7.09,36.86,21.28-12.29,7.09-86.01-49.66,49.15-28.38Z"/>
    <path class="cls-17" d="m494.09,469.22l-12.29,7.09-12.29-7.09,12.29-7.09,12.29,7.09Zm-24.58,0l-12.29,7.09-12.29-7.09,12.29-7.09,12.29,7.09Zm-24.58-28.38l-12.29,7.09-24.58-14.19,12.29-7.09,24.58,14.19Zm-49.15-14.19l12.29,7.09-36.86,21.28,24.58,14.19,36.86-21.28,12.29,7.09-12.29,7.09,12.29,7.09-12.29,7.09-12.29-7.09-12.29,7.09,36.86,21.28-12.29,7.09-86.01-49.66,49.15-28.38Z"/>
    <path class="cls-72" d="m494.09,468.9l-12.29,7.09-12.29-7.09,12.29-7.09,12.29,7.09Zm-24.58,0l-12.29,7.09-12.29-7.09,12.29-7.09,12.29,7.09Zm-24.58-28.38l-12.29,7.09-24.58-14.19,12.29-7.09,24.58,14.19Zm-49.15-14.19l12.29,7.09-36.86,21.28,24.58,14.19,36.86-21.28,12.29,7.09-12.29,7.09,12.29,7.09-12.29,7.09-12.29-7.09-12.29,7.09,36.86,21.28-12.29,7.09-86.01-49.66,49.15-28.38Z"/>
    <path class="cls-69" d="m494.09,468.59l-12.29,7.09-12.29-7.09,12.29-7.09,12.29,7.09Zm-24.58,0l-12.29,7.09-12.29-7.09,12.29-7.09,12.29,7.09Zm-24.58-28.38l-12.29,7.09-24.58-14.19,12.29-7.09,24.58,14.19Zm-49.15-14.19l12.29,7.09-36.86,21.28,24.58,14.19,36.86-21.28,12.29,7.09-12.29,7.09,12.29,7.09-12.29,7.09-12.29-7.09-12.29,7.09,36.86,21.28-12.29,7.09-86.01-49.66,49.15-28.38Z"/>
    <path class="cls-12" d="m494.09,468.27l-12.29,7.09-12.29-7.09,12.29-7.09,12.29,7.09Zm-24.58,0l-12.29,7.09-12.29-7.09,12.29-7.09,12.29,7.09Zm-24.58-28.38l-12.29,7.09-24.58-14.19,12.29-7.09,24.58,14.19Zm-49.15-14.19l12.29,7.09-36.86,21.28,24.58,14.19,36.86-21.28,12.29,7.09-12.29,7.09,12.29,7.09-12.29,7.09-12.29-7.09-12.29,7.09,36.86,21.28-12.29,7.09-86.01-49.66,49.15-28.38Z"/>
    <path class="cls-56" d="m494.09,467.95l-12.29,7.09-12.29-7.09,12.29-7.09,12.29,7.09Zm-24.58,0l-12.29,7.09-12.29-7.09,12.29-7.09,12.29,7.09Zm-24.58-28.38l-12.29,7.09-24.58-14.19,12.29-7.09,24.58,14.19Zm-49.15-14.19l12.29,7.09-36.86,21.28,24.58,14.19,36.86-21.28,12.29,7.09-12.29,7.09,12.29,7.09-12.29,7.09-12.29-7.09-12.29,7.09,36.86,21.28-12.29,7.09-86.01-49.66,49.15-28.38Z"/>
    <path class="cls-32" d="m494.09,467.63l-12.29,7.09-12.29-7.09,12.29-7.09,12.29,7.09Zm-24.58,0l-12.29,7.09-12.29-7.09,12.29-7.09,12.29,7.09Zm-24.58-28.38l-12.29,7.09-24.58-14.19,12.29-7.09,24.58,14.19Zm-49.15-14.19l12.29,7.09-36.86,21.28,24.58,14.19,36.86-21.28,12.29,7.09-12.29,7.09,12.29,7.09-12.29,7.09-12.29-7.09-12.29,7.09,36.86,21.28-12.29,7.09-86.01-49.66,49.15-28.38Z"/>
    <path class="cls-53" d="m494.09,467.31l-12.29,7.09-12.29-7.09,12.29-7.09,12.29,7.09Zm-24.58,0l-12.29,7.09-12.29-7.09,12.29-7.09,12.29,7.09Zm-24.58-28.38l-12.29,7.09-24.58-14.19,12.29-7.09,24.58,14.19Zm-49.15-14.19l12.29,7.09-36.86,21.28,24.58,14.19,36.86-21.28,12.29,7.09-12.29,7.09,12.29,7.09-12.29,7.09-12.29-7.09-12.29,7.09,36.86,21.28-12.29,7.09-86.01-49.66,49.15-28.38Z"/>
    <path class="cls-76" d="m494.09,466.99l-12.29,7.09-12.29-7.09,12.29-7.09,12.29,7.09Zm-24.58,0l-12.29,7.09-12.29-7.09,12.29-7.09,12.29,7.09Zm-24.58-28.38l-12.29,7.09-24.58-14.19,12.29-7.09,24.58,14.19Zm-49.15-14.19l12.29,7.09-36.86,21.28,24.58,14.19,36.86-21.28,12.29,7.09-12.29,7.09,12.29,7.09-12.29,7.09-12.29-7.09-12.29,7.09,36.86,21.28-12.29,7.09-86.01-49.66,49.15-28.38Z"/>
    <path class="cls-55" d="m494.09,466.68l-12.29,7.09-12.29-7.09,12.29-7.09,12.29,7.09Zm-24.58,0l-12.29,7.09-12.29-7.09,12.29-7.09,12.29,7.09Zm-24.58-28.38l-12.29,7.09-24.58-14.19,12.29-7.09,24.58,14.19Zm-49.15-14.19l12.29,7.09-36.86,21.28,24.58,14.19,36.86-21.28,12.29,7.09-12.29,7.09,12.29,7.09-12.29,7.09-12.29-7.09-12.29,7.09,36.86,21.28-12.29,7.09-86.01-49.66,49.15-28.38Z"/>
    <path class="cls-36" d="m494.09,466.36l-12.29,7.09-12.29-7.09,12.29-7.09,12.29,7.09Zm-24.58,0l-12.29,7.09-12.29-7.09,12.29-7.09,12.29,7.09Zm-24.58-28.38l-12.29,7.09-24.58-14.19,12.29-7.09,24.58,14.19Zm-49.15-14.19l12.29,7.09-36.86,21.28,24.58,14.19,36.86-21.28,12.29,7.09-12.29,7.09,12.29,7.09-12.29,7.09-12.29-7.09-12.29,7.09,36.86,21.28-12.29,7.09-86.01-49.66,49.15-28.38Z"/>
    <path class="cls-10" d="m494.09,466.04l-12.29,7.09-12.29-7.09,12.29-7.09,12.29,7.09Zm-24.58,0l-12.29,7.09-12.29-7.09,12.29-7.09,12.29,7.09Zm-24.58-28.38l-12.29,7.09-24.58-14.19,12.29-7.09,24.58,14.19Zm-49.15-14.19l12.29,7.09-36.86,21.28,24.58,14.19,36.86-21.28,12.29,7.09-12.29,7.09,12.29,7.09-12.29,7.09-12.29-7.09-12.29,7.09,36.86,21.28-12.29,7.09-86.01-49.66,49.15-28.38Z"/>
    <path class="cls-54" d="m494.09,465.72l-12.29,7.09-12.29-7.09,12.29-7.09,12.29,7.09Zm-24.58,0l-12.29,7.09-12.29-7.09,12.29-7.09,12.29,7.09Zm-24.58-28.38l-12.29,7.09-24.58-14.19,12.29-7.09,24.58,14.19Zm-49.15-14.19l12.29,7.09-36.86,21.28,24.58,14.19,36.86-21.28,12.29,7.09-12.29,7.09,12.29,7.09-12.29,7.09-12.29-7.09-12.29,7.09,36.86,21.28-12.29,7.09-86.01-49.66,49.15-28.38Z"/>
    <path class="cls-45" d="m494.09,465.4l-12.29,7.09-12.29-7.09,12.29-7.09,12.29,7.09Zm-24.58,0l-12.29,7.09-12.29-7.09,12.29-7.09,12.29,7.09Zm-24.58-28.38l-12.29,7.09-24.58-14.19,12.29-7.09,24.58,14.19Zm-49.15-14.19l12.29,7.09-36.86,21.28,24.58,14.19,36.86-21.28,12.29,7.09-12.29,7.09,12.29,7.09-12.29,7.09-12.29-7.09-12.29,7.09,36.86,21.28-12.29,7.09-86.01-49.66,49.15-28.38Z"/>
    <path class="cls-31" d="m494.09,465.08l-12.29,7.09-12.29-7.09,12.29-7.09,12.29,7.09Zm-24.58,0l-12.29,7.09-12.29-7.09,12.29-7.09,12.29,7.09Zm-24.58-28.38l-12.29,7.09-24.58-14.19,12.29-7.09,24.58,14.19Zm-49.15-14.19l12.29,7.09-36.86,21.28,24.58,14.19,36.86-21.28,12.29,7.09-12.29,7.09,12.29,7.09-12.29,7.09-12.29-7.09-12.29,7.09,36.86,21.28-12.29,7.09-86.01-49.66,49.15-28.38Z"/>
    <path class="cls-6" d="m494.09,464.77l-12.29,7.09-12.29-7.09,12.29-7.09,12.29,7.09Zm-24.58,0l-12.29,7.09-12.29-7.09,12.29-7.09,12.29,7.09Zm-24.58-28.38l-12.29,7.09-24.58-14.19,12.29-7.09,24.58,14.19Zm-49.15-14.19l12.29,7.09-36.86,21.28,24.58,14.19,36.86-21.28,12.29,7.09-12.29,7.09,12.29,7.09-12.29,7.09-12.29-7.09-12.29,7.09,36.86,21.28-12.29,7.09-86.01-49.66,49.15-28.38Z"/>
  </g>
</svg>