<?xml version="1.0" encoding="UTF-8"?>
<svg id="Layer_1" data-name="Layer 1" xmlns="http://www.w3.org/2000/svg" viewBox="0 0 594 594">
  <defs>
    <style>
      .cls-1 {
        fill: #1b8d41;
      }

      .cls-1, .cls-2, .cls-3, .cls-4, .cls-5, .cls-6, .cls-7, .cls-8, .cls-9, .cls-10, .cls-11, .cls-12, .cls-13, .cls-14, .cls-15, .cls-16, .cls-17, .cls-18, .cls-19, .cls-20, .cls-21, .cls-22, .cls-23, .cls-24, .cls-25, .cls-26, .cls-27, .cls-28, .cls-29, .cls-30, .cls-31, .cls-32, .cls-33, .cls-34, .cls-35, .cls-36, .cls-37, .cls-38, .cls-39, .cls-40, .cls-41, .cls-42, .cls-43, .cls-44, .cls-45, .cls-46, .cls-47, .cls-48, .cls-49, .cls-50, .cls-51, .cls-52, .cls-53, .cls-54, .cls-55, .cls-56, .cls-57, .cls-58, .cls-59, .cls-60, .cls-61, .cls-62, .cls-63, .cls-64, .cls-65, .cls-66, .cls-67, .cls-68, .cls-69, .cls-70, .cls-71, .cls-72, .cls-73, .cls-74, .cls-75, .cls-76, .cls-77, .cls-78 {
        stroke: #006838;
        stroke-miterlimit: 10;
      }

      .cls-2 {
        fill: #299f45;
      }

      .cls-3 {
        fill: #016938;
      }

      .cls-4 {
        fill: #06703a;
      }

      .cls-5 {
        fill: #0a763b;
      }

      .cls-6 {
        fill: #39b54a;
      }

      .cls-7 {
        fill: #0e7b3c;
      }

      .cls-8 {
        fill: #026b39;
      }

      .cls-9 {
        fill: #12803e;
      }

      .cls-10 {
        fill: #36b149;
      }

      .cls-11 {
        fill: #16863f;
      }

      .cls-12 {
        fill: #31aa47;
      }

      .cls-13 {
        fill: #289e45;
      }

      .cls-14 {
        fill: #08733b;
      }

      .cls-15 {
        fill: #0b773b;
      }

      .cls-16 {
        fill: #0d7a3c;
      }

      .cls-17 {
        fill: #2fa747;
      }

      .cls-18 {
        fill: #279d44;
      }

      .cls-19 {
        fill: #046d39;
      }

      .cls-20 {
        fill: #2aa145;
      }

      .cls-21 {
        fill: #198a40;
      }

      .cls-22 {
        fill: #006838;
      }

      .cls-23 {
        fill: #117f3d;
      }

      .cls-24 {
        fill: #2ca346;
      }

      .cls-25 {
        fill: #2aa045;
      }

      .cls-26 {
        fill: #279c44;
      }

      .cls-27 {
        fill: #2ea647;
      }

      .cls-28 {
        fill: #15853f;
      }

      .cls-29 {
        fill: #2ba246;
      }

      .cls-30 {
        fill: #0c793c;
      }

      .cls-31 {
        fill: #1e9041;
      }

      .cls-32 {
        fill: #38b44a;
      }

      .cls-33 {
        fill: #32ac48;
      }

      .cls-34 {
        fill: #09743b;
      }

      .cls-35 {
        fill: #14833e;
      }

      .cls-36 {
        fill: #016a38;
      }

      .cls-37 {
        fill: #35b049;
      }

      .cls-38 {
        fill: #13823e;
      }

      .cls-39 {
        fill: #12813e;
      }

      .cls-40 {
        fill: #229543;
      }

      .cls-41 {
        fill: #229643;
      }

      .cls-42 {
        fill: #1a8b40;
      }

      .cls-43 {
        fill: #188940;
      }

      .cls-44 {
        fill: #0a753b;
      }

      .cls-45 {
        fill: #38b34a;
      }

      .cls-46 {
        fill: #0f7d3d;
      }

      .cls-47 {
        fill: #0f7c3d;
      }

      .cls-48 {
        fill: #0c783c;
      }

      .cls-49 {
        fill: #219442;
      }

      .cls-50 {
        fill: #07723a;
      }

      .cls-51 {
        fill: #17883f;
      }

      .cls-52 {
        fill: #046e39;
      }

      .cls-53 {
        fill: #33ad48;
      }

      .cls-54 {
        fill: #37b249;
      }

      .cls-55 {
        fill: #35af49;
      }

      .cls-56 {
        fill: #32ab48;
      }

      .cls-57 {
        fill: #07713a;
      }

      .cls-58 {
        fill: #107e3d;
      }

      .cls-59 {
        fill: #259a44;
      }

      .cls-60 {
        fill: #17873f;
      }

      .cls-61 {
        fill: #14843e;
      }

      .cls-62 {
        fill: #259944;
      }

      .cls-63 {
        fill: #239743;
      }

      .cls-64 {
        fill: #1d8f41;
      }

      .cls-65 {
        fill: #1c8e41;
      }

      .cls-66 {
        fill: #1a8c40;
      }

      .cls-67 {
        fill: #1f9242;
      }

      .cls-68 {
        fill: #056f3a;
      }

      .cls-69 {
        fill: #30a947;
      }

      .cls-70 {
        fill: #249843;
      }

      .cls-71 {
        fill: #209342;
      }

      .cls-72 {
        fill: #2fa847;
      }

      .cls-73 {
        fill: #2da446;
      }

      .cls-74 {
        fill: #2da546;
      }

      .cls-75 {
        fill: #1f9142;
      }

      .cls-76 {
        fill: #34ae48;
      }

      .cls-77 {
        fill: #036c39;
      }

      .cls-78 {
        fill: #269b44;
      }
    </style>
  </defs>
  <g>
    <path class="cls-22" d="m369.92,418.77l-12.29,7.09-12.29-7.09,12.29-7.09,12.29,7.09Zm-24.58,0l-12.29,7.09-12.29-7.09,12.29-7.09,12.29,7.09Zm-24.58-28.38l-12.29,7.09-24.58-14.19,12.29-7.09,24.58,14.19Zm-49.15-14.19l12.29,7.09-36.86,21.28,24.58,14.19,36.86-21.28,12.29,7.09-12.29,7.09,12.29,7.09-12.29,7.09-12.29-7.09-12.29,7.09,36.86,21.28-12.29,7.09-86.01-49.66,49.15-28.38v.03Z"/>
    <path class="cls-3" d="m369.92,418.46l-12.29,7.09-12.29-7.09,12.29-7.09,12.29,7.09Zm-24.58,0l-12.29,7.09-12.29-7.09,12.29-7.09,12.29,7.09Zm-24.58-28.38l-12.29,7.09-24.58-14.19,12.29-7.09,24.58,14.19Zm-49.15-14.19l12.29,7.09-36.86,21.28,24.58,14.19,36.86-21.28,12.29,7.09-12.29,7.09,12.29,7.09-12.29,7.09-12.29-7.09-12.29,7.09,36.86,21.28-12.29,7.09-86.01-49.66,49.15-28.38v.03Z"/>
    <path class="cls-36" d="m369.92,418.14l-12.29,7.09-12.29-7.09,12.29-7.09,12.29,7.09Zm-24.58,0l-12.29,7.09-12.29-7.09,12.29-7.09,12.29,7.09Zm-24.58-28.38l-12.29,7.09-24.58-14.19,12.29-7.09,24.58,14.19Zm-49.15-14.19l12.29,7.09-36.86,21.28,24.58,14.19,36.86-21.28,12.29,7.09-12.29,7.09,12.29,7.09-12.29,7.09-12.29-7.09-12.29,7.09,36.86,21.28-12.29,7.09-86.01-49.66,49.15-28.38v.03Z"/>
    <path class="cls-8" d="m369.92,417.82l-12.29,7.09-12.29-7.09,12.29-7.09,12.29,7.09Zm-24.58,0l-12.29,7.09-12.29-7.09,12.29-7.09,12.29,7.09Zm-24.58-28.38l-12.29,7.09-24.58-14.19,12.29-7.09,24.58,14.19Zm-49.15-14.19l12.29,7.09-36.86,21.28,24.58,14.19,36.86-21.28,12.29,7.09-12.29,7.09,12.29,7.09-12.29,7.09-12.29-7.09-12.29,7.09,36.86,21.28-12.29,7.09-86.01-49.66,49.15-28.38v.03Z"/>
    <path class="cls-77" d="m369.92,417.5l-12.29,7.09-12.29-7.09,12.29-7.09,12.29,7.09Zm-24.58,0l-12.29,7.09-12.29-7.09,12.29-7.09,12.29,7.09Zm-24.58-28.38l-12.29,7.09-24.58-14.19,12.29-7.09,24.58,14.19Zm-49.15-14.19l12.29,7.09-36.86,21.28,24.58,14.19,36.86-21.28,12.29,7.09-12.29,7.09,12.29,7.09-12.29,7.09-12.29-7.09-12.29,7.09,36.86,21.28-12.29,7.09-86.01-49.66,49.15-28.38v.03Z"/>
    <path class="cls-19" d="m369.92,417.18l-12.29,7.09-12.29-7.09,12.29-7.09,12.29,7.09Zm-24.58,0l-12.29,7.09-12.29-7.09,12.29-7.09,12.29,7.09Zm-24.58-28.38l-12.29,7.09-24.58-14.19,12.29-7.09,24.58,14.19Zm-49.15-14.19l12.29,7.09-36.86,21.28,24.58,14.19,36.86-21.28,12.29,7.09-12.29,7.09,12.29,7.09-12.29,7.09-12.29-7.09-12.29,7.09,36.86,21.28-12.29,7.09-86.01-49.66,49.15-28.38v.03Z"/>
    <path class="cls-52" d="m369.92,416.86l-12.29,7.09-12.29-7.09,12.29-7.09,12.29,7.09Zm-24.58,0l-12.29,7.09-12.29-7.09,12.29-7.09,12.29,7.09Zm-24.58-28.38l-12.29,7.09-24.58-14.19,12.29-7.09,24.58,14.19Zm-49.15-14.19l12.29,7.09-36.86,21.28,24.58,14.19,36.86-21.28,12.29,7.09-12.29,7.09,12.29,7.09-12.29,7.09-12.29-7.09-12.29,7.09,36.86,21.28-12.29,7.09-86.01-49.66,49.15-28.38v.03Z"/>
    <path class="cls-68" d="m369.92,416.55l-12.29,7.09-12.29-7.09,12.29-7.09,12.29,7.09Zm-24.58,0l-12.29,7.09-12.29-7.09,12.29-7.09,12.29,7.09Zm-24.58-28.38l-12.29,7.09-24.58-14.19,12.29-7.09,24.58,14.19Zm-49.15-14.19l12.29,7.09-36.86,21.28,24.58,14.19,36.86-21.28,12.29,7.09-12.29,7.09,12.29,7.09-12.29,7.09-12.29-7.09-12.29,7.09,36.86,21.28-12.29,7.09-86.01-49.66,49.15-28.38v.03Z"/>
    <path class="cls-4" d="m369.92,416.23l-12.29,7.09-12.29-7.09,12.29-7.09,12.29,7.09Zm-24.58,0l-12.29,7.09-12.29-7.09,12.29-7.09,12.29,7.09Zm-24.58-28.38l-12.29,7.09-24.58-14.19,12.29-7.09,24.58,14.19Zm-49.15-14.19l12.29,7.09-36.86,21.28,24.58,14.19,36.86-21.28,12.29,7.09-12.29,7.09,12.29,7.09-12.29,7.09-12.29-7.09-12.29,7.09,36.86,21.28-12.29,7.09-86.01-49.66,49.15-28.38v.03Z"/>
    <path class="cls-57" d="m369.92,415.91l-12.29,7.09-12.29-7.09,12.29-7.09,12.29,7.09Zm-24.58,0l-12.29,7.09-12.29-7.09,12.29-7.09,12.29,7.09Zm-24.58-28.38l-12.29,7.09-24.58-14.19,12.29-7.09,24.58,14.19Zm-49.15-14.19l12.29,7.09-36.86,21.28,24.58,14.19,36.86-21.28,12.29,7.09-12.29,7.09,12.29,7.09-12.29,7.09-12.29-7.09-12.29,7.09,36.86,21.28-12.29,7.09-86.01-49.66,49.15-28.38v.03Z"/>
    <path class="cls-50" d="m369.92,415.59l-12.29,7.09-12.29-7.09,12.29-7.09,12.29,7.09Zm-24.58,0l-12.29,7.09-12.29-7.09,12.29-7.09,12.29,7.09Zm-24.58-28.38l-12.29,7.09-24.58-14.19,12.29-7.09,24.58,14.19Zm-49.15-14.19l12.29,7.09-36.86,21.28,24.58,14.19,36.86-21.28,12.29,7.09-12.29,7.09,12.29,7.09-12.29,7.09-12.29-7.09-12.29,7.09,36.86,21.28-12.29,7.09-86.01-49.66,49.15-28.38v.03Z"/>
    <path class="cls-14" d="m369.92,415.27l-12.29,7.09-12.29-7.09,12.29-7.09,12.29,7.09Zm-24.58,0l-12.29,7.09-12.29-7.09,12.29-7.09,12.29,7.09Zm-24.58-28.38l-12.29,7.09-24.58-14.19,12.29-7.09,24.58,14.19Zm-49.15-14.19l12.29,7.09-36.86,21.28,24.58,14.19,36.86-21.28,12.29,7.09-12.29,7.09,12.29,7.09-12.29,7.09-12.29-7.09-12.29,7.09,36.86,21.28-12.29,7.09-86.01-49.66,49.15-28.38v.03Z"/>
    <path class="cls-34" d="m369.92,414.96l-12.29,7.09-12.29-7.09,12.29-7.09,12.29,7.09Zm-24.58,0l-12.29,7.09-12.29-7.09,12.29-7.09,12.29,7.09Zm-24.58-28.38l-12.29,7.09-24.58-14.19,12.29-7.09,24.58,14.19Zm-49.15-14.19l12.29,7.09-36.86,21.28,24.58,14.19,36.86-21.28,12.29,7.09-12.29,7.09,12.29,7.09-12.29,7.09-12.29-7.09-12.29,7.09,36.86,21.28-12.29,7.09-86.01-49.66,49.15-28.38v.03Z"/>
    <path class="cls-44" d="m369.92,414.64l-12.29,7.09-12.29-7.09,12.29-7.09,12.29,7.09Zm-24.58,0l-12.29,7.09-12.29-7.09,12.29-7.09,12.29,7.09Zm-24.58-28.38l-12.29,7.09-24.58-14.19,12.29-7.09,24.58,14.19Zm-49.15-14.19l12.29,7.09-36.86,21.28,24.58,14.19,36.86-21.28,12.29,7.09-12.29,7.09,12.29,7.09-12.29,7.09-12.29-7.09-12.29,7.09,36.86,21.28-12.29,7.09-86.01-49.66,49.15-28.38v.03Z"/>
    <path class="cls-5" d="m369.92,414.32l-12.29,7.09-12.29-7.09,12.29-7.09,12.29,7.09Zm-24.58,0l-12.29,7.09-12.29-7.09,12.29-7.09,12.29,7.09Zm-24.58-28.38l-12.29,7.09-24.58-14.19,12.29-7.09,24.58,14.19Zm-49.15-14.19l12.29,7.09-36.86,21.28,24.58,14.19,36.86-21.28,12.29,7.09-12.29,7.09,12.29,7.09-12.29,7.09-12.29-7.09-12.29,7.09,36.86,21.28-12.29,7.09-86.01-49.66,49.15-28.38v.03Z"/>
    <path class="cls-15" d="m369.92,414l-12.29,7.09-12.29-7.09,12.29-7.09,12.29,7.09Zm-24.58,0l-12.29,7.09-12.29-7.09,12.29-7.09,12.29,7.09Zm-24.58-28.38l-12.29,7.09-24.58-14.19,12.29-7.09,24.58,14.19Zm-49.15-14.19l12.29,7.09-36.86,21.28,24.58,14.19,36.86-21.28,12.29,7.09-12.29,7.09,12.29,7.09-12.29,7.09-12.29-7.09-12.29,7.09,36.86,21.28-12.29,7.09-86.01-49.66,49.15-28.38v.03Z"/>
    <path class="cls-48" d="m369.92,413.68l-12.29,7.09-12.29-7.09,12.29-7.09,12.29,7.09Zm-24.58,0l-12.29,7.09-12.29-7.09,12.29-7.09,12.29,7.09Zm-24.58-28.38l-12.29,7.09-24.58-14.19,12.29-7.09,24.58,14.19Zm-49.15-14.19l12.29,7.09-36.86,21.28,24.58,14.19,36.86-21.28,12.29,7.09-12.29,7.09,12.29,7.09-12.29,7.09-12.29-7.09-12.29,7.09,36.86,21.28-12.29,7.09-86.01-49.66,49.15-28.38v.03Z"/>
    <path class="cls-30" d="m369.92,413.36l-12.29,7.09-12.29-7.09,12.29-7.09,12.29,7.09Zm-24.58,0l-12.29,7.09-12.29-7.09,12.29-7.09,12.29,7.09Zm-24.58-28.38l-12.29,7.09-24.58-14.19,12.29-7.09,24.58,14.19Zm-49.15-14.19l12.29,7.09-36.86,21.28,24.58,14.19,36.86-21.28,12.29,7.09-12.29,7.09,12.29,7.09-12.29,7.09-12.29-7.09-12.29,7.09,36.86,21.28-12.29,7.09-86.01-49.66,49.15-28.38v.03Z"/>
    <path class="cls-16" d="m369.92,413.05l-12.29,7.09-12.29-7.09,12.29-7.09,12.29,7.09Zm-24.58,0l-12.29,7.09-12.29-7.09,12.29-7.09,12.29,7.09Zm-24.58-28.38l-12.29,7.09-24.58-14.19,12.29-7.09,24.58,14.19Zm-49.15-14.19l12.29,7.09-36.86,21.28,24.58,14.19,36.86-21.28,12.29,7.09-12.29,7.09,12.29,7.09-12.29,7.09-12.29-7.09-12.29,7.09,36.86,21.28-12.29,7.09-86.01-49.66,49.15-28.38v.03Z"/>
    <path class="cls-7" d="m369.92,412.73l-12.29,7.09-12.29-7.09,12.29-7.09,12.29,7.09Zm-24.58,0l-12.29,7.09-12.29-7.09,12.29-7.09,12.29,7.09Zm-24.58-28.38l-12.29,7.09-24.58-14.19,12.29-7.09,24.58,14.19Zm-49.15-14.19l12.29,7.09-36.86,21.28,24.58,14.19,36.86-21.28,12.29,7.09-12.29,7.09,12.29,7.09-12.29,7.09-12.29-7.09-12.29,7.09,36.86,21.28-12.29,7.09-86.01-49.66,49.15-28.38v.03Z"/>
    <path class="cls-47" d="m369.92,412.41l-12.29,7.09-12.29-7.09,12.29-7.09,12.29,7.09Zm-24.58,0l-12.29,7.09-12.29-7.09,12.29-7.09,12.29,7.09Zm-24.58-28.38l-12.29,7.09-24.58-14.19,12.29-7.09,24.58,14.19Zm-49.15-14.19l12.29,7.09-36.86,21.28,24.58,14.19,36.86-21.28,12.29,7.09-12.29,7.09,12.29,7.09-12.29,7.09-12.29-7.09-12.29,7.09,36.86,21.28-12.29,7.09-86.01-49.66,49.15-28.38v.03Z"/>
    <path class="cls-46" d="m369.92,412.09l-12.29,7.09-12.29-7.09,12.29-7.09,12.29,7.09Zm-24.58,0l-12.29,7.09-12.29-7.09,12.29-7.09,12.29,7.09Zm-24.58-28.38l-12.29,7.09-24.58-14.19,12.29-7.09,24.58,14.19Zm-49.15-14.19l12.29,7.09-36.86,21.28,24.58,14.19,36.86-21.28,12.29,7.09-12.29,7.09,12.29,7.09-12.29,7.09-12.29-7.09-12.29,7.09,36.86,21.28-12.29,7.09-86.01-49.66,49.15-28.38v.03Z"/>
    <path class="cls-58" d="m369.92,411.77l-12.29,7.09-12.29-7.09,12.29-7.09,12.29,7.09Zm-24.58,0l-12.29,7.09-12.29-7.09,12.29-7.09,12.29,7.09Zm-24.58-28.38l-12.29,7.09-24.58-14.19,12.29-7.09,24.58,14.19Zm-49.15-14.19l12.29,7.09-36.86,21.28,24.58,14.19,36.86-21.28,12.29,7.09-12.29,7.09,12.29,7.09-12.29,7.09-12.29-7.09-12.29,7.09,36.86,21.28-12.29,7.09-86.01-49.66,49.15-28.38v.03Z"/>
    <path class="cls-23" d="m369.92,411.45l-12.29,7.09-12.29-7.09,12.29-7.09,12.29,7.09Zm-24.58,0l-12.29,7.09-12.29-7.09,12.29-7.09,12.29,7.09Zm-24.58-28.38l-12.29,7.09-24.58-14.19,12.29-7.09,24.58,14.19Zm-49.15-14.19l12.29,7.09-36.86,21.28,24.58,14.19,36.86-21.28,12.29,7.09-12.29,7.09,12.29,7.09-12.29,7.09-12.29-7.09-12.29,7.09,36.86,21.28-12.29,7.09-86.01-49.66,49.15-28.38v.03Z"/>
    <path class="cls-9" d="m369.92,411.14l-12.29,7.09-12.29-7.09,12.29-7.09,12.29,7.09Zm-24.58,0l-12.29,7.09-12.29-7.09,12.29-7.09,12.29,7.09Zm-24.58-28.38l-12.29,7.09-24.58-14.19,12.29-7.09,24.58,14.19Zm-49.15-14.19l12.29,7.09-36.86,21.28,24.58,14.19,36.86-21.28,12.29,7.09-12.29,7.09,12.29,7.09-12.29,7.09-12.29-7.09-12.29,7.09,36.86,21.28-12.29,7.09-86.01-49.66,49.15-28.38v.03Z"/>
    <path class="cls-39" d="m369.92,410.82l-12.29,7.09-12.29-7.09,12.29-7.09,12.29,7.09Zm-24.58,0l-12.29,7.09-12.29-7.09,12.29-7.09,12.29,7.09Zm-24.58-28.38l-12.29,7.09-24.58-14.19,12.29-7.09,24.58,14.19Zm-49.15-14.19l12.29,7.09-36.86,21.28,24.58,14.19,36.86-21.28,12.29,7.09-12.29,7.09,12.29,7.09-12.29,7.09-12.29-7.09-12.29,7.09,36.86,21.28-12.29,7.09-86.01-49.66,49.15-28.38v.03Z"/>
    <path class="cls-38" d="m369.92,410.5l-12.29,7.09-12.29-7.09,12.29-7.09,12.29,7.09Zm-24.58,0l-12.29,7.09-12.29-7.09,12.29-7.09,12.29,7.09Zm-24.58-28.38l-12.29,7.09-24.58-14.19,12.29-7.09,24.58,14.19Zm-49.15-14.19l12.29,7.09-36.86,21.28,24.58,14.19,36.86-21.28,12.29,7.09-12.29,7.09,12.29,7.09-12.29,7.09-12.29-7.09-12.29,7.09,36.86,21.28-12.29,7.09-86.01-49.66,49.15-28.38v.03Z"/>
    <path class="cls-35" d="m369.92,410.18l-12.29,7.09-12.29-7.09,12.29-7.09,12.29,7.09Zm-24.58,0l-12.29,7.09-12.29-7.09,12.29-7.09,12.29,7.09Zm-24.58-28.38l-12.29,7.09-24.58-14.19,12.29-7.09,24.58,14.19Zm-49.15-14.19l12.29,7.09-36.86,21.28,24.58,14.19,36.86-21.28,12.29,7.09-12.29,7.09,12.29,7.09-12.29,7.09-12.29-7.09-12.29,7.09,36.86,21.28-12.29,7.09-86.01-49.66,49.15-28.38v.03Z"/>
    <path class="cls-61" d="m369.92,409.86l-12.29,7.09-12.29-7.09,12.29-7.09,12.29,7.09Zm-24.58,0l-12.29,7.09-12.29-7.09,12.29-7.09,12.29,7.09Zm-24.58-28.38l-12.29,7.09-24.58-14.19,12.29-7.09,24.58,14.19Zm-49.15-14.19l12.29,7.09-36.86,21.28,24.58,14.19,36.86-21.28,12.29,7.09-12.29,7.09,12.29,7.09-12.29,7.09-12.29-7.09-12.29,7.09,36.86,21.28-12.29,7.09-86.01-49.66,49.15-28.38v.03Z"/>
    <path class="cls-28" d="m369.92,409.54l-12.29,7.09-12.29-7.09,12.29-7.09,12.29,7.09Zm-24.58,0l-12.29,7.09-12.29-7.09,12.29-7.09,12.29,7.09Zm-24.58-28.38l-12.29,7.09-24.58-14.19,12.29-7.09,24.58,14.19Zm-49.15-14.19l12.29,7.09-36.86,21.28,24.58,14.19,36.86-21.28,12.29,7.09-12.29,7.09,12.29,7.09-12.29,7.09-12.29-7.09-12.29,7.09,36.86,21.28-12.29,7.09-86.01-49.66,49.15-28.38v.03Z"/>
    <path class="cls-11" d="m369.92,409.23l-12.29,7.09-12.29-7.09,12.29-7.09,12.29,7.09Zm-24.58,0l-12.29,7.09-12.29-7.09,12.29-7.09,12.29,7.09Zm-24.58-28.38l-12.29,7.09-24.58-14.19,12.29-7.09,24.58,14.19Zm-49.15-14.19l12.29,7.09-36.86,21.28,24.58,14.19,36.86-21.28,12.29,7.09-12.29,7.09,12.29,7.09-12.29,7.09-12.29-7.09-12.29,7.09,36.86,21.28-12.29,7.09-86.01-49.66,49.15-28.38v.03Z"/>
    <path class="cls-60" d="m369.92,408.91l-12.29,7.09-12.29-7.09,12.29-7.09,12.29,7.09Zm-24.58,0l-12.29,7.09-12.29-7.09,12.29-7.09,12.29,7.09Zm-24.58-28.38l-12.29,7.09-24.58-14.19,12.29-7.09,24.58,14.19Zm-49.15-14.19l12.29,7.09-36.86,21.28,24.58,14.19,36.86-21.28,12.29,7.09-12.29,7.09,12.29,7.09-12.29,7.09-12.29-7.09-12.29,7.09,36.86,21.28-12.29,7.09-86.01-49.66,49.15-28.38v.03Z"/>
    <path class="cls-51" d="m369.92,408.59l-12.29,7.09-12.29-7.09,12.29-7.09,12.29,7.09Zm-24.58,0l-12.29,7.09-12.29-7.09,12.29-7.09,12.29,7.09Zm-24.58-28.38l-12.29,7.09-24.58-14.19,12.29-7.09,24.58,14.19Zm-49.15-14.19l12.29,7.09-36.86,21.28,24.58,14.19,36.86-21.28,12.29,7.09-12.29,7.09,12.29,7.09-12.29,7.09-12.29-7.09-12.29,7.09,36.86,21.28-12.29,7.09-86.01-49.66,49.15-28.38v.03Z"/>
    <path class="cls-43" d="m369.92,408.27l-12.29,7.09-12.29-7.09,12.29-7.09,12.29,7.09Zm-24.58,0l-12.29,7.09-12.29-7.09,12.29-7.09,12.29,7.09Zm-24.58-28.38l-12.29,7.09-24.58-14.19,12.29-7.09,24.58,14.19Zm-49.15-14.19l12.29,7.09-36.86,21.28,24.58,14.19,36.86-21.28,12.29,7.09-12.29,7.09,12.29,7.09-12.29,7.09-12.29-7.09-12.29,7.09,36.86,21.28-12.29,7.09-86.01-49.66,49.15-28.38v.03Z"/>
    <path class="cls-21" d="m369.92,407.95l-12.29,7.09-12.29-7.09,12.29-7.09,12.29,7.09Zm-24.58,0l-12.29,7.09-12.29-7.09,12.29-7.09,12.29,7.09Zm-24.58-28.38l-12.29,7.09-24.58-14.19,12.29-7.09,24.58,14.19Zm-49.15-14.19l12.29,7.09-36.86,21.28,24.58,14.19,36.86-21.28,12.29,7.09-12.29,7.09,12.29,7.09-12.29,7.09-12.29-7.09-12.29,7.09,36.86,21.28-12.29,7.09-86.01-49.66,49.15-28.38v.03Z"/>
    <path class="cls-42" d="m369.92,407.63l-12.29,7.09-12.29-7.09,12.29-7.09,12.29,7.09Zm-24.58,0l-12.29,7.09-12.29-7.09,12.29-7.09,12.29,7.09Zm-24.58-28.38l-12.29,7.09-24.58-14.19,12.29-7.09,24.58,14.19Zm-49.15-14.19l12.29,7.09-36.86,21.28,24.58,14.19,36.86-21.28,12.29,7.09-12.29,7.09,12.29,7.09-12.29,7.09-12.29-7.09-12.29,7.09,36.86,21.28-12.29,7.09-86.01-49.66,49.15-28.38v.03Z"/>
    <path class="cls-66" d="m369.92,407.32l-12.29,7.09-12.29-7.09,12.29-7.09,12.29,7.09Zm-24.58,0l-12.29,7.09-12.29-7.09,12.29-7.09,12.29,7.09Zm-24.58-28.38l-12.29,7.09-24.58-14.19,12.29-7.09,24.58,14.19Zm-49.15-14.19l12.29,7.09-36.86,21.28,24.58,14.19,36.86-21.28,12.29,7.09-12.29,7.09,12.29,7.09-12.29,7.09-12.29-7.09-12.29,7.09,36.86,21.28-12.29,7.09-86.01-49.66,49.15-28.38v.03Z"/>
    <path class="cls-1" d="m369.92,407l-12.29,7.09-12.29-7.09,12.29-7.09,12.29,7.09Zm-24.58,0l-12.29,7.09-12.29-7.09,12.29-7.09,12.29,7.09Zm-24.58-28.38l-12.29,7.09-24.58-14.19,12.29-7.09,24.58,14.19Zm-49.15-14.19l12.29,7.09-36.86,21.28,24.58,14.19,36.86-21.28,12.29,7.09-12.29,7.09,12.29,7.09-12.29,7.09-12.29-7.09-12.29,7.09,36.86,21.28-12.29,7.09-86.01-49.66,49.15-28.38v.03Z"/>
    <path class="cls-65" d="m369.92,406.68l-12.29,7.09-12.29-7.09,12.29-7.09,12.29,7.09Zm-24.58,0l-12.29,7.09-12.29-7.09,12.29-7.09,12.29,7.09Zm-24.58-28.38l-12.29,7.09-24.58-14.19,12.29-7.09,24.58,14.19Zm-49.15-14.19l12.29,7.09-36.86,21.28,24.58,14.19,36.86-21.28,12.29,7.09-12.29,7.09,12.29,7.09-12.29,7.09-12.29-7.09-12.29,7.09,36.86,21.28-12.29,7.09-86.01-49.66,49.15-28.38v.03Z"/>
    <path class="cls-64" d="m369.92,406.36l-12.29,7.09-12.29-7.09,12.29-7.09,12.29,7.09Zm-24.58,0l-12.29,7.09-12.29-7.09,12.29-7.09,12.29,7.09Zm-24.58-28.38l-12.29,7.09-24.58-14.19,12.29-7.09,24.58,14.19Zm-49.15-14.19l12.29,7.09-36.86,21.28,24.58,14.19,36.86-21.28,12.29,7.09-12.29,7.09,12.29,7.09-12.29,7.09-12.29-7.09-12.29,7.09,36.86,21.28-12.29,7.09-86.01-49.66,49.15-28.38v.03Z"/>
    <path class="cls-64" d="m369.92,406.04l-12.29,7.09-12.29-7.09,12.29-7.09,12.29,7.09Zm-24.58,0l-12.29,7.09-12.29-7.09,12.29-7.09,12.29,7.09Zm-24.58-28.38l-12.29,7.09-24.58-14.19,12.29-7.09,24.58,14.19Zm-49.15-14.19l12.29,7.09-36.86,21.28,24.58,14.19,36.86-21.28,12.29,7.09-12.29,7.09,12.29,7.09-12.29,7.09-12.29-7.09-12.29,7.09,36.86,21.28-12.29,7.09-86.01-49.66,49.15-28.38v.03Z"/>
    <path class="cls-31" d="m369.92,405.72l-12.29,7.09-12.29-7.09,12.29-7.09,12.29,7.09Zm-24.58,0l-12.29,7.09-12.29-7.09,12.29-7.09,12.29,7.09Zm-24.58-28.38l-12.29,7.09-24.58-14.19,12.29-7.09,24.58,14.19Zm-49.15-14.19l12.29,7.09-36.86,21.28,24.58,14.19,36.86-21.28,12.29,7.09-12.29,7.09,12.29,7.09-12.29,7.09-12.29-7.09-12.29,7.09,36.86,21.28-12.29,7.09-86.01-49.66,49.15-28.38v.03Z"/>
    <path class="cls-75" d="m369.92,405.41l-12.29,7.09-12.29-7.09,12.29-7.09,12.29,7.09Zm-24.58,0l-12.29,7.09-12.29-7.09,12.29-7.09,12.29,7.09Zm-24.58-28.38l-12.29,7.09-24.58-14.19,12.29-7.09,24.58,14.19Zm-49.15-14.19l12.29,7.09-36.86,21.28,24.58,14.19,36.86-21.28,12.29,7.09-12.29,7.09,12.29,7.09-12.29,7.09-12.29-7.09-12.29,7.09,36.86,21.28-12.29,7.09-86.01-49.66,49.15-28.38v.03Z"/>
    <path class="cls-67" d="m369.92,405.09l-12.29,7.09-12.29-7.09,12.29-7.09,12.29,7.09Zm-24.58,0l-12.29,7.09-12.29-7.09,12.29-7.09,12.29,7.09Zm-24.58-28.38l-12.29,7.09-24.58-14.19,12.29-7.09,24.58,14.19Zm-49.15-14.19l12.29,7.09-36.86,21.28,24.58,14.19,36.86-21.28,12.29,7.09-12.29,7.09,12.29,7.09-12.29,7.09-12.29-7.09-12.29,7.09,36.86,21.28-12.29,7.09-86.01-49.66,49.15-28.38v.03Z"/>
    <path class="cls-71" d="m369.92,404.77l-12.29,7.09-12.29-7.09,12.29-7.09,12.29,7.09Zm-24.58,0l-12.29,7.09-12.29-7.09,12.29-7.09,12.29,7.09Zm-24.58-28.38l-12.29,7.09-24.58-14.19,12.29-7.09,24.58,14.19Zm-49.15-14.19l12.29,7.09-36.86,21.28,24.58,14.19,36.86-21.28,12.29,7.09-12.29,7.09,12.29,7.09-12.29,7.09-12.29-7.09-12.29,7.09,36.86,21.28-12.29,7.09-86.01-49.66,49.15-28.38v.03Z"/>
    <path class="cls-49" d="m369.92,404.45l-12.29,7.09-12.29-7.09,12.29-7.09,12.29,7.09Zm-24.58,0l-12.29,7.09-12.29-7.09,12.29-7.09,12.29,7.09Zm-24.58-28.38l-12.29,7.09-24.58-14.19,12.29-7.09,24.58,14.19Zm-49.15-14.19l12.29,7.09-36.86,21.28,24.58,14.19,36.86-21.28,12.29,7.09-12.29,7.09,12.29,7.09-12.29,7.09-12.29-7.09-12.29,7.09,36.86,21.28-12.29,7.09-86.01-49.66,49.15-28.38v.03Z"/>
    <path class="cls-40" d="m369.92,404.13l-12.29,7.09-12.29-7.09,12.29-7.09,12.29,7.09Zm-24.58,0l-12.29,7.09-12.29-7.09,12.29-7.09,12.29,7.09Zm-24.58-28.38l-12.29,7.09-24.58-14.19,12.29-7.09,24.58,14.19Zm-49.15-14.19l12.29,7.09-36.86,21.28,24.58,14.19,36.86-21.28,12.29,7.09-12.29,7.09,12.29,7.09-12.29,7.09-12.29-7.09-12.29,7.09,36.86,21.28-12.29,7.09-86.01-49.66,49.15-28.38v.03Z"/>
    <path class="cls-41" d="m369.92,403.81l-12.29,7.09-12.29-7.09,12.29-7.09,12.29,7.09Zm-24.58,0l-12.29,7.09-12.29-7.09,12.29-7.09,12.29,7.09Zm-24.58-28.38l-12.29,7.09-24.58-14.19,12.29-7.09,24.58,14.19Zm-49.15-14.19l12.29,7.09-36.86,21.28,24.58,14.19,36.86-21.28,12.29,7.09-12.29,7.09,12.29,7.09-12.29,7.09-12.29-7.09-12.29,7.09,36.86,21.28-12.29,7.09-86.01-49.66,49.15-28.38v.03Z"/>
    <path class="cls-63" d="m369.92,403.5l-12.29,7.09-12.29-7.09,12.29-7.09,12.29,7.09Zm-24.58,0l-12.29,7.09-12.29-7.09,12.29-7.09,12.29,7.09Zm-24.58-28.38l-12.29,7.09-24.58-14.19,12.29-7.09,24.58,14.19Zm-49.15-14.19l12.29,7.09-36.86,21.28,24.58,14.19,36.86-21.28,12.29,7.09-12.29,7.09,12.29,7.09-12.29,7.09-12.29-7.09-12.29,7.09,36.86,21.28-12.29,7.09-86.01-49.66,49.15-28.38v.03Z"/>
    <path class="cls-70" d="m369.92,403.18l-12.29,7.09-12.29-7.09,12.29-7.09,12.29,7.09Zm-24.58,0l-12.29,7.09-12.29-7.09,12.29-7.09,12.29,7.09Zm-24.58-28.38l-12.29,7.09-24.58-14.19,12.29-7.09,24.58,14.19Zm-49.15-14.19l12.29,7.09-36.86,21.28,24.58,14.19,36.86-21.28,12.29,7.09-12.29,7.09,12.29,7.09-12.29,7.09-12.29-7.09-12.29,7.09,36.86,21.28-12.29,7.09-86.01-49.66,49.15-28.38v.03Z"/>
    <path class="cls-62" d="m369.92,402.86l-12.29,7.09-12.29-7.09,12.29-7.09,12.29,7.09Zm-24.58,0l-12.29,7.09-12.29-7.09,12.29-7.09,12.29,7.09Zm-24.58-28.38l-12.29,7.09-24.58-14.19,12.29-7.09,24.58,14.19Zm-49.15-14.19l12.29,7.09-36.86,21.28,24.58,14.19,36.86-21.28,12.29,7.09-12.29,7.09,12.29,7.09-12.29,7.09-12.29-7.09-12.29,7.09,36.86,21.28-12.29,7.09-86.01-49.66,49.15-28.38v.03Z"/>
    <path class="cls-59" d="m369.92,402.54l-12.29,7.09-12.29-7.09,12.29-7.09,12.29,7.09Zm-24.58,0l-12.29,7.09-12.29-7.09,12.29-7.09,12.29,7.09Zm-24.58-28.38l-12.29,7.09-24.58-14.19,12.29-7.09,24.58,14.19Zm-49.15-14.19l12.29,7.09-36.86,21.28,24.58,14.19,36.86-21.28,12.29,7.09-12.29,7.09,12.29,7.09-12.29,7.09-12.29-7.09-12.29,7.09,36.86,21.28-12.29,7.09-86.01-49.66,49.15-28.38v.03Z"/>
    <path class="cls-78" d="m369.92,402.22l-12.29,7.09-12.29-7.09,12.29-7.09,12.29,7.09Zm-24.58,0l-12.29,7.09-12.29-7.09,12.29-7.09,12.29,7.09Zm-24.58-28.38l-12.29,7.09-24.58-14.19,12.29-7.09,24.58,14.19Zm-49.15-14.19l12.29,7.09-36.86,21.28,24.58,14.19,36.86-21.28,12.29,7.09-12.29,7.09,12.29,7.09-12.29,7.09-12.29-7.09-12.29,7.09,36.86,21.28-12.29,7.09-86.01-49.66,49.15-28.38v.03Z"/>
    <path class="cls-26" d="m369.92,401.9l-12.29,7.09-12.29-7.09,12.29-7.09,12.29,7.09Zm-24.58,0l-12.29,7.09-12.29-7.09,12.29-7.09,12.29,7.09Zm-24.58-28.38l-12.29,7.09-24.58-14.19,12.29-7.09,24.58,14.19Zm-49.15-14.19l12.29,7.09-36.86,21.28,24.58,14.19,36.86-21.28,12.29,7.09-12.29,7.09,12.29,7.09-12.29,7.09-12.29-7.09-12.29,7.09,36.86,21.28-12.29,7.09-86.01-49.66,49.15-28.38v.03Z"/>
    <path class="cls-18" d="m369.92,401.59l-12.29,7.09-12.29-7.09,12.29-7.09,12.29,7.09Zm-24.58,0l-12.29,7.09-12.29-7.09,12.29-7.09,12.29,7.09Zm-24.58-28.38l-12.29,7.09-24.58-14.19,12.29-7.09,24.58,14.19Zm-49.15-14.19l12.29,7.09-36.86,21.28,24.58,14.19,36.86-21.28,12.29,7.09-12.29,7.09,12.29,7.09-12.29,7.09-12.29-7.09-12.29,7.09,36.86,21.28-12.29,7.09-86.01-49.66,49.15-28.38v.03Z"/>
    <path class="cls-13" d="m369.92,401.27l-12.29,7.09-12.29-7.09,12.29-7.09,12.29,7.09Zm-24.58,0l-12.29,7.09-12.29-7.09,12.29-7.09,12.29,7.09Zm-24.58-28.38l-12.29,7.09-24.58-14.19,12.29-7.09,24.58,14.19Zm-49.15-14.19l12.29,7.09-36.86,21.28,24.58,14.19,36.86-21.28,12.29,7.09-12.29,7.09,12.29,7.09-12.29,7.09-12.29-7.09-12.29,7.09,36.86,21.28-12.29,7.09-86.01-49.66,49.15-28.38v.03Z"/>
    <path class="cls-2" d="m369.92,400.95l-12.29,7.09-12.29-7.09,12.29-7.09,12.29,7.09Zm-24.58,0l-12.29,7.09-12.29-7.09,12.29-7.09,12.29,7.09Zm-24.58-28.38l-12.29,7.09-24.58-14.19,12.29-7.09,24.58,14.19Zm-49.15-14.19l12.29,7.09-36.86,21.28,24.58,14.19,36.86-21.28,12.29,7.09-12.29,7.09,12.29,7.09-12.29,7.09-12.29-7.09-12.29,7.09,36.86,21.28-12.29,7.09-86.01-49.66,49.15-28.38v.03Z"/>
    <path class="cls-25" d="m369.92,400.63l-12.29,7.09-12.29-7.09,12.29-7.09,12.29,7.09Zm-24.58,0l-12.29,7.09-12.29-7.09,12.29-7.09,12.29,7.09Zm-24.58-28.38l-12.29,7.09-24.58-14.19,12.29-7.09,24.58,14.19Zm-49.15-14.19l12.29,7.09-36.86,21.28,24.58,14.19,36.86-21.28,12.29,7.09-12.29,7.09,12.29,7.09-12.29,7.09-12.29-7.09-12.29,7.09,36.86,21.28-12.29,7.09-86.01-49.66,49.15-28.38v.03Z"/>
    <path class="cls-20" d="m369.92,400.31l-12.29,7.09-12.29-7.09,12.29-7.09,12.29,7.09Zm-24.58,0l-12.29,7.09-12.29-7.09,12.29-7.09,12.29,7.09Zm-24.58-28.38l-12.29,7.09-24.58-14.19,12.29-7.09,24.58,14.19Zm-49.15-14.19l12.29,7.09-36.86,21.28,24.58,14.19,36.86-21.28,12.29,7.09-12.29,7.09,12.29,7.09-12.29,7.09-12.29-7.09-12.29,7.09,36.86,21.28-12.29,7.09-86.01-49.66,49.15-28.38v.03Z"/>
    <path class="cls-29" d="m369.92,399.99l-12.29,7.09-12.29-7.09,12.29-7.09,12.29,7.09Zm-24.58,0l-12.29,7.09-12.29-7.09,12.29-7.09,12.29,7.09Zm-24.58-28.38l-12.29,7.09-24.58-14.19,12.29-7.09,24.58,14.19Zm-49.15-14.19l12.29,7.09-36.86,21.28,24.58,14.19,36.86-21.28,12.29,7.09-12.29,7.09,12.29,7.09-12.29,7.09-12.29-7.09-12.29,7.09,36.86,21.28-12.29,7.09-86.01-49.66,49.15-28.38v.03Z"/>
    <path class="cls-24" d="m369.92,399.68l-12.29,7.09-12.29-7.09,12.29-7.09,12.29,7.09Zm-24.58,0l-12.29,7.09-12.29-7.09,12.29-7.09,12.29,7.09Zm-24.58-28.38l-12.29,7.09-24.58-14.19,12.29-7.09,24.58,14.19Zm-49.15-14.19l12.29,7.09-36.86,21.28,24.58,14.19,36.86-21.28,12.29,7.09-12.29,7.09,12.29,7.09-12.29,7.09-12.29-7.09-12.29,7.09,36.86,21.28-12.29,7.09-86.01-49.66,49.15-28.38v.03Z"/>
    <path class="cls-73" d="m369.92,399.36l-12.29,7.09-12.29-7.09,12.29-7.09,12.29,7.09Zm-24.58,0l-12.29,7.09-12.29-7.09,12.29-7.09,12.29,7.09Zm-24.58-28.38l-12.29,7.09-24.58-14.19,12.29-7.09,24.58,14.19Zm-49.15-14.19l12.29,7.09-36.86,21.28,24.58,14.19,36.86-21.28,12.29,7.09-12.29,7.09,12.29,7.09-12.29,7.09-12.29-7.09-12.29,7.09,36.86,21.28-12.29,7.09-86.01-49.66,49.15-28.38v.03Z"/>
    <path class="cls-74" d="m369.92,399.04l-12.29,7.09-12.29-7.09,12.29-7.09,12.29,7.09Zm-24.58,0l-12.29,7.09-12.29-7.09,12.29-7.09,12.29,7.09Zm-24.58-28.38l-12.29,7.09-24.58-14.19,12.29-7.09,24.58,14.19Zm-49.15-14.19l12.29,7.09-36.86,21.28,24.58,14.19,36.86-21.28,12.29,7.09-12.29,7.09,12.29,7.09-12.29,7.09-12.29-7.09-12.29,7.09,36.86,21.28-12.29,7.09-86.01-49.66,49.15-28.38v.03Z"/>
    <path class="cls-27" d="m369.92,398.72l-12.29,7.09-12.29-7.09,12.29-7.09,12.29,7.09Zm-24.58,0l-12.29,7.09-12.29-7.09,12.29-7.09,12.29,7.09Zm-24.58-28.38l-12.29,7.09-24.58-14.19,12.29-7.09,24.58,14.19Zm-49.15-14.19l12.29,7.09-36.86,21.28,24.58,14.19,36.86-21.28,12.29,7.09-12.29,7.09,12.29,7.09-12.29,7.09-12.29-7.09-12.29,7.09,36.86,21.28-12.29,7.09-86.01-49.66,49.15-28.38v.03Z"/>
    <path class="cls-17" d="m369.92,398.4l-12.29,7.09-12.29-7.09,12.29-7.09,12.29,7.09Zm-24.58,0l-12.29,7.09-12.29-7.09,12.29-7.09,12.29,7.09Zm-24.58-28.38l-12.29,7.09-24.58-14.19,12.29-7.09,24.58,14.19Zm-49.15-14.19l12.29,7.09-36.86,21.28,24.58,14.19,36.86-21.28,12.29,7.09-12.29,7.09,12.29,7.09-12.29,7.09-12.29-7.09-12.29,7.09,36.86,21.28-12.29,7.09-86.01-49.66,49.15-28.38v.03Z"/>
    <path class="cls-72" d="m369.92,398.08l-12.29,7.09-12.29-7.09,12.29-7.09,12.29,7.09Zm-24.58,0l-12.29,7.09-12.29-7.09,12.29-7.09,12.29,7.09Zm-24.58-28.38l-12.29,7.09-24.58-14.19,12.29-7.09,24.58,14.19Zm-49.15-14.19l12.29,7.09-36.86,21.28,24.58,14.19,36.86-21.28,12.29,7.09-12.29,7.09,12.29,7.09-12.29,7.09-12.29-7.09-12.29,7.09,36.86,21.28-12.29,7.09-86.01-49.66,49.15-28.38v.03Z"/>
    <path class="cls-69" d="m369.92,397.77l-12.29,7.09-12.29-7.09,12.29-7.09,12.29,7.09Zm-24.58,0l-12.29,7.09-12.29-7.09,12.29-7.09,12.29,7.09Zm-24.58-28.38l-12.29,7.09-24.58-14.19,12.29-7.09,24.58,14.19Zm-49.15-14.19l12.29,7.09-36.86,21.28,24.58,14.19,36.86-21.28,12.29,7.09-12.29,7.09,12.29,7.09-12.29,7.09-12.29-7.09-12.29,7.09,36.86,21.28-12.29,7.09-86.01-49.66,49.15-28.38v.03Z"/>
    <path class="cls-12" d="m369.92,397.45l-12.29,7.09-12.29-7.09,12.29-7.09,12.29,7.09Zm-24.58,0l-12.29,7.09-12.29-7.09,12.29-7.09,12.29,7.09Zm-24.58-28.38l-12.29,7.09-24.58-14.19,12.29-7.09,24.58,14.19Zm-49.15-14.19l12.29,7.09-36.86,21.28,24.58,14.19,36.86-21.28,12.29,7.09-12.29,7.09,12.29,7.09-12.29,7.09-12.29-7.09-12.29,7.09,36.86,21.28-12.29,7.09-86.01-49.66,49.15-28.38v.03Z"/>
    <path class="cls-56" d="m369.92,397.13l-12.29,7.09-12.29-7.09,12.29-7.09,12.29,7.09Zm-24.58,0l-12.29,7.09-12.29-7.09,12.29-7.09,12.29,7.09Zm-24.58-28.38l-12.29,7.09-24.58-14.19,12.29-7.09,24.58,14.19Zm-49.15-14.19l12.29,7.09-36.86,21.28,24.58,14.19,36.86-21.28,12.29,7.09-12.29,7.09,12.29,7.09-12.29,7.09-12.29-7.09-12.29,7.09,36.86,21.28-12.29,7.09-86.01-49.66,49.15-28.38v.03Z"/>
    <path class="cls-33" d="m369.92,396.81l-12.29,7.09-12.29-7.09,12.29-7.09,12.29,7.09Zm-24.58,0l-12.29,7.09-12.29-7.09,12.29-7.09,12.29,7.09Zm-24.58-28.38l-12.29,7.09-24.58-14.19,12.29-7.09,24.58,14.19Zm-49.15-14.19l12.29,7.09-36.86,21.28,24.58,14.19,36.86-21.28,12.29,7.09-12.29,7.09,12.29,7.09-12.29,7.09-12.29-7.09-12.29,7.09,36.86,21.28-12.29,7.09-86.01-49.66,49.15-28.38v.03Z"/>
    <path class="cls-53" d="m369.92,396.49l-12.29,7.09-12.29-7.09,12.29-7.09,12.29,7.09Zm-24.58,0l-12.29,7.09-12.29-7.09,12.29-7.09,12.29,7.09Zm-24.58-28.38l-12.29,7.09-24.58-14.19,12.29-7.09,24.58,14.19Zm-49.15-14.19l12.29,7.09-36.86,21.28,24.58,14.19,36.86-21.28,12.29,7.09-12.29,7.09,12.29,7.09-12.29,7.09-12.29-7.09-12.29,7.09,36.86,21.28-12.29,7.09-86.01-49.66,49.15-28.38v.03Z"/>
    <path class="cls-76" d="m369.92,396.17l-12.29,7.09-12.29-7.09,12.29-7.09,12.29,7.09Zm-24.58,0l-12.29,7.09-12.29-7.09,12.29-7.09,12.29,7.09Zm-24.58-28.38l-12.29,7.09-24.58-14.19,12.29-7.09,24.58,14.19Zm-49.15-14.19l12.29,7.09-36.86,21.28,24.58,14.19,36.86-21.28,12.29,7.09-12.29,7.09,12.29,7.09-12.29,7.09-12.29-7.09-12.29,7.09,36.86,21.28-12.29,7.09-86.01-49.66,49.15-28.38v.03Z"/>
    <path class="cls-55" d="m369.92,395.86l-12.29,7.09-12.29-7.09,12.29-7.09,12.29,7.09Zm-24.58,0l-12.29,7.09-12.29-7.09,12.29-7.09,12.29,7.09Zm-24.58-28.38l-12.29,7.09-24.58-14.19,12.29-7.09,24.58,14.19Zm-49.15-14.19l12.29,7.09-36.86,21.28,24.58,14.19,36.86-21.28,12.29,7.09-12.29,7.09,12.29,7.09-12.29,7.09-12.29-7.09-12.29,7.09,36.86,21.28-12.29,7.09-86.01-49.66,49.15-28.38v.03Z"/>
    <path class="cls-37" d="m369.92,395.54l-12.29,7.09-12.29-7.09,12.29-7.09,12.29,7.09Zm-24.58,0l-12.29,7.09-12.29-7.09,12.29-7.09,12.29,7.09Zm-24.58-28.38l-12.29,7.09-24.58-14.19,12.29-7.09,24.58,14.19Zm-49.15-14.19l12.29,7.09-36.86,21.28,24.58,14.19,36.86-21.28,12.29,7.09-12.29,7.09,12.29,7.09-12.29,7.09-12.29-7.09-12.29,7.09,36.86,21.28-12.29,7.09-86.01-49.66,49.15-28.38v.03Z"/>
    <path class="cls-10" d="m369.92,395.22l-12.29,7.09-12.29-7.09,12.29-7.09,12.29,7.09Zm-24.58,0l-12.29,7.09-12.29-7.09,12.29-7.09,12.29,7.09Zm-24.58-28.38l-12.29,7.09-24.58-14.19,12.29-7.09,24.58,14.19Zm-49.15-14.19l12.29,7.09-36.86,21.28,24.58,14.19,36.86-21.28,12.29,7.09-12.29,7.09,12.29,7.09-12.29,7.09-12.29-7.09-12.29,7.09,36.86,21.28-12.29,7.09-86.01-49.66,49.15-28.38v.03Z"/>
    <path class="cls-54" d="m369.92,394.9l-12.29,7.09-12.29-7.09,12.29-7.09,12.29,7.09Zm-24.58,0l-12.29,7.09-12.29-7.09,12.29-7.09,12.29,7.09Zm-24.58-28.38l-12.29,7.09-24.58-14.19,12.29-7.09,24.58,14.19Zm-49.15-14.19l12.29,7.09-36.86,21.28,24.58,14.19,36.86-21.28,12.29,7.09-12.29,7.09,12.29,7.09-12.29,7.09-12.29-7.09-12.29,7.09,36.86,21.28-12.29,7.09-86.01-49.66,49.15-28.38v.03Z"/>
    <path class="cls-45" d="m369.92,394.58l-12.29,7.09-12.29-7.09,12.29-7.09,12.29,7.09Zm-24.58,0l-12.29,7.09-12.29-7.09,12.29-7.09,12.29,7.09Zm-24.58-28.38l-12.29,7.09-24.58-14.19,12.29-7.09,24.58,14.19Zm-49.15-14.19l12.29,7.09-36.86,21.28,24.58,14.19,36.86-21.28,12.29,7.09-12.29,7.09,12.29,7.09-12.29,7.09-12.29-7.09-12.29,7.09,36.86,21.28-12.29,7.09-86.01-49.66,49.15-28.38v.03Z"/>
    <path class="cls-32" d="m369.92,394.26l-12.29,7.09-12.29-7.09,12.29-7.09,12.29,7.09Zm-24.58,0l-12.29,7.09-12.29-7.09,12.29-7.09,12.29,7.09Zm-24.58-28.38l-12.29,7.09-24.58-14.19,12.29-7.09,24.58,14.19Zm-49.15-14.19l12.29,7.09-36.86,21.28,24.58,14.19,36.86-21.28,12.29,7.09-12.29,7.09,12.29,7.09-12.29,7.09-12.29-7.09-12.29,7.09,36.86,21.28-12.29,7.09-86.01-49.66,49.15-28.38v.03Z"/>
    <path class="cls-6" d="m369.92,393.95l-12.29,7.09-12.29-7.09,12.29-7.09,12.29,7.09Zm-24.58,0l-12.29,7.09-12.29-7.09,12.29-7.09,12.29,7.09Zm-24.58-28.38l-12.29,7.09-24.58-14.19,12.29-7.09,24.58,14.19Zm-49.15-13.19l12.29,7.09-36.86,21.28,24.58,14.19,36.86-21.28,12.29,7.09-12.29,7.09,12.29,7.09-12.29,7.09-12.29-7.09-12.29,7.09,36.86,21.28-12.29,7.09-86.01-49.66,49.15-28.38v.03Z"/>
  </g>
  <g>
    <path class="cls-22" d="m369.9,309.86l-14.75,8.51-14.75-8.51,14.75-8.51,14.75,8.51Zm0-17.03l-14.75,8.51-44.24-25.54,14.75-8.51,44.24,25.54h0Zm-103.22-25.54l14.75,8.51-29.5,17.03,73.74,42.57,29.5-17.03,14.75,8.51-44.24,25.54-103.22-59.6,44.24-25.54h-.01Zm44.24,8.51l-14.75,8.51-14.75-8.51,14.75-8.51,14.75,8.51Z"/>
    <path class="cls-3" d="m369.9,309.5l-14.75,8.51-14.75-8.51,14.75-8.51,14.75,8.51Zm0-17.03l-14.75,8.51-44.24-25.54,14.75-8.51,44.24,25.54h0Zm-103.22-25.54l14.75,8.51-29.5,17.03,73.74,42.57,29.5-17.03,14.75,8.51-44.24,25.54-103.22-59.6,44.24-25.54h-.01Zm44.24,8.51l-14.75,8.51-14.75-8.51,14.75-8.51,14.75,8.51Z"/>
    <path class="cls-36" d="m369.9,309.14l-14.75,8.51-14.75-8.51,14.75-8.51,14.75,8.51Zm0-17.03l-14.75,8.51-44.24-25.54,14.75-8.51,44.24,25.54h0Zm-103.22-25.54l14.75,8.51-29.5,17.03,73.74,42.57,29.5-17.03,14.75,8.51-44.24,25.54-103.22-59.6,44.24-25.54h-.01Zm44.24,8.51l-14.75,8.51-14.75-8.51,14.75-8.51,14.75,8.51Z"/>
    <path class="cls-8" d="m369.9,308.78l-14.75,8.51-14.75-8.51,14.75-8.51,14.75,8.51Zm0-17.03l-14.75,8.51-44.24-25.54,14.75-8.51,44.24,25.54h0Zm-103.22-25.54l14.75,8.51-29.5,17.03,73.74,42.57,29.5-17.03,14.75,8.51-44.24,25.54-103.22-59.6,44.24-25.54h-.01Zm44.24,8.51l-14.75,8.51-14.75-8.51,14.75-8.51,14.75,8.51Z"/>
    <path class="cls-77" d="m369.9,308.42l-14.75,8.51-14.75-8.51,14.75-8.51,14.75,8.51Zm0-17.03l-14.75,8.51-44.24-25.54,14.75-8.51,44.24,25.54h0Zm-103.22-25.54l14.75,8.51-29.5,17.03,73.74,42.57,29.5-17.03,14.75,8.51-44.24,25.54-103.22-59.6,44.24-25.54h-.01Zm44.24,8.51l-14.75,8.51-14.75-8.51,14.75-8.51,14.75,8.51Z"/>
    <path class="cls-19" d="m369.9,308.06l-14.75,8.51-14.75-8.51,14.75-8.51,14.75,8.51Zm0-17.03l-14.75,8.51-44.24-25.54,14.75-8.51,44.24,25.54h0Zm-103.22-25.54l14.75,8.51-29.5,17.03,73.74,42.57,29.5-17.03,14.75,8.51-44.24,25.54-103.22-59.6,44.24-25.54h-.01Zm44.24,8.51l-14.75,8.51-14.75-8.51,14.75-8.51,14.75,8.51Z"/>
    <path class="cls-52" d="m369.9,307.7l-14.75,8.51-14.75-8.51,14.75-8.51,14.75,8.51Zm0-17.03l-14.75,8.51-44.24-25.54,14.75-8.51,44.24,25.54h0Zm-103.22-25.54l14.75,8.51-29.5,17.03,73.74,42.57,29.5-17.03,14.75,8.51-44.24,25.54-103.22-59.6,44.24-25.54h-.01Zm44.24,8.51l-14.75,8.51-14.75-8.51,14.75-8.51,14.75,8.51Z"/>
    <path class="cls-68" d="m369.9,307.34l-14.75,8.51-14.75-8.51,14.75-8.51,14.75,8.51Zm0-17.03l-14.75,8.51-44.24-25.54,14.75-8.51,44.24,25.54h0Zm-103.22-25.54l14.75,8.51-29.5,17.03,73.74,42.57,29.5-17.03,14.75,8.51-44.24,25.54-103.22-59.6,44.24-25.54h-.01Zm44.24,8.51l-14.75,8.51-14.75-8.51,14.75-8.51,14.75,8.51Z"/>
    <path class="cls-4" d="m369.9,306.98l-14.75,8.51-14.75-8.51,14.75-8.51,14.75,8.51Zm0-17.03l-14.75,8.51-44.24-25.54,14.75-8.51,44.24,25.54h0Zm-103.22-25.54l14.75,8.51-29.5,17.03,73.74,42.57,29.5-17.03,14.75,8.51-44.24,25.54-103.22-59.6,44.24-25.54h-.01Zm44.24,8.51l-14.75,8.51-14.75-8.51,14.75-8.51,14.75,8.51Z"/>
    <path class="cls-57" d="m369.9,306.61l-14.75,8.51-14.75-8.51,14.75-8.51,14.75,8.51Zm0-17.03l-14.75,8.51-44.24-25.54,14.75-8.51,44.24,25.54h0Zm-103.22-25.54l14.75,8.51-29.5,17.03,73.74,42.57,29.5-17.03,14.75,8.51-44.24,25.54-103.22-59.6,44.24-25.54h-.01Zm44.24,8.51l-14.75,8.51-14.75-8.51,14.75-8.51,14.75,8.51Z"/>
    <path class="cls-50" d="m369.9,306.25l-14.75,8.51-14.75-8.51,14.75-8.51,14.75,8.51Zm0-17.03l-14.75,8.51-44.24-25.54,14.75-8.51,44.24,25.54h0Zm-103.22-25.54l14.75,8.51-29.5,17.03,73.74,42.57,29.5-17.03,14.75,8.51-44.24,25.54-103.22-59.6,44.24-25.54h-.01Zm44.24,8.51l-14.75,8.51-14.75-8.51,14.75-8.51,14.75,8.51Z"/>
    <path class="cls-14" d="m369.9,305.89l-14.75,8.51-14.75-8.51,14.75-8.51,14.75,8.51Zm0-17.03l-14.75,8.51-44.24-25.54,14.75-8.51,44.24,25.54h0Zm-103.22-25.54l14.75,8.51-29.5,17.03,73.74,42.57,29.5-17.03,14.75,8.51-44.24,25.54-103.22-59.6,44.24-25.54h-.01Zm44.24,8.51l-14.75,8.51-14.75-8.51,14.75-8.51,14.75,8.51Z"/>
    <path class="cls-34" d="m369.9,305.53l-14.75,8.51-14.75-8.51,14.75-8.51,14.75,8.51Zm0-17.03l-14.75,8.51-44.24-25.54,14.75-8.51,44.24,25.54h0Zm-103.22-25.54l14.75,8.51-29.5,17.03,73.74,42.57,29.5-17.03,14.75,8.51-44.24,25.54-103.22-59.6,44.24-25.54h-.01Zm44.24,8.51l-14.75,8.51-14.75-8.51,14.75-8.51,14.75,8.51Z"/>
    <path class="cls-44" d="m369.9,305.17l-14.75,8.51-14.75-8.51,14.75-8.51,14.75,8.51Zm0-17.03l-14.75,8.51-44.24-25.54,14.75-8.51,44.24,25.54h0Zm-103.22-25.54l14.75,8.51-29.5,17.03,73.74,42.57,29.5-17.03,14.75,8.51-44.24,25.54-103.22-59.6,44.24-25.54h-.01Zm44.24,8.51l-14.75,8.51-14.75-8.51,14.75-8.51,14.75,8.51Z"/>
    <path class="cls-5" d="m369.9,304.81l-14.75,8.51-14.75-8.51,14.75-8.51,14.75,8.51Zm0-17.03l-14.75,8.51-44.24-25.54,14.75-8.51,44.24,25.54h0Zm-103.22-25.54l14.75,8.51-29.5,17.03,73.74,42.57,29.5-17.03,14.75,8.51-44.24,25.54-103.22-59.6,44.24-25.54h-.01Zm44.24,8.51l-14.75,8.51-14.75-8.51,14.75-8.51,14.75,8.51Z"/>
    <path class="cls-15" d="m369.9,304.45l-14.75,8.51-14.75-8.51,14.75-8.51,14.75,8.51Zm0-17.03l-14.75,8.51-44.24-25.54,14.75-8.51,44.24,25.54h0Zm-103.22-25.54l14.75,8.51-29.5,17.03,73.74,42.57,29.5-17.03,14.75,8.51-44.24,25.54-103.22-59.6,44.24-25.54h-.01Zm44.24,8.51l-14.75,8.51-14.75-8.51,14.75-8.51,14.75,8.51Z"/>
    <path class="cls-48" d="m369.9,304.09l-14.75,8.51-14.75-8.51,14.75-8.51,14.75,8.51Zm0-17.03l-14.75,8.51-44.24-25.54,14.75-8.51,44.24,25.54h0Zm-103.22-25.54l14.75,8.51-29.5,17.03,73.74,42.57,29.5-17.03,14.75,8.51-44.24,25.54-103.22-59.6,44.24-25.54h-.01Zm44.24,8.51l-14.75,8.51-14.75-8.51,14.75-8.51,14.75,8.51Z"/>
    <path class="cls-30" d="m369.9,303.73l-14.75,8.51-14.75-8.51,14.75-8.51,14.75,8.51Zm0-17.03l-14.75,8.51-44.24-25.54,14.75-8.51,44.24,25.54h0Zm-103.22-25.54l14.75,8.51-29.5,17.03,73.74,42.57,29.5-17.03,14.75,8.51-44.24,25.54-103.22-59.6,44.24-25.54h-.01Zm44.24,8.51l-14.75,8.51-14.75-8.51,14.75-8.51,14.75,8.51Z"/>
    <path class="cls-16" d="m369.9,303.37l-14.75,8.51-14.75-8.51,14.75-8.51,14.75,8.51Zm0-17.03l-14.75,8.51-44.24-25.54,14.75-8.51,44.24,25.54h0Zm-103.22-25.54l14.75,8.51-29.5,17.03,73.74,42.57,29.5-17.03,14.75,8.51-44.24,25.54-103.22-59.6,44.24-25.54h-.01Zm44.24,8.51l-14.75,8.51-14.75-8.51,14.75-8.51,14.75,8.51Z"/>
    <path class="cls-7" d="m369.9,303l-14.75,8.51-14.75-8.51,14.75-8.51,14.75,8.51Zm0-17.03l-14.75,8.51-44.24-25.54,14.75-8.51,44.24,25.54h0Zm-103.22-25.54l14.75,8.51-29.5,17.03,73.74,42.57,29.5-17.03,14.75,8.51-44.24,25.54-103.22-59.6,44.24-25.54h-.01Zm44.24,8.51l-14.75,8.51-14.75-8.51,14.75-8.51,14.75,8.51Z"/>
    <path class="cls-47" d="m369.9,302.64l-14.75,8.51-14.75-8.51,14.75-8.51,14.75,8.51Zm0-17.03l-14.75,8.51-44.24-25.54,14.75-8.51,44.24,25.54h0Zm-103.22-25.54l14.75,8.51-29.5,17.03,73.74,42.57,29.5-17.03,14.75,8.51-44.24,25.54-103.22-59.6,44.24-25.54h-.01Zm44.24,8.51l-14.75,8.51-14.75-8.51,14.75-8.51,14.75,8.51Z"/>
    <path class="cls-46" d="m369.9,302.28l-14.75,8.51-14.75-8.51,14.75-8.51,14.75,8.51Zm0-17.03l-14.75,8.51-44.24-25.54,14.75-8.51,44.24,25.54h0Zm-103.22-25.54l14.75,8.51-29.5,17.03,73.74,42.57,29.5-17.03,14.75,8.51-44.24,25.54-103.22-59.6,44.24-25.54h-.01Zm44.24,8.51l-14.75,8.51-14.75-8.51,14.75-8.51,14.75,8.51Z"/>
    <path class="cls-58" d="m369.9,301.92l-14.75,8.51-14.75-8.51,14.75-8.51,14.75,8.51Zm0-17.03l-14.75,8.51-44.24-25.54,14.75-8.51,44.24,25.54h0Zm-103.22-25.54l14.75,8.51-29.5,17.03,73.74,42.57,29.5-17.03,14.75,8.51-44.24,25.54-103.22-59.6,44.24-25.54h-.01Zm44.24,8.51l-14.75,8.51-14.75-8.51,14.75-8.51,14.75,8.51Z"/>
    <path class="cls-23" d="m369.9,301.56l-14.75,8.51-14.75-8.51,14.75-8.51,14.75,8.51Zm0-17.03l-14.75,8.51-44.24-25.54,14.75-8.51,44.24,25.54h0Zm-103.22-25.54l14.75,8.51-29.5,17.03,73.74,42.57,29.5-17.03,14.75,8.51-44.24,25.54-103.22-59.6,44.24-25.54h-.01Zm44.24,8.51l-14.75,8.51-14.75-8.51,14.75-8.51,14.75,8.51Z"/>
    <path class="cls-9" d="m369.9,301.2l-14.75,8.51-14.75-8.51,14.75-8.51,14.75,8.51Zm0-17.03l-14.75,8.51-44.24-25.54,14.75-8.51,44.24,25.54h0Zm-103.22-25.54l14.75,8.51-29.5,17.03,73.74,42.57,29.5-17.03,14.75,8.51-44.24,25.54-103.22-59.6,44.24-25.54h-.01Zm44.24,8.51l-14.75,8.51-14.75-8.51,14.75-8.51,14.75,8.51Z"/>
    <path class="cls-39" d="m369.9,300.84l-14.75,8.51-14.75-8.51,14.75-8.51,14.75,8.51Zm0-17.03l-14.75,8.51-44.24-25.54,14.75-8.51,44.24,25.54h0Zm-103.22-25.54l14.75,8.51-29.5,17.03,73.74,42.57,29.5-17.03,14.75,8.51-44.24,25.54-103.22-59.6,44.24-25.54h-.01Zm44.24,8.51l-14.75,8.51-14.75-8.51,14.75-8.51,14.75,8.51Z"/>
    <path class="cls-38" d="m369.9,300.48l-14.75,8.51-14.75-8.51,14.75-8.51,14.75,8.51Zm0-17.03l-14.75,8.51-44.24-25.54,14.75-8.51,44.24,25.54h0Zm-103.22-25.54l14.75,8.51-29.5,17.03,73.74,42.57,29.5-17.03,14.75,8.51-44.24,25.54-103.22-59.6,44.24-25.54h-.01Zm44.24,8.51l-14.75,8.51-14.75-8.51,14.75-8.51,14.75,8.51Z"/>
    <path class="cls-35" d="m369.9,300.12l-14.75,8.51-14.75-8.51,14.75-8.51,14.75,8.51Zm0-17.03l-14.75,8.51-44.24-25.54,14.75-8.51,44.24,25.54h0Zm-103.22-25.54l14.75,8.51-29.5,17.03,73.74,42.57,29.5-17.03,14.75,8.51-44.24,25.54-103.22-59.6,44.24-25.54h-.01Zm44.24,8.51l-14.75,8.51-14.75-8.51,14.75-8.51,14.75,8.51Z"/>
    <path class="cls-61" d="m369.9,299.76l-14.75,8.51-14.75-8.51,14.75-8.51,14.75,8.51Zm0-17.03l-14.75,8.51-44.24-25.54,14.75-8.51,44.24,25.54h0Zm-103.22-25.54l14.75,8.51-29.5,17.03,73.74,42.57,29.5-17.03,14.75,8.51-44.24,25.54-103.22-59.6,44.24-25.54h-.01Zm44.24,8.51l-14.75,8.51-14.75-8.51,14.75-8.51,14.75,8.51Z"/>
    <path class="cls-28" d="m369.9,299.38l-14.75,8.51-14.75-8.51,14.75-8.51,14.75,8.51Zm0-17.03l-14.75,8.51-44.24-25.54,14.75-8.51,44.24,25.54h0Zm-103.22-25.54l14.75,8.51-29.5,17.03,73.74,42.57,29.5-17.03,14.75,8.51-44.24,25.54-103.22-59.6,44.24-25.54h-.01Zm44.24,8.51l-14.75,8.51-14.75-8.51,14.75-8.51,14.75,8.51Z"/>
    <path class="cls-11" d="m369.9,299.02l-14.75,8.51-14.75-8.51,14.75-8.51,14.75,8.51Zm0-17.03l-14.75,8.51-44.24-25.54,14.75-8.51,44.24,25.54h0Zm-103.22-25.54l14.75,8.51-29.5,17.03,73.74,42.57,29.5-17.03,14.75,8.51-44.24,25.54-103.22-59.6,44.24-25.54h-.01Zm44.24,8.51l-14.75,8.51-14.75-8.51,14.75-8.51,14.75,8.51Z"/>
    <path class="cls-60" d="m369.9,298.66l-14.75,8.51-14.75-8.51,14.75-8.51,14.75,8.51Zm0-17.03l-14.75,8.51-44.24-25.54,14.75-8.51,44.24,25.54h0Zm-103.22-25.54l14.75,8.51-29.5,17.03,73.74,42.57,29.5-17.03,14.75,8.51-44.24,25.54-103.22-59.6,44.24-25.54h-.01Zm44.24,8.51l-14.75,8.51-14.75-8.51,14.75-8.51,14.75,8.51Z"/>
    <path class="cls-51" d="m369.9,298.3l-14.75,8.51-14.75-8.51,14.75-8.51,14.75,8.51Zm0-17.03l-14.75,8.51-44.24-25.54,14.75-8.51,44.24,25.54h0Zm-103.22-25.54l14.75,8.51-29.5,17.03,73.74,42.57,29.5-17.03,14.75,8.51-44.24,25.54-103.22-59.6,44.24-25.54h-.01Zm44.24,8.51l-14.75,8.51-14.75-8.51,14.75-8.51,14.75,8.51Z"/>
    <path class="cls-43" d="m369.9,297.94l-14.75,8.51-14.75-8.51,14.75-8.51,14.75,8.51Zm0-17.03l-14.75,8.51-44.24-25.54,14.75-8.51,44.24,25.54h0Zm-103.22-25.54l14.75,8.51-29.5,17.03,73.74,42.57,29.5-17.03,14.75,8.51-44.24,25.54-103.22-59.6,44.24-25.54h-.01Zm44.24,8.51l-14.75,8.51-14.75-8.51,14.75-8.51,14.75,8.51Z"/>
    <path class="cls-21" d="m369.9,297.58l-14.75,8.51-14.75-8.51,14.75-8.51,14.75,8.51Zm0-17.03l-14.75,8.51-44.24-25.54,14.75-8.51,44.24,25.54h0Zm-103.22-25.54l14.75,8.51-29.5,17.03,73.74,42.57,29.5-17.03,14.75,8.51-44.24,25.54-103.22-59.6,44.24-25.54h-.01Zm44.24,8.51l-14.75,8.51-14.75-8.51,14.75-8.51,14.75,8.51Z"/>
    <path class="cls-42" d="m369.9,297.22l-14.75,8.51-14.75-8.51,14.75-8.51,14.75,8.51Zm0-17.03l-14.75,8.51-44.24-25.54,14.75-8.51,44.24,25.54h0Zm-103.22-25.54l14.75,8.51-29.5,17.03,73.74,42.57,29.5-17.03,14.75,8.51-44.24,25.54-103.22-59.6,44.24-25.54h-.01Zm44.24,8.51l-14.75,8.51-14.75-8.51,14.75-8.51,14.75,8.51Z"/>
    <path class="cls-66" d="m369.9,296.86l-14.75,8.51-14.75-8.51,14.75-8.51,14.75,8.51Zm0-17.03l-14.75,8.51-44.24-25.54,14.75-8.51,44.24,25.54h0Zm-103.22-25.54l14.75,8.51-29.5,17.03,73.74,42.57,29.5-17.03,14.75,8.51-44.24,25.54-103.22-59.6,44.24-25.54h-.01Zm44.24,8.51l-14.75,8.51-14.75-8.51,14.75-8.51,14.75,8.51Z"/>
    <path class="cls-1" d="m369.9,296.5l-14.75,8.51-14.75-8.51,14.75-8.51,14.75,8.51Zm0-17.03l-14.75,8.51-44.24-25.54,14.75-8.51,44.24,25.54h0Zm-103.22-25.54l14.75,8.51-29.5,17.03,73.74,42.57,29.5-17.03,14.75,8.51-44.24,25.54-103.22-59.6,44.24-25.54h-.01Zm44.24,8.51l-14.75,8.51-14.75-8.51,14.75-8.51,14.75,8.51Z"/>
    <path class="cls-65" d="m369.9,296.14l-14.75,8.51-14.75-8.51,14.75-8.51,14.75,8.51Zm0-17.03l-14.75,8.51-44.24-25.54,14.75-8.51,44.24,25.54h0Zm-103.22-25.54l14.75,8.51-29.5,17.03,73.74,42.57,29.5-17.03,14.75,8.51-44.24,25.54-103.22-59.6,44.24-25.54h-.01Zm44.24,8.51l-14.75,8.51-14.75-8.51,14.75-8.51,14.75,8.51Z"/>
    <path class="cls-64" d="m369.9,295.77l-14.75,8.51-14.75-8.51,14.75-8.51,14.75,8.51Zm0-17.03l-14.75,8.51-44.24-25.54,14.75-8.51,44.24,25.54h0Zm-103.22-25.54l14.75,8.51-29.5,17.03,73.74,42.57,29.5-17.03,14.75,8.51-44.24,25.54-103.22-59.6,44.24-25.54h-.01Zm44.24,8.51l-14.75,8.51-14.75-8.51,14.75-8.51,14.75,8.51Z"/>
    <path class="cls-64" d="m369.9,295.41l-14.75,8.51-14.75-8.51,14.75-8.51,14.75,8.51Zm0-17.03l-14.75,8.51-44.24-25.54,14.75-8.51,44.24,25.54h0Zm-103.22-25.54l14.75,8.51-29.5,17.03,73.74,42.57,29.5-17.03,14.75,8.51-44.24,25.54-103.22-59.6,44.24-25.54h-.01Zm44.24,8.51l-14.75,8.51-14.75-8.51,14.75-8.51,14.75,8.51Z"/>
    <path class="cls-31" d="m369.9,295.05l-14.75,8.51-14.75-8.51,14.75-8.51,14.75,8.51Zm0-17.03l-14.75,8.51-44.24-25.54,14.75-8.51,44.24,25.54h0Zm-103.22-25.54l14.75,8.51-29.5,17.03,73.74,42.57,29.5-17.03,14.75,8.51-44.24,25.54-103.22-59.6,44.24-25.54h-.01Zm44.24,8.51l-14.75,8.51-14.75-8.51,14.75-8.51,14.75,8.51Z"/>
    <path class="cls-75" d="m369.9,294.69l-14.75,8.51-14.75-8.51,14.75-8.51,14.75,8.51Zm0-17.03l-14.75,8.51-44.24-25.54,14.75-8.51,44.24,25.54h0Zm-103.22-25.54l14.75,8.51-29.5,17.03,73.74,42.57,29.5-17.03,14.75,8.51-44.24,25.54-103.22-59.6,44.24-25.54h-.01Zm44.24,8.51l-14.75,8.51-14.75-8.51,14.75-8.51,14.75,8.51Z"/>
    <path class="cls-67" d="m369.9,294.33l-14.75,8.51-14.75-8.51,14.75-8.51,14.75,8.51Zm0-17.03l-14.75,8.51-44.24-25.54,14.75-8.51,44.24,25.54h0Zm-103.22-25.54l14.75,8.51-29.5,17.03,73.74,42.57,29.5-17.03,14.75,8.51-44.24,25.54-103.22-59.6,44.24-25.54h-.01Zm44.24,8.51l-14.75,8.51-14.75-8.51,14.75-8.51,14.75,8.51Z"/>
    <path class="cls-71" d="m369.9,293.97l-14.75,8.51-14.75-8.51,14.75-8.51,14.75,8.51Zm0-17.03l-14.75,8.51-44.24-25.54,14.75-8.51,44.24,25.54h0Zm-103.22-25.54l14.75,8.51-29.5,17.03,73.74,42.57,29.5-17.03,14.75,8.51-44.24,25.54-103.22-59.6,44.24-25.54h-.01Zm44.24,8.51l-14.75,8.51-14.75-8.51,14.75-8.51,14.75,8.51Z"/>
    <path class="cls-49" d="m369.9,293.61l-14.75,8.51-14.75-8.51,14.75-8.51,14.75,8.51Zm0-17.03l-14.75,8.51-44.24-25.54,14.75-8.51,44.24,25.54h0Zm-103.22-25.54l14.75,8.51-29.5,17.03,73.74,42.57,29.5-17.03,14.75,8.51-44.24,25.54-103.22-59.6,44.24-25.54h-.01Zm44.24,8.51l-14.75,8.51-14.75-8.51,14.75-8.51,14.75,8.51Z"/>
    <path class="cls-40" d="m369.9,293.25l-14.75,8.51-14.75-8.51,14.75-8.51,14.75,8.51Zm0-17.03l-14.75,8.51-44.24-25.54,14.75-8.51,44.24,25.54h0Zm-103.22-25.54l14.75,8.51-29.5,17.03,73.74,42.57,29.5-17.03,14.75,8.51-44.24,25.54-103.22-59.6,44.24-25.54h-.01Zm44.24,8.51l-14.75,8.51-14.75-8.51,14.75-8.51,14.75,8.51Z"/>
    <path class="cls-41" d="m369.9,292.89l-14.75,8.51-14.75-8.51,14.75-8.51,14.75,8.51Zm0-17.03l-14.75,8.51-44.24-25.54,14.75-8.51,44.24,25.54h0Zm-103.22-25.54l14.75,8.51-29.5,17.03,73.74,42.57,29.5-17.03,14.75,8.51-44.24,25.54-103.22-59.6,44.24-25.54h-.01Zm44.24,8.51l-14.75,8.51-14.75-8.51,14.75-8.51,14.75,8.51Z"/>
    <path class="cls-63" d="m369.9,292.53l-14.75,8.51-14.75-8.51,14.75-8.51,14.75,8.51Zm0-17.03l-14.75,8.51-44.24-25.54,14.75-8.51,44.24,25.54h0Zm-103.22-25.54l14.75,8.51-29.5,17.03,73.74,42.57,29.5-17.03,14.75,8.51-44.24,25.54-103.22-59.6,44.24-25.54h-.01Zm44.24,8.51l-14.75,8.51-14.75-8.51,14.75-8.51,14.75,8.51Z"/>
    <path class="cls-70" d="m369.9,292.16l-14.75,8.51-14.75-8.51,14.75-8.51,14.75,8.51Zm0-17.03l-14.75,8.51-44.24-25.54,14.75-8.51,44.24,25.54h0Zm-103.22-25.54l14.75,8.51-29.5,17.03,73.74,42.57,29.5-17.03,14.75,8.51-44.24,25.54-103.22-59.6,44.24-25.54h-.01Zm44.24,8.51l-14.75,8.51-14.75-8.51,14.75-8.51,14.75,8.51Z"/>
    <path class="cls-62" d="m369.9,291.8l-14.75,8.51-14.75-8.51,14.75-8.51,14.75,8.51Zm0-17.03l-14.75,8.51-44.24-25.54,14.75-8.51,44.24,25.54h0Zm-103.22-25.54l14.75,8.51-29.5,17.03,73.74,42.57,29.5-17.03,14.75,8.51-44.24,25.54-103.22-59.6,44.24-25.54h-.01Zm44.24,8.51l-14.75,8.51-14.75-8.51,14.75-8.51,14.75,8.51Z"/>
    <path class="cls-59" d="m369.9,291.44l-14.75,8.51-14.75-8.51,14.75-8.51,14.75,8.51Zm0-17.03l-14.75,8.51-44.24-25.54,14.75-8.51,44.24,25.54h0Zm-103.22-25.54l14.75,8.51-29.5,17.03,73.74,42.57,29.5-17.03,14.75,8.51-44.24,25.54-103.22-59.6,44.24-25.54h-.01Zm44.24,8.51l-14.75,8.51-14.75-8.51,14.75-8.51,14.75,8.51Z"/>
    <path class="cls-78" d="m369.9,291.08l-14.75,8.51-14.75-8.51,14.75-8.51,14.75,8.51Zm0-17.03l-14.75,8.51-44.24-25.54,14.75-8.51,44.24,25.54h0Zm-103.22-25.54l14.75,8.51-29.5,17.03,73.74,42.57,29.5-17.03,14.75,8.51-44.24,25.54-103.22-59.6,44.24-25.54h-.01Zm44.24,8.51l-14.75,8.51-14.75-8.51,14.75-8.51,14.75,8.51Z"/>
    <path class="cls-26" d="m369.9,290.72l-14.75,8.51-14.75-8.51,14.75-8.51,14.75,8.51Zm0-17.03l-14.75,8.51-44.24-25.54,14.75-8.51,44.24,25.54h0Zm-103.22-25.54l14.75,8.51-29.5,17.03,73.74,42.57,29.5-17.03,14.75,8.51-44.24,25.54-103.22-59.6,44.24-25.54h-.01Zm44.24,8.51l-14.75,8.51-14.75-8.51,14.75-8.51,14.75,8.51Z"/>
    <path class="cls-18" d="m369.9,290.36l-14.75,8.51-14.75-8.51,14.75-8.51,14.75,8.51Zm0-17.03l-14.75,8.51-44.24-25.54,14.75-8.51,44.24,25.54h0Zm-103.22-25.54l14.75,8.51-29.5,17.03,73.74,42.57,29.5-17.03,14.75,8.51-44.24,25.54-103.22-59.6,44.24-25.54h-.01Zm44.24,8.51l-14.75,8.51-14.75-8.51,14.75-8.51,14.75,8.51Z"/>
    <path class="cls-13" d="m369.9,290l-14.75,8.51-14.75-8.51,14.75-8.51,14.75,8.51Zm0-17.03l-14.75,8.51-44.24-25.54,14.75-8.51,44.24,25.54h0Zm-103.22-25.54l14.75,8.51-29.5,17.03,73.74,42.57,29.5-17.03,14.75,8.51-44.24,25.54-103.22-59.6,44.24-25.54h-.01Zm44.24,8.51l-14.75,8.51-14.75-8.51,14.75-8.51,14.75,8.51Z"/>
    <path class="cls-2" d="m369.9,289.64l-14.75,8.51-14.75-8.51,14.75-8.51,14.75,8.51Zm0-17.03l-14.75,8.51-44.24-25.54,14.75-8.51,44.24,25.54h0Zm-103.22-25.54l14.75,8.51-29.5,17.03,73.74,42.57,29.5-17.03,14.75,8.51-44.24,25.54-103.22-59.6,44.24-25.54h-.01Zm44.24,8.51l-14.75,8.51-14.75-8.51,14.75-8.51,14.75,8.51Z"/>
    <path class="cls-25" d="m369.9,289.28l-14.75,8.51-14.75-8.51,14.75-8.51,14.75,8.51Zm0-17.03l-14.75,8.51-44.24-25.54,14.75-8.51,44.24,25.54h0Zm-103.22-25.54l14.75,8.51-29.5,17.03,73.74,42.57,29.5-17.03,14.75,8.51-44.24,25.54-103.22-59.6,44.24-25.54h-.01Zm44.24,8.51l-14.75,8.51-14.75-8.51,14.75-8.51,14.75,8.51Z"/>
    <path class="cls-20" d="m369.9,288.92l-14.75,8.51-14.75-8.51,14.75-8.51,14.75,8.51Zm0-17.03l-14.75,8.51-44.24-25.54,14.75-8.51,44.24,25.54h0Zm-103.22-25.54l14.75,8.51-29.5,17.03,73.74,42.57,29.5-17.03,14.75,8.51-44.24,25.54-103.22-59.6,44.24-25.54h-.01Zm44.24,8.51l-14.75,8.51-14.75-8.51,14.75-8.51,14.75,8.51Z"/>
    <path class="cls-29" d="m369.9,288.55l-14.75,8.51-14.75-8.51,14.75-8.51,14.75,8.51Zm0-17.03l-14.75,8.51-44.24-25.54,14.75-8.51,44.24,25.54h0Zm-103.22-25.54l14.75,8.51-29.5,17.03,73.74,42.57,29.5-17.03,14.75,8.51-44.24,25.54-103.22-59.6,44.24-25.54h-.01Zm44.24,8.51l-14.75,8.51-14.75-8.51,14.75-8.51,14.75,8.51Z"/>
    <path class="cls-24" d="m369.9,288.19l-14.75,8.51-14.75-8.51,14.75-8.51,14.75,8.51Zm0-17.03l-14.75,8.51-44.24-25.54,14.75-8.51,44.24,25.54h0Zm-103.22-25.54l14.75,8.51-29.5,17.03,73.74,42.57,29.5-17.03,14.75,8.51-44.24,25.54-103.22-59.6,44.24-25.54h-.01Zm44.24,8.51l-14.75,8.51-14.75-8.51,14.75-8.51,14.75,8.51Z"/>
    <path class="cls-73" d="m369.9,287.83l-14.75,8.51-14.75-8.51,14.75-8.51,14.75,8.51Zm0-17.03l-14.75,8.51-44.24-25.54,14.75-8.51,44.24,25.54h0Zm-103.22-25.54l14.75,8.51-29.5,17.03,73.74,42.57,29.5-17.03,14.75,8.51-44.24,25.54-103.22-59.6,44.24-25.54h-.01Zm44.24,8.51l-14.75,8.51-14.75-8.51,14.75-8.51,14.75,8.51Z"/>
    <path class="cls-74" d="m369.9,287.47l-14.75,8.51-14.75-8.51,14.75-8.51,14.75,8.51Zm0-17.03l-14.75,8.51-44.24-25.54,14.75-8.51,44.24,25.54h0Zm-103.22-25.54l14.75,8.51-29.5,17.03,73.74,42.57,29.5-17.03,14.75,8.51-44.24,25.54-103.22-59.6,44.24-25.54h-.01Zm44.24,8.51l-14.75,8.51-14.75-8.51,14.75-8.51,14.75,8.51Z"/>
    <path class="cls-27" d="m369.9,287.11l-14.75,8.51-14.75-8.51,14.75-8.51,14.75,8.51Zm0-17.03l-14.75,8.51-44.24-25.54,14.75-8.51,44.24,25.54h0Zm-103.22-25.54l14.75,8.51-29.5,17.03,73.74,42.57,29.5-17.03,14.75,8.51-44.24,25.54-103.22-59.6,44.24-25.54h-.01Zm44.24,8.51l-14.75,8.51-14.75-8.51,14.75-8.51,14.75,8.51Z"/>
    <path class="cls-17" d="m369.9,286.75l-14.75,8.51-14.75-8.51,14.75-8.51,14.75,8.51Zm0-17.03l-14.75,8.51-44.24-25.54,14.75-8.51,44.24,25.54h0Zm-103.22-25.54l14.75,8.51-29.5,17.03,73.74,42.57,29.5-17.03,14.75,8.51-44.24,25.54-103.22-59.6,44.24-25.54h-.01Zm44.24,8.51l-14.75,8.51-14.75-8.51,14.75-8.51,14.75,8.51Z"/>
    <path class="cls-72" d="m369.9,286.39l-14.75,8.51-14.75-8.51,14.75-8.51,14.75,8.51Zm0-17.03l-14.75,8.51-44.24-25.54,14.75-8.51,44.24,25.54h0Zm-103.22-25.54l14.75,8.51-29.5,17.03,73.74,42.57,29.5-17.03,14.75,8.51-44.24,25.54-103.22-59.6,44.24-25.54h-.01Zm44.24,8.51l-14.75,8.51-14.75-8.51,14.75-8.51,14.75,8.51Z"/>
    <path class="cls-69" d="m369.9,286.03l-14.75,8.51-14.75-8.51,14.75-8.51,14.75,8.51Zm0-17.03l-14.75,8.51-44.24-25.54,14.75-8.51,44.24,25.54h0Zm-103.22-25.54l14.75,8.51-29.5,17.03,73.74,42.57,29.5-17.03,14.75,8.51-44.24,25.54-103.22-59.6,44.24-25.54h-.01Zm44.24,8.51l-14.75,8.51-14.75-8.51,14.75-8.51,14.75,8.51Z"/>
    <path class="cls-12" d="m369.9,285.67l-14.75,8.51-14.75-8.51,14.75-8.51,14.75,8.51Zm0-17.03l-14.75,8.51-44.24-25.54,14.75-8.51,44.24,25.54h0Zm-103.22-25.54l14.75,8.51-29.5,17.03,73.74,42.57,29.5-17.03,14.75,8.51-44.24,25.54-103.22-59.6,44.24-25.54h-.01Zm44.24,8.51l-14.75,8.51-14.75-8.51,14.75-8.51,14.75,8.51Z"/>
    <path class="cls-56" d="m369.9,285.31l-14.75,8.51-14.75-8.51,14.75-8.51,14.75,8.51Zm0-17.03l-14.75,8.51-44.24-25.54,14.75-8.51,44.24,25.54h0Zm-103.22-25.54l14.75,8.51-29.5,17.03,73.74,42.57,29.5-17.03,14.75,8.51-44.24,25.54-103.22-59.6,44.24-25.54h-.01Zm44.24,8.51l-14.75,8.51-14.75-8.51,14.75-8.51,14.75,8.51Z"/>
    <path class="cls-33" d="m369.9,284.93l-14.75,8.51-14.75-8.51,14.75-8.51,14.75,8.51Zm0-17.03l-14.75,8.51-44.24-25.54,14.75-8.51,44.24,25.54h0Zm-103.22-25.54l14.75,8.51-29.5,17.03,73.74,42.57,29.5-17.03,14.75,8.51-44.24,25.54-103.22-59.6,44.24-25.54h-.01Zm44.24,8.51l-14.75,8.51-14.75-8.51,14.75-8.51,14.75,8.51Z"/>
    <path class="cls-53" d="m369.9,284.57l-14.75,8.51-14.75-8.51,14.75-8.51,14.75,8.51Zm0-17.03l-14.75,8.51-44.24-25.54,14.75-8.51,44.24,25.54h0Zm-103.22-25.54l14.75,8.51-29.5,17.03,73.74,42.57,29.5-17.03,14.75,8.51-44.24,25.54-103.22-59.6,44.24-25.54h-.01Zm44.24,8.51l-14.75,8.51-14.75-8.51,14.75-8.51,14.75,8.51Z"/>
    <path class="cls-76" d="m369.9,284.21l-14.75,8.51-14.75-8.51,14.75-8.51,14.75,8.51Zm0-17.03l-14.75,8.51-44.24-25.54,14.75-8.51,44.24,25.54h0Zm-103.22-25.54l14.75,8.51-29.5,17.03,73.74,42.57,29.5-17.03,14.75,8.51-44.24,25.54-103.22-59.6,44.24-25.54h-.01Zm44.24,8.51l-14.75,8.51-14.75-8.51,14.75-8.51,14.75,8.51Z"/>
    <path class="cls-55" d="m369.9,283.85l-14.75,8.51-14.75-8.51,14.75-8.51,14.75,8.51Zm0-17.03l-14.75,8.51-44.24-25.54,14.75-8.51,44.24,25.54h0Zm-103.22-25.54l14.75,8.51-29.5,17.03,73.74,42.57,29.5-17.03,14.75,8.51-44.24,25.54-103.22-59.6,44.24-25.54h-.01Zm44.24,8.51l-14.75,8.51-14.75-8.51,14.75-8.51,14.75,8.51Z"/>
    <path class="cls-37" d="m369.9,283.49l-14.75,8.51-14.75-8.51,14.75-8.51,14.75,8.51Zm0-17.03l-14.75,8.51-44.24-25.54,14.75-8.51,44.24,25.54h0Zm-103.22-25.54l14.75,8.51-29.5,17.03,73.74,42.57,29.5-17.03,14.75,8.51-44.24,25.54-103.22-59.6,44.24-25.54h-.01Zm44.24,8.51l-14.75,8.51-14.75-8.51,14.75-8.51,14.75,8.51Z"/>
    <path class="cls-10" d="m369.9,283.13l-14.75,8.51-14.75-8.51,14.75-8.51,14.75,8.51Zm0-17.03l-14.75,8.51-44.24-25.54,14.75-8.51,44.24,25.54h0Zm-103.22-25.54l14.75,8.51-29.5,17.03,73.74,42.57,29.5-17.03,14.75,8.51-44.24,25.54-103.22-59.6,44.24-25.54h-.01Zm44.24,8.51l-14.75,8.51-14.75-8.51,14.75-8.51,14.75,8.51Z"/>
    <path class="cls-54" d="m369.9,282.77l-14.75,8.51-14.75-8.51,14.75-8.51,14.75,8.51Zm0-17.03l-14.75,8.51-44.24-25.54,14.75-8.51,44.24,25.54h0Zm-103.22-25.54l14.75,8.51-29.5,17.03,73.74,42.57,29.5-17.03,14.75,8.51-44.24,25.54-103.22-59.6,44.24-25.54h-.01Zm44.24,8.51l-14.75,8.51-14.75-8.51,14.75-8.51,14.75,8.51Z"/>
    <path class="cls-45" d="m369.9,282.41l-14.75,8.51-14.75-8.51,14.75-8.51,14.75,8.51Zm0-17.03l-14.75,8.51-44.24-25.54,14.75-8.51,44.24,25.54h0Zm-103.22-25.54l14.75,8.51-29.5,17.03,73.74,42.57,29.5-17.03,14.75,8.51-44.24,25.54-103.22-59.6,44.24-25.54h-.01Zm44.24,8.51l-14.75,8.51-14.75-8.51,14.75-8.51,14.75,8.51Z"/>
    <path class="cls-32" d="m369.9,282.05l-14.75,8.51-14.75-8.51,14.75-8.51,14.75,8.51Zm0-17.03l-14.75,8.51-44.24-25.54,14.75-8.51,44.24,25.54h0Zm-103.22-25.54l14.75,8.51-29.5,17.03,73.74,42.57,29.5-17.03,14.75,8.51-44.24,25.54-103.22-59.6,44.24-25.54h-.01Zm44.24,8.51l-14.75,8.51-14.75-8.51,14.75-8.51,14.75,8.51Z"/>
    <path class="cls-6" d="m369.9,281.69l-14.75,8.51-14.75-8.51,14.75-8.51,14.75,8.51Zm0-17.03l-14.75,8.51-44.24-25.54,14.75-8.51,44.24,25.54h0Zm-103.22-25.54l14.75,8.51-29.5,17.03,73.74,42.57,29.5-17.03,14.75,8.51-44.24,25.54-103.22-59.6,44.24-25.54h-.01Zm44.24,8.51l-14.75,8.51-14.75-8.51,14.75-8.51,14.75,8.51Z"/>
  </g>
  <g>
    <path class="cls-22" d="m310.1,232.01l-86.01-49.66,12.29-7.09,73.73,42.56,49.15-28.38,12.29,7.09-61.44,35.47h0Z"/>
    <polygon class="cls-3" points="310.1 231.56 224.09 181.9 236.37 174.81 310.1 217.37 359.25 189 371.54 196.09 310.1 231.56"/>
    <polygon class="cls-36" points="310.1 231.1 224.09 181.45 236.37 174.35 310.1 216.92 359.25 188.54 371.54 195.64 310.1 231.1"/>
    <polygon class="cls-8" points="310.1 230.65 224.09 180.99 236.37 173.9 310.1 216.46 359.25 188.09 371.54 195.18 310.1 230.65"/>
    <polygon class="cls-77" points="310.1 230.19 224.09 180.54 236.37 173.44 310.1 216.01 359.25 187.63 371.54 194.73 310.1 230.19"/>
    <polygon class="cls-19" points="310.1 229.74 224.09 180.08 236.37 172.99 310.1 215.55 359.25 187.18 371.54 194.27 310.1 229.74"/>
    <polygon class="cls-52" points="310.1 229.29 224.09 179.63 236.37 172.53 310.1 215.1 359.25 186.72 371.54 193.82 310.1 229.29"/>
    <polygon class="cls-68" points="310.1 228.83 224.09 179.17 236.37 172.08 310.1 214.64 359.25 186.27 371.54 193.36 310.1 228.83"/>
    <polygon class="cls-4" points="310.1 228.38 224.09 178.72 236.37 171.63 310.1 214.19 359.25 185.81 371.54 192.91 310.1 228.38"/>
    <polygon class="cls-57" points="310.1 227.92 224.09 178.26 236.37 171.17 310.1 213.73 359.25 185.36 371.54 192.45 310.1 227.92"/>
    <polygon class="cls-50" points="310.1 227.47 224.09 177.81 236.37 170.72 310.1 213.28 359.25 184.9 371.54 192 310.1 227.47"/>
    <polygon class="cls-14" points="310.1 227.01 224.09 177.36 236.37 170.26 310.1 212.82 359.25 184.45 371.54 191.54 310.1 227.01"/>
    <polygon class="cls-34" points="310.1 226.56 224.09 176.9 236.37 169.81 310.1 212.37 359.25 183.99 371.54 191.09 310.1 226.56"/>
    <polygon class="cls-44" points="310.1 226.1 224.09 176.45 236.37 169.35 310.1 211.91 359.25 183.54 371.54 190.63 310.1 226.1"/>
    <polygon class="cls-5" points="310.1 225.65 224.09 175.99 236.37 168.9 310.1 211.46 359.25 183.08 371.54 190.18 310.1 225.65"/>
    <polygon class="cls-15" points="310.1 225.19 224.09 175.54 236.37 168.44 310.1 211.01 359.25 182.63 371.54 189.72 310.1 225.19"/>
    <polygon class="cls-48" points="310.1 224.74 224.09 175.08 236.37 167.99 310.1 210.55 359.25 182.18 371.54 189.27 310.1 224.74"/>
    <polygon class="cls-30" points="310.1 224.28 224.09 174.63 236.37 167.53 310.1 210.1 359.25 181.72 371.54 188.81 310.1 224.28"/>
    <polygon class="cls-16" points="310.1 223.83 224.09 174.17 236.37 167.08 310.1 209.64 359.25 181.27 371.54 188.36 310.1 223.83"/>
    <polygon class="cls-7" points="310.1 223.37 224.09 173.72 236.37 166.62 310.1 209.19 359.25 180.81 371.54 187.9 310.1 223.37"/>
    <polygon class="cls-47" points="310.1 222.92 224.09 173.26 236.37 166.17 310.1 208.73 359.25 180.36 371.54 187.45 310.1 222.92"/>
    <polygon class="cls-46" points="310.1 222.46 224.09 172.81 236.37 165.71 310.1 208.28 359.25 179.9 371.54 187 310.1 222.46"/>
    <polygon class="cls-58" points="310.1 222.01 224.09 172.35 236.37 165.26 310.1 207.82 359.25 179.45 371.54 186.54 310.1 222.01"/>
    <polygon class="cls-23" points="310.1 221.55 224.09 171.9 236.37 164.8 310.1 207.37 359.25 178.99 371.54 186.09 310.1 221.55"/>
    <polygon class="cls-9" points="310.1 221.1 224.09 171.44 236.37 164.35 310.1 206.91 359.25 178.54 371.54 185.63 310.1 221.1"/>
    <polygon class="cls-39" points="310.1 220.65 224.09 170.99 236.37 163.9 310.1 206.46 359.25 178.08 371.54 185.18 310.1 220.65"/>
    <polygon class="cls-38" points="310.1 220.19 224.09 170.53 236.37 163.44 310.1 206 359.25 177.63 371.54 184.72 310.1 220.19"/>
    <polygon class="cls-35" points="310.1 219.74 224.09 170.08 236.37 162.99 310.1 205.55 359.25 177.17 371.54 184.27 310.1 219.74"/>
    <polygon class="cls-61" points="310.1 219.28 224.09 169.62 236.37 162.53 310.1 205.09 359.25 176.72 371.54 183.81 310.1 219.28"/>
    <polygon class="cls-28" points="310.1 218.83 224.09 169.17 236.37 162.08 310.1 204.64 359.25 176.26 371.54 183.36 310.1 218.83"/>
    <polygon class="cls-11" points="310.1 218.37 224.09 168.72 236.37 161.62 310.1 204.18 359.25 175.81 371.54 182.9 310.1 218.37"/>
    <polygon class="cls-60" points="310.1 217.92 224.09 168.26 236.37 161.17 310.1 203.73 359.25 175.35 371.54 182.45 310.1 217.92"/>
    <polygon class="cls-51" points="310.1 217.46 224.09 167.81 236.37 160.71 310.1 203.27 359.25 174.9 371.54 181.99 310.1 217.46"/>
    <polygon class="cls-43" points="310.1 217.01 224.09 167.35 236.37 160.26 310.1 202.82 359.25 174.44 371.54 181.54 310.1 217.01"/>
    <polygon class="cls-21" points="310.1 216.55 224.09 166.9 236.37 159.8 310.1 202.37 359.25 173.99 371.54 181.08 310.1 216.55"/>
    <polygon class="cls-42" points="310.1 216.1 224.09 166.44 236.37 159.35 310.1 201.91 359.25 173.54 371.54 180.63 310.1 216.1"/>
    <polygon class="cls-66" points="310.1 215.64 224.09 165.99 236.37 158.89 310.1 201.46 359.25 173.08 371.54 180.17 310.1 215.64"/>
    <polygon class="cls-1" points="310.1 215.19 224.09 165.53 236.37 158.44 310.1 201 359.25 172.63 371.54 179.72 310.1 215.19"/>
    <polygon class="cls-65" points="310.1 214.73 224.09 165.08 236.37 157.98 310.1 200.55 359.25 172.17 371.54 179.27 310.1 214.73"/>
    <polygon class="cls-64" points="310.1 214.28 224.09 164.62 236.37 157.53 310.1 200.09 359.25 171.72 371.54 178.81 310.1 214.28"/>
    <polygon class="cls-64" points="310.1 213.82 224.09 164.17 236.37 157.07 310.1 199.64 359.25 171.26 371.54 178.36 310.1 213.82"/>
    <polygon class="cls-31" points="310.1 213.37 224.09 163.71 236.37 156.62 310.1 199.18 359.25 170.81 371.54 177.9 310.1 213.37"/>
    <polygon class="cls-75" points="310.1 212.92 224.09 163.26 236.37 156.16 310.1 198.73 359.25 170.35 371.54 177.45 310.1 212.92"/>
    <polygon class="cls-67" points="310.1 212.46 224.09 162.8 236.37 155.71 310.1 198.27 359.25 169.9 371.54 176.99 310.1 212.46"/>
    <polygon class="cls-71" points="310.1 212.01 224.09 162.35 236.37 155.26 310.1 197.82 359.25 169.44 371.54 176.54 310.1 212.01"/>
    <polygon class="cls-49" points="310.1 211.55 224.09 161.89 236.37 154.8 310.1 197.36 359.25 168.99 371.54 176.08 310.1 211.55"/>
    <polygon class="cls-40" points="310.1 211.1 224.09 161.44 236.37 154.35 310.1 196.91 359.25 168.53 371.54 175.63 310.1 211.1"/>
    <polygon class="cls-41" points="310.1 210.64 224.09 160.98 236.37 153.89 310.1 196.45 359.25 168.08 371.54 175.17 310.1 210.64"/>
    <polygon class="cls-63" points="310.1 210.19 224.09 160.53 236.37 153.44 310.1 196 359.25 167.62 371.54 174.72 310.1 210.19"/>
    <polygon class="cls-70" points="310.1 209.73 224.09 160.08 236.37 152.98 310.1 195.54 359.25 167.17 371.54 174.26 310.1 209.73"/>
    <polygon class="cls-62" points="310.1 209.28 224.09 159.62 236.37 152.53 310.1 195.09 359.25 166.71 371.54 173.81 310.1 209.28"/>
    <polygon class="cls-59" points="310.1 208.82 224.09 159.17 236.37 152.07 310.1 194.64 359.25 166.26 371.54 173.35 310.1 208.82"/>
    <polygon class="cls-78" points="310.1 208.37 224.09 158.71 236.37 151.62 310.1 194.18 359.25 165.81 371.54 172.9 310.1 208.37"/>
    <polygon class="cls-26" points="310.1 207.91 224.09 158.26 236.37 151.16 310.1 193.73 359.25 165.35 371.54 172.44 310.1 207.91"/>
    <polygon class="cls-18" points="310.1 207.46 224.09 157.8 236.37 150.71 310.1 193.27 359.25 164.9 371.54 171.99 310.1 207.46"/>
    <polygon class="cls-13" points="310.1 207 224.09 157.35 236.37 150.25 310.1 192.82 359.25 164.44 371.54 171.53 310.1 207"/>
    <polygon class="cls-2" points="310.1 206.55 224.09 156.89 236.37 149.8 310.1 192.36 359.25 163.99 371.54 171.08 310.1 206.55"/>
    <polygon class="cls-25" points="310.1 206.09 224.09 156.44 236.37 149.34 310.1 191.91 359.25 163.53 371.54 170.63 310.1 206.09"/>
    <polygon class="cls-20" points="310.1 205.64 224.09 155.98 236.37 148.89 310.1 191.45 359.25 163.08 371.54 170.17 310.1 205.64"/>
    <polygon class="cls-29" points="310.1 205.18 224.09 155.53 236.37 148.43 310.1 191 359.25 162.62 371.54 169.72 310.1 205.18"/>
    <polygon class="cls-24" points="310.1 204.73 224.09 155.07 236.37 147.98 310.1 190.54 359.25 162.17 371.54 169.26 310.1 204.73"/>
    <polygon class="cls-73" points="310.1 204.28 224.09 154.62 236.37 147.52 310.1 190.09 359.25 161.71 371.54 168.81 310.1 204.28"/>
    <polygon class="cls-74" points="310.1 203.82 224.09 154.16 236.37 147.07 310.1 189.63 359.25 161.26 371.54 168.35 310.1 203.82"/>
    <polygon class="cls-27" points="310.1 203.37 224.09 153.71 236.37 146.62 310.1 189.18 359.25 160.8 371.54 167.9 310.1 203.37"/>
    <polygon class="cls-17" points="310.1 202.91 224.09 153.25 236.37 146.16 310.1 188.72 359.25 160.35 371.54 167.44 310.1 202.91"/>
    <polygon class="cls-72" points="310.1 202.46 224.09 152.8 236.37 145.71 310.1 188.27 359.25 159.89 371.54 166.99 310.1 202.46"/>
    <polygon class="cls-69" points="310.1 202 224.09 152.34 236.37 145.25 310.1 187.81 359.25 159.44 371.54 166.53 310.1 202"/>
    <polygon class="cls-12" points="310.1 201.55 224.09 151.89 236.37 144.8 310.1 187.36 359.25 158.98 371.54 166.08 310.1 201.55"/>
    <polygon class="cls-56" points="310.1 201.09 224.09 151.44 236.37 144.34 310.1 186.9 359.25 158.53 371.54 165.62 310.1 201.09"/>
    <polygon class="cls-33" points="310.1 200.64 224.09 150.98 236.37 143.89 310.1 186.45 359.25 158.07 371.54 165.17 310.1 200.64"/>
    <polygon class="cls-53" points="310.1 200.18 224.09 150.53 236.37 143.43 310.1 186 359.25 157.62 371.54 164.71 310.1 200.18"/>
    <polygon class="cls-76" points="310.1 199.73 224.09 150.07 236.37 142.98 310.1 185.54 359.25 157.17 371.54 164.26 310.1 199.73"/>
    <polygon class="cls-55" points="310.1 199.27 224.09 149.62 236.37 142.52 310.1 185.09 359.25 156.71 371.54 163.8 310.1 199.27"/>
    <polygon class="cls-37" points="310.1 198.82 224.09 149.16 236.37 142.07 310.1 184.63 359.25 156.26 371.54 163.35 310.1 198.82"/>
    <polygon class="cls-10" points="310.1 198.36 224.09 148.71 236.37 141.61 310.1 184.18 359.25 155.8 371.54 162.89 310.1 198.36"/>
    <polygon class="cls-54" points="310.1 197.91 224.09 148.25 236.37 141.16 310.1 183.72 359.25 155.35 371.54 162.44 310.1 197.91"/>
    <polygon class="cls-45" points="310.1 197.45 224.09 147.8 236.37 140.7 310.1 183.27 359.25 154.89 371.54 161.99 310.1 197.45"/>
    <polygon class="cls-32" points="310.1 197 224.09 147.34 236.37 140.25 310.1 182.81 359.25 154.44 371.54 161.53 310.1 197"/>
    <path class="cls-6" d="m310.1,196.54l-86.01-49.66,12.29-7.09,73.73,42.56,49.15-28.38,12.29,7.09-61.44,35.47h0Z"/>
  </g>
</svg>