<svg width="1512" height="1096" viewBox="0 0 1512 1096" fill="none" xmlns="http://www.w3.org/2000/svg">
<g opacity="0.33">
<mask id="mask0_178_506" style="mask-type:alpha" maskUnits="userSpaceOnUse" x="-4288" y="2" width="10008" height="1094">
<path d="M1990.62 4.94238H1313.61L1413.71 74.1855H3281.67V77.1279H1417.96L1518.85 146.918H4556.65V149.86H1523.1L1729.13 292.384H3281.67V295.326H1733.38L1939.41 437.849H5719.14V440.791H1943.66L2149.68 583.313H4556.65V586.256H2153.94L2465.1 801.511H4556.65V804.453H2469.35L2883.4 1090.88L2882.31 1092.44H5719.14V1095.38H2336.4L2336.35 1095.43L2336.3 1095.38H-4287.85V1092.44H-1364.96L-1366.05 1090.88L-952.003 804.453H-3125.37V801.511H-947.749L-636.586 586.256H-3125.37V583.313H-632.332L-426.308 440.791H-4287.85V437.849H-422.054L-216.029 295.326H-1850.39V292.384H-211.775L-5.75 149.86H-3125.37V146.918H-1.49609L99.3896 77.1279H-1850.39V74.1855H103.643L203.737 4.94238H-559.338V2H1990.62V4.94238ZM-1363.13 1092.44H-802.38L-803.601 1091.17L-502.885 804.453H-946.83L-1363.13 1092.44ZM-800.667 1092.44H-306.551L-307.771 1091.52L-89.6816 804.453H-498.62L-800.667 1092.44ZM-304.773 1092.44H223.056L222.445 1092.2L339.032 804.453H-85.9863L-304.773 1092.44ZM225.521 1092.44H768.054V804.453H342.207L225.521 1092.44ZM770.996 1092.44H1289.81L1183.45 804.453H770.996V1092.44ZM1292.94 1092.44H1831L1612.82 804.453H1186.59L1292.94 1092.44ZM1834.69 1092.44H2333.15L2025.03 804.453H1616.51L1834.69 1092.44ZM2337.46 1092.44H2880.48L2464.18 804.453H2029.34L2337.46 1092.44ZM-942.576 801.511H-499.799L-274.034 586.256H-631.413L-942.576 801.511ZM-495.534 801.511H-87.4463L76.085 586.256H-269.771L-495.534 801.511ZM-83.751 801.511H340.224L427.44 586.256H79.7803L-83.751 801.511ZM343.398 801.511H768.054V586.256H430.615L343.398 801.511ZM770.996 801.511H1182.37L1102.87 586.256H770.996V801.511ZM1185.5 801.511H1610.59L1447.52 586.256H1106.01L1185.5 801.511ZM1614.28 801.511H2021.88L1791.57 586.256H1451.21L1614.28 801.511ZM2026.19 801.511H2459.93L2148.76 586.256H1795.88L2026.19 801.511ZM-627.16 583.313H-270.948L-121.468 440.791H-421.136L-627.16 583.313ZM-266.685 583.313H78.3203L186.596 440.791H-117.204L-266.685 583.313ZM82.0156 583.313H428.633L486.38 440.791H190.291L82.0156 583.313ZM431.808 583.313H768.054V440.791H489.555L431.808 583.313ZM770.996 583.313H1101.78L1049.15 440.791H770.996V583.313ZM1104.92 583.313H1445.29L1337.31 440.791H1052.29L1104.92 583.313ZM1448.98 583.313H1788.43L1635.94 440.791H1341L1448.98 583.313ZM1792.74 583.313H2144.51L1938.49 440.791H1640.25L1792.74 583.313ZM-416.882 437.849H-118.382L31.0986 295.326H-210.857L-416.882 437.849ZM-114.118 437.849H188.831L297.106 295.326H35.3623L-114.118 437.849ZM192.526 437.849H487.572L545.319 295.326H300.803L192.526 437.849ZM490.747 437.849H768.054V295.326H548.494L490.747 437.849ZM770.996 437.849H1048.06L995.43 295.326H770.996V437.849ZM1051.2 437.849H1335.08L1227.11 295.326H998.565L1051.2 437.849ZM1338.77 437.849H1632.79L1480.3 295.326H1230.8L1338.77 437.849ZM1637.1 437.849H1934.23L1728.21 295.326H1484.61L1637.1 437.849ZM-206.604 292.384H34.1846L183.666 149.86H-0.578125L-206.604 292.384ZM38.4482 292.384H299.342L407.618 149.86H187.93L38.4482 292.384ZM303.038 292.384H546.512L604.259 149.86H411.314L303.038 292.384ZM549.687 292.384H768.054V149.86H607.434L549.687 292.384ZM770.996 292.384H994.343L941.708 149.86H770.996V292.384ZM997.479 292.384H1224.88L1116.9 149.86H944.845L997.479 292.384ZM1228.57 292.384H1477.15L1324.66 149.86H1120.59L1228.57 292.384ZM1481.46 292.384H1723.96L1517.93 149.86H1328.97L1481.46 292.384ZM3.6748 146.918H186.752L259.949 77.1279H104.561L3.6748 146.918ZM191.016 146.918H409.854L462.874 77.1279H264.213L191.016 146.918ZM413.55 146.918H605.451L633.729 77.1279H466.569L413.55 146.918ZM608.626 146.918H768.054V77.1279H636.903L608.626 146.918ZM770.996 146.918H940.622L914.848 77.1279H770.996V146.918ZM943.758 146.918H1114.67L1061.8 77.1279H917.984L943.758 146.918ZM1118.37 146.918H1321.52L1246.85 77.1279H1065.49L1118.37 146.918ZM1325.83 146.918H1513.68L1412.79 77.1279H1251.16L1325.83 146.918ZM208.909 4.94238L108.813 74.1855H263.035L335.659 4.94238H208.909ZM339.923 4.94238L267.299 74.1855H465.109L517.714 4.94238H339.923ZM521.41 4.94238L468.805 74.1855H634.921L662.977 4.94238H521.41ZM666.151 4.94238L638.096 74.1855H768.054V5.03906H770.996V74.1855H913.762L888.527 5.85742L891.026 4.94238H666.151ZM891.326 4.94238L916.897 74.1855H1059.57L1008.38 6.6123L1010.6 4.94238H891.326ZM1010.81 4.94238L1063.26 74.1855H1243.7L1171.8 6.98633L1173.73 4.94238H1010.81ZM1173.92 4.94238L1248.01 74.1855H1408.54L1308.44 4.94238H1173.92Z" fill="#005EB7"/>
</mask>
<g mask="url(#mask0_178_506)">
<g filter="url(#filter0_f_178_506)">
<path d="M473.5 -135.383L1062 -128.602L1520 198.321H-4L473.5 -135.383Z" fill="url(#paint0_linear_178_506)"/>
</g>
</g>
</g>
<defs>
<filter id="filter0_f_178_506" x="-41.9" y="-173.283" width="1599.8" height="409.504" filterUnits="userSpaceOnUse" color-interpolation-filters="sRGB">
<feFlood flood-opacity="0" result="BackgroundImageFix"/>
<feBlend mode="normal" in="SourceGraphic" in2="BackgroundImageFix" result="shape"/>
<feGaussianBlur stdDeviation="18.95" result="effect1_foregroundBlur_178_506"/>
</filter>
<linearGradient id="paint0_linear_178_506" x1="759.535" y1="29.0572" x2="759.535" y2="1380.18" gradientUnits="userSpaceOnUse">
<stop stop-color="#005EB7" stop-opacity="0"/>
<stop offset="0.427054" stop-color="#005EB7"/>
<stop offset="0.895" stop-color="#005EB7" stop-opacity="0"/>
</linearGradient>
</defs>
</svg>
